SplineFontDB: 3.0
FontName: ltfont
FullName: ltfont
FamilyName: ltfont
Weight: Regular
Copyright: Copyright (c) 2017, ,,,
UComments: "2017-10-21: Created with FontForge (http://fontforge.org)"
Version: 001.000
ItalicAngle: 0
UnderlinePosition: -100
UnderlineWidth: 50
Ascent: 800
Descent: 200
InvalidEm: 0
LayerCount: 2
Layer: 0 0 "Back" 1
Layer: 1 0 "Fore" 0
XUID: [1021 881 2055310830 19285]
FSType: 0
OS2Version: 0
OS2_WeightWidthSlopeOnly: 0
OS2_UseTypoMetrics: 1
CreationTime: 1508636382
ModificationTime: 1508686920
PfmFamily: 17
TTFWeight: 400
TTFWidth: 5
LineGap: 90
VLineGap: 0
OS2TypoAscent: 0
OS2TypoAOffset: 1
OS2TypoDescent: 0
OS2TypoDOffset: 1
OS2TypoLinegap: 90
OS2WinAscent: 0
OS2WinAOffset: 1
OS2WinDescent: 0
OS2WinDOffset: 1
HheadAscent: 0
HheadAOffset: 1
HheadDescent: 0
HheadDOffset: 1
OS2Vendor: 'PfEd'
Lookup: 4 0 1 "ltligs" { "ltligs1"  } ['liga' ('latn' <'dflt' > ) ]
MarkAttachClasses: 1
DEI: 91125
LangName: 1033
Encoding: ISO8859-1
UnicodeInterp: none
NameList: AGL For New Fonts
DisplaySize: -48
AntiAlias: 1
FitToEm: 0
WinInfo: 38 38 14
BeginPrivate: 0
EndPrivate
BeginChars: 895 664

StartChar: W
Encoding: 87 87 0
Width: 1000
VWidth: 0
Flags: W
HStem: 132 50<169 844> 603 50<171 846> 802 20G<480.571 504.941>
LayerCount: 2
Fore
SplineSet
543 -2 m 5
 522 -37 l 5
 501 -2 l 5
 104 614 l 5
 79 653 l 5
 125 653 l 5
 890 654 l 5
 934 654 l 5
 912 616 l 5
 543 -2 l 5
521 58 m 5
 846 604 l 5
 171 603 l 5
 521 58 l 5
472 787 m 5
 492 822 l 5
 514 788 l 5
 911 171 l 5
 936 132 l 5
 890 132 l 5
 125 131 l 5
 81 131 l 5
 103 169 l 5
 472 787 l 5
494 727 m 5
 169 181 l 5
 844 182 l 5
 494 727 l 5
EndSplineSet
Validated: 5
EndChar

StartChar: T
Encoding: 84 84 1
Width: 1000
VWidth: 0
Flags: W
HStem: 640 55<285 482 485 528 532 701> 760 51<473 532>
VStem: 471 50<-10 473.5> 481 50<277 695>
LayerCount: 2
Fore
SplineSet
496 -10 m 5xe0
 471 -10 l 5
 471 15 l 5xe0
 481 670 l 5
 482 695 l 5
 507 695 l 5
 532 695 l 5
 531 670 l 5xd0
 521 15 l 5
 521 -10 l 5
 496 -10 l 5xe0
227 582 m 5
 204 593 l 5
 216 616 l 5
 248 677 l 5
 255 690 l 5
 270 690 l 5
 712 694 l 5
 725 694 l 5
 733 684 l 5
 779 623 l 5
 794 603 l 5
 774 588 l 5
 754 573 l 5
 739 593 l 5
 701 644 l 5
 285 640 l 5
 260 592 l 5
 248 570 l 5
 227 582 l 5
504 714 m 5
 532 760 l 5
 473 760 l 5
 504 714 l 5
485 654 m 5
 405 770 l 5
 379 808 l 5
 426 809 l 5
 576 811 l 5
 620 812 l 5
 598 773 l 5
 528 655 l 5
 508 622 l 5
 485 654 l 5
EndSplineSet
Validated: 5
EndChar

StartChar: P
Encoding: 80 80 2
Width: 1000
VWidth: 0
Flags: W
VStem: 231 50<103.139 227.714>
LayerCount: 2
Fore
SplineSet
258 439 m 5
 772 392 l 5
 768 342 l 5
 252 389 l 5
 258 439 l 5
233 637 m 1
 216 655 l 1
 233 672 l 1
 232 671 234 672 233 672 c 1
 313 750 415 803 543 780 c 0
 579 773 618 759 654 739 c 0
 721 702 794 631 750 552 c 0
 693 450 590 430 502 368 c 0
 386 287 275 261 280 153 c 0
 280 151 281 149 281 147 c 0
 290 75 400 35 498 47 c 0
 599 59 663 136 725 228 c 2
 739 248 l 1
 760 235 l 1
 781 221 l 1
 767 200 l 2
 705 108 629 14 504 -2 c 0
 402 -14 246 18 231 140 c 0
 230 143 230 148 230 151 c 0
 222 301 376 342 472 409 c 0
 574 480 661 497 706 578 c 0
 726 615 697 658 630 695 c 0
 599 713 563 725 534 730 c 0
 427 750 342 707 268 636 c 2
 250 618 l 1
 233 637 l 1
EndSplineSet
Validated: 37
EndChar

StartChar: K
Encoding: 75 75 3
Width: 1000
VWidth: 0
Flags: W
HStem: 27 51<611 829> 772 20G<794.613 867.922>
LayerCount: 2
Fore
SplineSet
679 316 m 1
 698 352 l 1
 722 318 l 1
 898 72 l 1
 925 34 l 1
 878 33 l 1
 569 27 l 1
 528 26 l 1
 547 63 l 1
 679 316 l 1
704 257 m 1
 611 78 l 1
 829 82 l 1
 704 257 l 1
808 536 m 1
 783 542 l 1
 759 547 l 1
 765 572 l 1
 791 689 l 1
 107 22 l 1
 88 5 l 1
 71 22 l 1
 53 41 l 1
 72 58 l 1
 735 705 l 1
 611 674 l 1
 599 722 l 1
 630 730 l 1
 873 792 l 1
 808 536 l 1
EndSplineSet
Validated: 1
EndChar

StartChar: S
Encoding: 83 83 4
Width: 1000
VWidth: 0
Flags: W
HStem: 325 50<143 410.8> 340 50<533.4 800> 805 20G<472 494.105>
VStem: 472 50<110.875 711> 480 50<-8 624.375>
LayerCount: 2
Fore
SplineSet
805 372 m 0x60
 808 349 820 339 828 340 c 0
 843 341 855 354 853 372 c 0
 851 394 835 408 817 406 c 0
 811 406 802 396 805 372 c 0x60
755 364 m 0
 751 396 761 453 813 456 c 0
 861 460 897 421 902 379 c 0
 908 337 879 293 832 290 c 0
 784 287 760 331 755 364 c 0
143 349 m 1
 142 374 l 1
 168 375 l 1
 167 375 168 374 168 375 c 1xa0
 775 390 l 1
 800 391 l 1
 801 366 l 1
 802 341 l 1
 777 340 l 1x60
 168 325 l 1
 168 326 167 325 168 325 c 1xa0
 143 324 l 1
 143 349 l 1
505 -8 m 1
 480 -8 l 1
 480 17 l 1x28
 472 768 l 1
 472 825 l 1
 514 787 l 1
 768 557 l 1
 787 540 l 1
 769 521 l 1
 752 502 l 1
 734 519 l 1
 522 711 l 1x30
 530 18 l 1
 530 -8 l 1x28
 505 -8 l 1
EndSplineSet
Validated: 37
EndChar

StartChar: X
Encoding: 88 88 5
Width: 1000
VWidth: 0
Flags: W
HStem: 752 20G<837 862>
VStem: 150 50<651.429 711.497> 319 50<118 355.563> 812 50<252.1 771> 822 50<15 534.2>
LayerCount: 2
Fore
SplineSet
837 771 m 1xf0
 862 772 l 1
 862 747 l 1xf0
 872 40 l 1
 872 15 l 1
 848 15 l 1
 822 15 l 1
 822 40 l 1xe8
 812 746 l 1
 812 771 l 1
 837 771 l 1xf0
344 117 m 1
 319 118 l 1
 320 142 l 2
 322 216 289 282 330 368 c 0
 398 514 562 496 537 598 c 0
 511 702 393 694 255 719 c 0
 251 720 245 720 239 719 c 0
 213 714 197 694 200 677 c 2
 204 652 l 1
 179 648 l 1
 155 643 l 1
 150 668 l 2
 140 722 187 760 230 768 c 0
 241 770 251 770 263 768 c 0
 381 747 548 758 585 610 c 0
 620 468 414 430 376 348 c 0
 345 282 373 234 370 141 c 2
 369 116 l 1
 344 117 l 1
344 82 m 4
 347 59 360 49 368 50 c 4
 383 51 394 64 392 82 c 4
 390 104 375 118 357 116 c 4
 351 116 341 106 344 82 c 4
294 74 m 4
 290 106 300 163 352 166 c 4
 400 170 437 131 442 89 c 4
 448 47 418 3 371 0 c 4
 323 -3 299 41 294 74 c 4
EndSplineSet
Validated: 37
EndChar

StartChar: F
Encoding: 70 70 6
Width: 1000
VWidth: 0
Flags: W
HStem: 21 21G<135 170> 762 20G<479 515.143 762 788>
VStem: 474 50<18 746> 762 50<601.35 781>
LayerCount: 2
Fore
SplineSet
909 662 m 5
 932 654 l 5
 925 630 l 6
 885 509 864 439 763 348 c 4
 651 248 514 350 427 293 c 4
 306 214 265 155 170 40 c 6
 154 21 l 5
 135 37 l 5
 116 52 l 5
 132 72 l 6
 225 184 272 252 399 335 c 4
 529 420 650 313 730 385 c 4
 822 468 838 523 878 646 c 6
 885 669 l 5
 909 662 l 5
788 781 m 5
 812 781 l 5
 812 756 l 6
 810 633 799 551 696 459 c 4
 584 359 445 462 358 405 c 4
 237 326 197 267 102 152 c 6
 87 132 l 5
 68 148 l 5
 48 165 l 5
 63 184 l 6
 156 296 205 364 332 447 c 4
 462 532 582 425 662 497 c 4
 753 579 760 636 762 757 c 6
 762 782 l 5
 788 781 l 5
479 765 m 1
 498 785 l 1
 516 764 l 1
 708 542 l 1
 689 525 l 1
 670 508 l 1
 496 711 l 1
 300 505 l 1
 282 522 l 1
 263 539 l 1
 479 765 l 1
495 746 m 1
 520 746 l 1
 520 739 l 1
 524 42 l 1
 524 18 l 1
 499 17 l 1
 474 17 l 1
 474 42 l 1
 470 739 l 1
 470 746 l 1
 495 746 l 1
EndSplineSet
Validated: 37
EndChar

StartChar: N
Encoding: 78 78 7
Width: 1002
VWidth: 0
Flags: W
HStem: 22 51<226 766> 766 20G<816.18 835.357>
VStem: 787 48<393.462 663> 797 51<113 449.538>
LayerCount: 2
Fore
SplineSet
766 73 m 5xc0
 499 358 l 5
 226 68 l 5
 766 73 l 5xc0
787 663 m 5xe0
 534 395 l 5
 797 113 l 5xd0
 787 663 l 5xe0
500 430 m 5
 835 786 l 5xe0
 848 57 l 5
 848 22 l 5
 822 22 l 5
 799 22 l 5
 109 16 l 5
 465 394 l 5
 157 725 l 5
 193 759 l 5
 500 430 l 5
EndSplineSet
Validated: 1
EndChar

StartChar: M
Encoding: 77 77 8
Width: 1000
VWidth: 0
Flags: W
HStem: 14 50<237 812> 213 50<543.463 779> 502 50<199 418.012> 771 20G<189 239>
VStem: 189 50<60 503 553 791> 198 41<503 552>
LayerCount: 2
Fore
SplineSet
198 528 m 5xf4
 198 552 l 5
 222 553 l 6
 319 556 430 564 510 472 c 4
 516 465 520 455 522 446 c 4
 531 388 439 339 430 326 c 5
 530 251 595 273 758 263 c 6
 782 262 l 5
 781 237 l 5
 779 212 l 5
 754 213 l 6
 602 223 516 199 398 288 c 4
 388 296 380 306 378 319 c 4
 376 336 385 349 392 358 c 4
 420 394 468 425 472 438 c 4
 410 510 326 506 224 503 c 6
 199 502 l 5
 198 528 l 5xf4
214 791 m 1
 239 791 l 1
 239 766 l 1
 239 767 240 766 239 766 c 1
 237 60 l 1
 788 64 l 1
 812 64 l 1
 813 39 l 1
 813 14 l 1
 788 14 l 1
 212 10 l 1
 187 10 l 1
 187 35 l 1
 189 766 l 1
 188 766 189 767 189 766 c 1
 189 791 l 1xf8
 214 791 l 1
EndSplineSet
Validated: 37
EndChar

StartChar: H
Encoding: 72 72 9
Width: 1000
VWidth: 0
Flags: W
HStem: 762 20G<752 785>
LayerCount: 2
Fore
SplineSet
786 760 m 1
 798 738 l 1
 775 727 l 2
 627 652 495 588 515 506 c 0
 531 440 800 500 812 362 c 0
 827 200 671 130 543 45 c 2
 522 31 l 1
 508 52 l 1
 495 72 l 1
 516 87 l 2
 656 180 773 236 762 357 c 0
 754 440 503 342 467 494 c 0
 435 632 624 707 752 772 c 2
 775 782 l 1
 786 760 l 1
487 718 m 1
 498 696 l 1
 475 684 l 2
 327 609 195 545 215 463 c 0
 231 397 500 457 512 319 c 0
 527 157 371 87 243 2 c 1
 244 2 244 3 243 2 c 1
 222 -11 l 1
 209 10 l 1
 195 31 l 1
 216 44 l 2
 356 137 473 194 462 315 c 0
 454 398 203 300 167 452 c 0
 135 590 324 664 452 729 c 2
 475 740 l 1
 487 718 l 1
EndSplineSet
Validated: 37
EndChar

StartChar: Z
Encoding: 90 90 10
Width: 1000
VWidth: 0
Flags: W
HStem: 753 45G<158 162 635.667 670>
VStem: 485 50<268.719 525.652>
LayerCount: 2
Fore
SplineSet
670 758 m 5
 690 743 l 5
 675 723 l 6
 581 594 530 521 535 376 c 4
 540 236 606 173 700 47 c 6
 715 27 l 5
 695 12 l 5
 675 -3 l 5
 660 17 l 6
 568 139 490 216 485 374 c 4
 480 535 542 624 635 752 c 6
 649 773 l 5
 670 758 l 5
856 396 m 1
 141 2 l 1
 133 16 125 32 117 46 c 1
 329 164 542 280 754 398 c 1
 138 755 l 1
 146 769 154 784 162 798 c 1
 162 798 632 525 856 396 c 1
EndSplineSet
Validated: 37
EndChar

StartChar: Y
Encoding: 89 89 11
Width: 1000
VWidth: 0
Flags: W
HStem: -3 50<411.813 608.765> 633 50<436.147 585.678> 787 20G<491 523>
VStem: 192 50<228.431 442.161> 797 50<234.537 450.469>
LayerCount: 2
Fore
SplineSet
312 574 m 1
 296 592 l 1
 314 609 l 1
 491 792 l 1
 507 807 l 1
 523 793 l 1
 712 613 l 1
 732 598 l 1
 717 578 l 1
 701 559 l 1
 682 574 l 1
 509 741 l 1
 348 573 l 1
 330 556 l 1
 312 574 l 1
508 633 m 0
 363 635 246 491 242 338 c 0
 239 192 357 49 499 47 c 0
 662 44 792 172 797 336 c 0
 802 498 671 631 508 633 c 0
508 683 m 0
 698 680 852 526 847 334 c 0
 842 144 689 -6 498 -3 c 0
 323 0 188 168 192 338 c 0
 196 511 327 686 508 683 c 0
EndSplineSet
Validated: 37
EndChar

StartChar: C
Encoding: 67 67 12
Width: 1000
VWidth: 0
Flags: W
HStem: 4 50<172 820>
LayerCount: 2
Fore
SplineSet
481 720 m 4
 484 697 496 687 504 688 c 4
 519 689 531 703 529 721 c 4
 527 743 511 756 493 754 c 4
 487 754 478 744 481 720 c 4
431 712 m 4
 427 744 437 801 489 804 c 4
 537 808 574 770 579 728 c 4
 585 686 555 641 508 638 c 4
 460 635 436 679 431 712 c 4
477 640 m 1
 498 674 l 1
 519 640 l 1
 886 42 l 1
 910 3 l 1
 865 3 l 1
 127 4 l 1
 82 4 l 1
 106 42 l 1
 477 640 l 1
498 580 m 1
 172 54 l 1
 820 53 l 1
 498 580 l 1
EndSplineSet
Validated: 37
EndChar

StartChar: L
Encoding: 76 76 13
Width: 1000
VWidth: 0
Flags: W
HStem: -5 50<548.004 821.217> 783 20G<438.826 471.465>
VStem: 417 50<183.201 386 442 715>
LayerCount: 2
Fore
SplineSet
467 397 m 1
 466 313 468 229 482 136 c 0
 494 61 591 47 706 45 c 0
 802 43 826 63 907 128 c 2
 926 143 l 1
 942 123 l 1
 958 104 l 1
 938 88 l 2
 857 23 812 -7 704 -5 c 0
 601 -3 452 3 433 128 c 0
 419 220 416 304 417 386 c 1
 122 543 l 1
 84 563 l 1
 121 586 l 1
 434 780 l 1
 471 803 l 1
 472 760 l 2
 476 628 470 519 468 415 c 1
 467 409 l 1
 467 397 l 1
418 442 m 1
 420 528 425 613 423 715 c 1
 184 567 l 1
 418 442 l 1
EndSplineSet
Validated: 33
EndChar

StartChar: G
Encoding: 71 71 14
Width: 1000
VWidth: 0
Flags: W
HStem: 799 20G<171 201.826 718.5 724>
VStem: 378 49<89.5244 264.468> 724 52<731.293 786>
LayerCount: 2
Fore
SplineSet
97 288 m 2
 215 315 331 353 440 381 c 0
 445 383 463 389 466 393 c 0
 470 399 496 414 500 420 c 0
 504 426 497 422 502 428 c 1
 490 424 459 420 447 418 c 0
 253 391 212 638 157 778 c 2
 148 801 l 1
 171 810 l 1
 194 819 l 1
 203 796 l 2
 268 629 300 441 438 460 c 0
 504 469 589 531 645 613 c 0
 693 681 713 764 724 786 c 1
 724 786 776 808 776 783 c 0
 776 763 773 773 770 765 c 0
 768 762 766 758 764 752 c 0
 722 654 681 583 642 530 c 0
 602 475 564 437 533 402 c 1
 642 421 747 420 836 368 c 0
 912 324 893 224 851 152 c 0
 823 104 781 60 729 32 c 0
 628 -22 444 -18 390 84 c 0
 380 103 376 128 378 152 c 0
 385 226 398 280 419 324 c 1
 321 298 217 264 108 240 c 2
 83 234 l 1
 78 258 l 1
 72 283 l 1
 97 288 l 2
97 288 m 1
 98 288 96 288 97 288 c 1
486 341 m 0
 484 338 481 334 479 331 c 0
 453 289 435 235 427 147 c 0
 425 131 428 119 434 108 c 0
 466 47 616 28 705 76 c 0
 747 98 784 137 808 178 c 0
 849 247 845 305 810 326 c 0
 728 374 626 371 506 345 c 0
 499 343 493 343 486 341 c 0
EndSplineSet
Validated: 37
EndChar

StartChar: Q
Encoding: 81 81 15
Width: 1000
VWidth: 0
Flags: W
HStem: 788 20G<747 772>
VStem: 246 50<-16 532> 253 49<9 532> 722 50<370 807>
LayerCount: 2
Fore
SplineSet
522 509 m 1xb0
 517 485 l 1
 492 491 l 1
 302 532 l 1xb0
 296 8 l 1
 296 -17 l 1
 271 -16 l 1
 246 -16 l 1
 246 9 l 1
 246 10 245 9 246 9 c 1xd0
 253 564 l 1
 253 595 l 1
 283 588 l 1
 503 539 l 1
 528 534 l 1
 522 509 l 1xb0
747 807 m 1
 772 808 l 1
 772 782 l 1
 777 343 l 1
 778 316 l 1
 750 318 l 1
 291 356 l 1
 266 358 l 1
 268 383 l 1
 270 408 l 1
 295 406 l 1
 727 370 l 1
 722 782 l 1
 722 807 l 1
 747 807 l 1
EndSplineSet
Validated: 5
EndChar

StartChar: D
Encoding: 68 68 16
Width: 1000
VWidth: 0
Flags: W
HStem: 774 20G<184 219 781 816>
LayerCount: 2
Fore
SplineSet
816 778 m 1
 835 762 l 1
 819 743 l 1
 219 4 l 1
 203 -15 l 1
 184 1 l 1
 165 17 l 1
 181 36 l 1
 781 775 l 1
 797 794 l 1
 816 778 l 1
184 778 m 1
 203 794 l 1
 219 775 l 1
 819 36 l 1
 835 17 l 1
 816 1 l 1
 797 -15 l 1
 781 4 l 1
 181 743 l 1
 165 762 l 1
 184 778 l 1
EndSplineSet
Validated: 5
EndChar

StartChar: B
Encoding: 66 66 17
Width: 1000
VWidth: 0
Flags: W
HStem: 26 50<572.287 759.067>
VStem: 136 50<183.411 580.091> 360 49<468.444 584.12> 768 49<76.5814 160.75>
LayerCount: 2
Fore
SplineSet
385 587 m 5
 409 590 l 5
 412 565 l 6
 423 485 429 437 462 440 c 4
 500 444 501 519 499 580 c 6
 499 586 l 5
 548 582 l 6
 555 581 560 518 563 503 c 4
 586 405 585 338 523 253 c 4
 511 236 492 231 476 232 c 4
 436 234 381 275 385 322 c 6
 388 348 l 5
 412 345 l 5
 438 342 l 5
 435 318 l 6
 436 310 467 280 482 282 c 4
 521 336 534 405 529 457 c 5
 517 439 495 392 468 390 c 4
 371 380 371 506 363 558 c 6
 360 583 l 5
 385 587 l 5
777 662 m 5
 756 648 l 5
 742 668 l 6
 720 698 686 744 669 743 c 4
 471 731 360 747 251 635 c 4
 168 550 185 514 186 398 c 4
 187 279 174 191 260 104 c 4
 368 -5 510 64 752 76 c 5
 759 88 765 126 768 144 c 6
 772 169 l 5
 797 165 l 5
 821 160 l 5
 817 136 l 6
 816 128 818 28 760 26 c 4
 534 15 361 -69 224 69 c 4
 122 172 137 285 136 397 c 4
 135 509 115 568 215 670 c 4
 351 809 485 785 671 793 c 4
 722 795 761 728 782 698 c 6
 797 677 l 5
 777 662 l 5
EndSplineSet
Validated: 37
EndChar

StartChar: A
Encoding: 65 65 18
Width: 1000
VWidth: 0
Flags: W
HStem: -3 50<189 821> 565 50<475 520.974> 724 50<281.878 368.397 640.237 707.885>
LayerCount: 2
Fore
SplineSet
482 496 m 1
 501 520 l 1
 520 496 l 1
 892 38 l 1
 926 -3 l 1
 873 -3 l 1
 137 -2 l 1
 85 -2 l 1
 118 38 l 1
 482 496 l 1
501 440 m 1
 189 48 l 1
 821 47 l 1
 501 440 l 1
168 579 m 1
 147 592 l 1
 159 614 l 2
 198 680 237 776 342 774 c 0
 465 772 450 616 497 615 c 0
 533 614 568 773 661 769 c 0
 756 764 800 681 849 615 c 2
 864 595 l 1
 844 580 l 1
 824 565 l 1
 809 585 l 2
 754 659 721 716 659 719 c 0
 629 721 593 563 495 565 c 0
 380 567 403 722 341 724 c 0
 274 726 249 666 202 588 c 2
 190 567 l 1
 168 579 l 1
EndSplineSet
Validated: 33
EndChar

StartChar: E
Encoding: 69 69 19
Width: 1000
VWidth: 0
Flags: W
HStem: -17 50<172 240 290 357>
VStem: 240 50<-8 213.525> 546 48<53.25 112.64>
LayerCount: 2
Fore
SplineSet
644 192 m 1
 648 186 l 1
 642 183 l 2
 641 178 640 174 638 170 c 0
 626 133 610 105 600 67 c 2
 594 42 l 1
 570 49 l 1
 546 55 l 1
 552 79 l 2
 560 107 570 129 578 149 c 1
 550 134 504 112 471 153 c 0
 422 215 500 276 536 299 c 0
 545 305 554 307 563 309 c 0
 595 313 641 297 647 254 c 0
 650 231 648 211 644 192 c 1
598 218 m 0
 599 227 600 237 598 248 c 0
 597 252 587 262 571 260 c 0
 568 259 564 258 562 257 c 0
 516 228 498 198 509 185 c 0
 519 173 534 183 588 212 c 0
 591 214 595 216 598 218 c 0
251 412 m 1
 249 289 285 177 290 17 c 1
 289 17 290 16 290 17 c 1
 291 -8 l 1
 266 -9 l 1
 241 -10 l 1
 240 15 l 2
 235 177 194 292 202 438 c 0
 204 480 210 525 222 574 c 0
 251 684 333 803 462 781 c 0
 478 779 494 774 512 769 c 0
 635 736 820 646 780 498 c 0
 725 295 417 396 251 412 c 1
253 462 m 1
 453 443 693 368 732 511 c 0
 757 604 628 686 499 721 c 0
 483 725 467 730 453 732 c 0
 365 748 299 665 271 562 c 0
 262 527 256 494 253 462 c 1
172 10 m 1
 172 35 l 1
 198 35 l 1
 332 33 l 1
 358 32 l 1
 357 8 l 1
 357 -18 l 1
 332 -17 l 1
 197 -15 l 1
 172 -15 l 1
 172 10 l 1
EndSplineSet
Validated: 37
EndChar

StartChar: I
Encoding: 73 73 20
Width: 1000
VWidth: 0
Flags: W
LayerCount: 2
Fore
SplineSet
862 620 m 1
 842 607 l 1
 828 628 l 2
 826 630 824 633 822 635 c 0
 764 717 678 764 617 722 c 0
 483 629 419 377 458 212 c 0
 468 169 490 131 518 103 c 0
 596 25 729 9 842 123 c 2
 860 142 l 1
 878 123 l 1
 895 106 l 1
 878 88 l 2
 747 -44 580 -30 482 68 c 0
 447 103 420 148 408 200 c 0
 365 382 430 653 588 763 c 0
 688 833 803 751 864 664 c 0
 866 661 868 658 870 655 c 2
 883 633 l 1
 862 620 l 1
121 578 m 1
 98 588 l 1
 108 612 l 2
 123 644 147 678 175 710 c 0
 236 777 337 842 419 768 c 0
 602 600 669 407 598 166 c 0
 578 99 545 51 502 22 c 0
 386 -56 227 15 132 156 c 2
 118 177 l 1
 139 191 l 1
 160 205 l 1
 173 184 l 2
 261 53 393 9 474 63 c 0
 506 84 532 122 550 180 c 0
 616 403 557 574 385 732 c 0
 340 774 272 744 212 677 c 0
 187 649 165 617 153 591 c 2
 143 568 l 1
 121 578 l 1
EndSplineSet
Validated: 37
EndChar

StartChar: U
Encoding: 85 85 21
Width: 1000
VWidth: 0
Flags: W
HStem: 363 50<531.581 818.819> 715 50<298.973 724.672> 754 49<149.44 308.841> 776 20G<810 854.553>
LayerCount: 2
Fore
SplineSet
148 778 m 1xa0
 150 803 l 1xa0
 175 801 l 2
 310 787 380 767 512 765 c 0
 626 763 691 781 810 791 c 2
 872 796 l 1
 831 749 l 2
 711 613 603 561 529 428 c 1
 584 420 643 415 711 413 c 0
 776 411 807 431 880 460 c 2
 903 469 l 1
 912 447 l 1
 922 423 l 1
 898 414 l 2
 831 387 788 360 709 363 c 0
 632 365 567 373 506 381 c 1
 454 260 501 188 512 40 c 2
 518 -44 l 1
 457 19 l 1
 134 450 l 1
 98 498 l 1
 158 490 l 2
 285 472 379 452 477 436 c 1
 549 575 647 634 748 734 c 1
 671 725 607 713 512 715 c 0xd0
 375 717 300 737 169 751 c 2
 144 754 l 1
 148 778 l 1xa0
455 389 m 1
 377 401 303 418 211 432 c 1
 460 94 l 1
 445 182 416 287 455 389 c 1
EndSplineSet
Validated: 33
EndChar

StartChar: R
Encoding: 82 82 22
Width: 1000
VWidth: 0
Flags: W
HStem: 785 20G<382 413.565 584.174 615>
VStem: 78 50<305.111 525.224> 836 50<150.145 243.577 539.673 639.41>
LayerCount: 2
Fore
SplineSet
583 782 m 1
 592 805 l 1
 615 797 l 2
 720 759 885 726 887 578 c 0
 889 451 646 420 638 408 c 1
 648 389 886 334 886 202 c 0
 886 68 711 35 618 8 c 2
 594 1 l 1
 587 25 l 1
 580 49 l 1
 604 56 l 1
 715 88 836 120 836 202 c 0
 836 298 587 305 587 408 c 0
 587 517 839 488 837 577 c 0
 835 679 719 707 598 749 c 2
 575 758 l 1
 583 782 l 1
415 785 m 1
 427 763 l 1
 404 752 l 2
 251 673 126 581 128 418 c 0
 130 241 247 138 417 60 c 2
 439 49 l 1
 428 27 l 1
 418 4 l 1
 396 14 l 2
 220 96 81 214 78 417 c 0
 75 612 228 717 382 796 c 2
 404 808 l 1
 415 785 l 1
EndSplineSet
Validated: 37
EndChar

StartChar: O
Encoding: 79 79 23
Width: 1000
VWidth: 0
Flags: W
HStem: 814 20G<493.93 509.931>
LayerCount: 2
Fore
SplineSet
469 245 m 4
 472 222 484 212 492 213 c 4
 507 214 520 229 518 247 c 4
 516 269 499 282 481 280 c 4
 475 280 466 269 469 245 c 4
419 238 m 4
 415 270 426 327 478 330 c 4
 526 334 562 295 567 253 c 4
 573 211 543 167 496 164 c 4
 448 161 424 205 419 238 c 4
188 -1 m 1
 165 8 l 1
 175 32 l 1
 479 777 l 1
 502 834 l 1
 525 776 l 1
 822 28 l 1
 831 4 l 1
 808 -5 l 1
 784 -14 l 1
 775 9 l 1
 502 700 l 1
 221 12 l 1
 212 -11 l 1
 188 -1 l 1
EndSplineSet
Validated: 33
EndChar

StartChar: ltd01
Encoding: 256 -1 24
Width: 1000
VWidth: 0
Flags: W
HStem: 772 20G<794.613 867.922>
LayerCount: 2
Fore
SplineSet
808 536 m 5
 783 542 l 5
 759 547 l 5
 765 572 l 5
 791 689 l 5
 107 22 l 5
 88 5 l 5
 71 22 l 5
 53 41 l 5
 72 58 l 5
 735 705 l 5
 611 674 l 5
 599 722 l 5
 630 730 l 5
 873 792 l 5
 808 536 l 5
EndSplineSet
Validated: 1
EndChar

StartChar: V
Encoding: 86 86 25
Width: 1000
VWidth: 0
Flags: W
HStem: -17 46<666.601 678.41> 793 20G<647 674.667>
VStem: 277 50<314.866 531.716> 437 50<320.977 503.314>
LayerCount: 2
Fore
SplineSet
683 783 m 1
 673 771 l 2
 579 651 485 489 487 424 c 0
 489 352 544 161 686 29 c 2
 694 22 l 1
 675 -17 l 1
 662 -13 l 2
 414 57 285 224 277 423 c 0
 269 614 433 743 647 810 c 2
 658 813 l 1
 683 783 l 1
584 734 m 1
 420 665 321 560 327 425 c 0
 333 273 415 145 582 69 c 1
 480 201 439 349 437 422 c 0
 434 502 507 626 584 734 c 1
EndSplineSet
Validated: 33
EndChar

StartChar: ltd02
Encoding: 257 -1 26
Width: 1000
VWidth: 0
Flags: W
HStem: 640 50<285 485 528 701> 654 36<485 528> 760 51<473 532>
LayerCount: 2
Fore
SplineSet
227 582 m 1xa0
 204 593 l 1
 216 616 l 1
 248 677 l 1
 255 690 l 1
 270 690 l 1x60
 712 694 l 1
 725 694 l 1
 733 684 l 1
 779 623 l 1
 794 603 l 1
 774 588 l 1
 754 573 l 1
 739 593 l 1
 701 644 l 1
 285 640 l 1
 260 592 l 1
 248 570 l 1
 227 582 l 1xa0
504 714 m 1
 532 760 l 1
 473 760 l 1
 504 714 l 1
485 654 m 1
 405 770 l 1
 379 808 l 1
 426 809 l 1
 576 811 l 1
 620 812 l 1
 598 773 l 1
 528 655 l 1
 506 653 l 1
 485 654 l 1
EndSplineSet
Validated: 5
EndChar

StartChar: ltd03
Encoding: 258 -1 27
Width: 1000
VWidth: 0
Flags: W
HStem: 325 50<57 377.2> 340 50<527.8 848>
LayerCount: 2
Fore
SplineSet
852 372 m 4x40
 855 349 869 339 877 340 c 4
 892 341 903 354 901 372 c 4
 899 394 883 408 865 406 c 4
 859 406 849 396 852 372 c 4x40
803 364 m 4
 799 396 809 453 861 456 c 4
 909 460 946 421 951 379 c 4
 957 337 927 293 880 290 c 4
 832 287 808 331 803 364 c 4
56 349 m 1
 55 374 l 1
 80 375 l 1
 79 375 80 374 80 375 c 1x80
 823 390 l 5
 848 391 l 5
 849 366 l 5
 850 341 l 5
 825 340 l 5x40
 82 325 l 1
 82 326 81 325 82 325 c 1x80
 57 324 l 1
 56 349 l 1
EndSplineSet
Validated: 37
EndChar

StartChar: ltd04
Encoding: 259 -1 28
Width: 1000
VWidth: 0
Flags: W
HStem: 752 20G<873 898.8>
VStem: 849 50<322.8 771> 859 50<15 534.2>
LayerCount: 2
Fore
SplineSet
873 771 m 1xc0
 898 772 l 1
 899 747 l 1xc0
 909 40 l 1
 909 15 l 1
 884 15 l 1
 859 15 l 1
 859 40 l 1xa0
 849 746 l 1
 848 771 l 1
 873 771 l 1xc0
EndSplineSet
Validated: 1
EndChar

StartChar: ltd05
Encoding: 260 -1 29
Width: 1000
VWidth: 0
Flags: W
HStem: -158 136
VStem: 453 154
LayerCount: 2
Fore
SplineSet
469 -41 m 1
 485 -22 l 1
 607 -119 l 1
 591 -139 l 1
 575 -158 l 1
 453 -61 l 1
 469 -41 l 1
EndSplineSet
Validated: 1
EndChar

StartChar: ltd06
Encoding: 261 -1 30
Width: 1000
VWidth: 0
Flags: W
HStem: -180 166
VStem: 419 148
LayerCount: 2
Fore
SplineSet
468 -98 m 0
 471 -121 484 -131 492 -130 c 0
 507 -129 520 -116 518 -98 c 0
 516 -76 499 -62 481 -64 c 0
 475 -64 465 -74 468 -98 c 0
419 -106 m 0
 415 -74 425 -17 477 -14 c 0
 525 -10 562 -49 567 -91 c 0
 573 -133 543 -177 496 -180 c 0
 448 -183 424 -139 419 -106 c 0
EndSplineSet
Validated: 33
EndChar

StartChar: ltd07
Encoding: 262 -1 31
Width: 1000
VWidth: 0
Flags: W
HStem: 21 21G<135 170> 762 20G<762 788>
VStem: 762 50<601.35 781>
LayerCount: 2
Fore
SplineSet
909 662 m 5
 932 654 l 5
 925 630 l 6
 885 509 864 439 763 348 c 4
 651 248 514 350 427 293 c 4
 306 214 265 155 170 40 c 6
 154 21 l 5
 135 37 l 5
 116 52 l 5
 132 72 l 6
 225 184 272 252 399 335 c 4
 529 420 650 313 730 385 c 4
 822 468 838 523 878 646 c 6
 885 669 l 5
 909 662 l 5
788 781 m 5
 812 781 l 5
 812 756 l 6
 810 633 799 551 696 459 c 4
 584 359 445 462 358 405 c 4
 237 326 197 267 102 152 c 6
 87 132 l 5
 68 148 l 5
 48 165 l 5
 63 184 l 6
 156 296 205 364 332 447 c 4
 462 532 582 425 662 497 c 4
 753 579 760 636 762 757 c 6
 762 782 l 5
 788 781 l 5
EndSplineSet
Validated: 33
EndChar

StartChar: ltd08
Encoding: 263 -1 32
Width: 1000
VWidth: 0
Flags: W
HStem: 753 20G<635.667 670>
VStem: 485 50<263.036 524.834>
LayerCount: 2
Fore
SplineSet
670 758 m 5
 690 743 l 5
 675 723 l 6
 581 594 530 521 535 376 c 4
 540 236 606 173 700 47 c 6
 715 27 l 5
 695 12 l 5
 675 -3 l 5
 660 17 l 6
 568 139 490 216 485 374 c 4
 480 535 542 624 635 752 c 6
 649 773 l 5
 670 758 l 5
EndSplineSet
Validated: 33
EndChar

StartChar: lt_ZA
Encoding: 264 -1 33
Width: 1000
VWidth: 0
Flags: W
HStem: -3 50<189 821> 565 50<475 520.974> 724 50<281.878 368.397 640.237 707.885>
VStem: 607 40<-52.5091 95.6594>
LayerCount: 2
Fore
SplineSet
697 173 m 5
 705 168 l 5
 713 162 l 5
 707 153 l 5
 701 146 l 6
 681 119 667 99 658 78 c 4
 650 59 646 39 647 12 c 4
 647 0 650 -10 652 -20 c 4
 661 -52 682 -74 711 -113 c 6
 717 -121 l 5
 723 -129 l 5
 715 -135 l 5
 707 -141 l 5
 699 -147 l 5
 691 -153 l 5
 685 -145 l 5
 679 -137 l 6
 654 -104 630 -77 617 -41 c 4
 611 -25 608 -8 607 12 c 4
 606 44 611 69 621 92 c 4
 632 119 649 141 669 169 c 6
 675 178 l 5
 681 185 l 5
 688 179 l 5
 697 173 l 5
482 496 m 1
 501 520 l 1
 520 496 l 1
 892 38 l 1
 926 -3 l 1
 873 -3 l 1
 137 -2 l 1
 85 -2 l 1
 118 38 l 1
 482 496 l 1
501 440 m 1
 189 48 l 1
 821 47 l 1
 501 440 l 1
168 579 m 1
 147 592 l 1
 159 614 l 2
 198 680 237 776 342 774 c 0
 465 772 450 616 497 615 c 0
 533 614 568 773 661 769 c 0
 756 764 800 681 849 615 c 2
 864 595 l 1
 844 580 l 1
 824 565 l 1
 809 585 l 2
 754 659 721 716 659 719 c 0
 629 721 593 563 495 565 c 0
 380 567 403 722 341 724 c 0
 274 726 249 666 202 588 c 2
 190 567 l 1
 168 579 l 1
EndSplineSet
Validated: 37
Ligature2: "ltligs1" Z A
EndChar

StartChar: lt_ZB
Encoding: 265 -1 34
Width: 1000
VWidth: 0
Flags: W
HStem: 26 50<638.353 759.067>
VStem: 136 50<183.411 580.091> 360 49<468.444 584.12> 594 40<42 135.517> 768 49<76.5814 160.75>
LayerCount: 2
Fore
SplineSet
385 587 m 1
 409 590 l 1
 412 565 l 2
 423 485 429 437 462 440 c 0
 500 444 501 519 499 580 c 2
 499 586 l 1
 548 582 l 2
 555 581 560 518 563 503 c 0
 586 405 585 338 523 253 c 0
 511 236 492 231 476 232 c 0
 436 234 381 275 385 322 c 2
 388 348 l 1
 412 345 l 1
 438 342 l 1
 435 318 l 2
 436 310 467 280 482 282 c 0
 521 336 534 405 529 457 c 1
 517 439 495 392 468 390 c 0
 371 380 371 506 363 558 c 2
 360 583 l 1
 385 587 l 1
777 662 m 1
 756 648 l 1
 742 668 l 2
 720 698 686 744 669 743 c 0
 471 731 360 747 251 635 c 0
 168 550 185 514 186 398 c 0
 187 279 174 191 260 104 c 0
 368 -5 510 64 752 76 c 1
 759 88 765 126 768 144 c 2
 772 169 l 1
 797 165 l 1
 821 160 l 1
 817 136 l 2
 816 128 818 28 760 26 c 0
 534 15 361 -69 224 69 c 0
 122 172 137 285 136 397 c 0
 135 509 115 568 215 670 c 0
 351 809 485 785 671 793 c 0
 722 795 761 728 782 698 c 2
 797 677 l 1
 777 662 l 1
684 214 m 5
 692 208 l 5
 700 202 l 5
 694 195 l 5
 688 187 l 6
 668 160 654 139 645 118 c 4
 637 99 633 81 634 54 c 4
 634 42 637 32 639 22 c 4
 648 -10 669 -33 698 -72 c 6
 704 -80 l 5
 710 -88 l 5
 702 -94 l 5
 694 -100 l 5
 686 -106 l 5
 678 -112 l 5
 672 -104 l 5
 666 -96 l 6
 641 -63 616 -36 603 0 c 4
 597 16 595 32 594 52 c 4
 593 84 598 110 608 133 c 4
 619 160 636 182 656 210 c 6
 662 218 l 5
 668 227 l 5
 676 221 l 5
 684 214 l 5
EndSplineSet
Validated: 37
Ligature2: "ltligs1" Z B
EndChar

StartChar: lt_ZC
Encoding: 266 -1 35
Width: 1000
VWidth: 0
Flags: W
HStem: 4 50<172 634 639 820>
VStem: 594 40<53.439 135.517>
LayerCount: 2
Fore
SplineSet
684 214 m 5
 692 208 l 5
 700 202 l 5
 694 195 l 5
 688 187 l 6
 668 160 654 139 645 118 c 4
 637 99 633 81 634 54 c 4
 634 42 637 32 639 22 c 4
 648 -10 669 -33 698 -72 c 6
 704 -80 l 5
 710 -88 l 5
 702 -94 l 5
 694 -100 l 5
 686 -106 l 5
 678 -112 l 5
 672 -104 l 5
 666 -96 l 6
 641 -63 616 -36 603 0 c 4
 597 16 595 32 594 52 c 4
 593 84 598 110 608 133 c 4
 619 160 636 182 656 210 c 6
 662 218 l 5
 668 227 l 5
 676 221 l 5
 684 214 l 5
481 720 m 0
 484 697 496 687 504 688 c 0
 519 689 531 703 529 721 c 0
 527 743 511 756 493 754 c 0
 487 754 478 744 481 720 c 0
431 712 m 0
 427 744 437 801 489 804 c 0
 537 808 574 770 579 728 c 0
 585 686 555 641 508 638 c 0
 460 635 436 679 431 712 c 0
477 640 m 1
 498 674 l 1
 519 640 l 1
 886 42 l 1
 910 3 l 1
 865 3 l 1
 127 4 l 1
 82 4 l 1
 106 42 l 1
 477 640 l 1
498 580 m 1
 172 54 l 1
 820 53 l 1
 498 580 l 1
EndSplineSet
Validated: 37
Ligature2: "ltligs1" Z C
EndChar

StartChar: lt_ZD
Encoding: 267 -1 36
Width: 1000
VWidth: 0
Flags: W
HStem: 221 40<728.34 817.7> 774 20G<184 219 781 816>
LayerCount: 2
Fore
SplineSet
820 241 m 5
 822 231 l 5
 823 221 l 5
 813 219 l 5
 803 218 l 6
 770 213 746 208 725 200 c 4
 706 192 689 181 671 162 c 4
 663 153 657 144 652 136 c 4
 636 108 635 76 628 28 c 6
 626 18 l 5
 624 8 l 5
 615 10 l 5
 605 11 l 5
 595 12 l 5
 585 14 l 5
 587 24 l 5
 588 34 l 6
 594 76 595 111 612 146 c 4
 619 161 629 176 642 190 c 4
 664 213 686 228 709 237 c 4
 736 248 765 253 798 258 c 6
 807 259 l 5
 817 261 l 5
 818 251 l 5
 820 241 l 5
816 778 m 1
 835 762 l 1
 819 743 l 1
 219 4 l 1
 203 -15 l 1
 184 1 l 1
 165 17 l 1
 181 36 l 1
 781 775 l 1
 797 794 l 1
 816 778 l 1
184 778 m 1
 203 794 l 1
 219 775 l 1
 819 36 l 1
 835 17 l 1
 816 1 l 1
 797 -15 l 1
 781 4 l 1
 181 743 l 1
 165 762 l 1
 184 778 l 1
EndSplineSet
Validated: 5
Ligature2: "ltligs1" Z D
EndChar

StartChar: lt_ZE
Encoding: 268 -1 37
Width: 1000
VWidth: 0
Flags: W
HStem: -17 50<172 240 290 357>
VStem: 240 50<-8 213.525> 316 40<323.491 469.688> 546 48<53.25 112.64>
LayerCount: 2
Fore
SplineSet
406 550 m 5
 414 544 l 5
 422 538 l 5
 416 530 l 5
 410 522 l 6
 390 495 377 475 368 454 c 4
 360 435 355 416 356 389 c 4
 356 377 359 367 361 357 c 4
 370 325 391 302 420 263 c 6
 426 255 l 5
 432 248 l 5
 424 242 l 5
 416 235 l 5
 408 229 l 5
 400 223 l 5
 394 232 l 5
 388 239 l 6
 363 272 339 299 326 335 c 4
 320 351 317 368 316 388 c 4
 315 420 320 445 330 468 c 4
 341 495 358 518 378 546 c 6
 384 553 l 5
 390 562 l 5
 398 556 l 5
 406 550 l 5
644 192 m 1
 648 186 l 1
 642 183 l 2
 641 178 640 174 638 170 c 0
 626 133 610 105 600 67 c 2
 594 42 l 1
 570 49 l 1
 546 55 l 1
 552 79 l 2
 560 107 570 129 578 149 c 1
 550 134 504 112 471 153 c 0
 422 215 500 276 536 299 c 0
 545 305 554 307 563 309 c 0
 595 313 641 297 647 254 c 0
 650 231 648 211 644 192 c 1
598 218 m 0
 599 227 600 237 598 248 c 0
 597 252 587 262 571 260 c 0
 568 259 564 258 562 257 c 0
 516 228 498 198 509 185 c 0
 519 173 534 183 588 212 c 0
 591 214 595 216 598 218 c 0
251 412 m 1
 249 289 285 177 290 17 c 1
 289 17 290 16 290 17 c 1
 291 -8 l 1
 266 -9 l 1
 241 -10 l 1
 240 15 l 2
 235 177 194 292 202 438 c 0
 204 480 210 525 222 574 c 0
 251 684 333 803 462 781 c 0
 478 779 494 774 512 769 c 0
 635 736 820 646 780 498 c 0
 725 295 417 396 251 412 c 1
253 462 m 1
 453 443 693 368 732 511 c 0
 757 604 628 686 499 721 c 0
 483 725 467 730 453 732 c 0
 365 748 299 665 271 562 c 0
 262 527 256 494 253 462 c 1
172 10 m 1
 172 35 l 1
 198 35 l 1
 332 33 l 1
 358 32 l 1
 357 8 l 1
 357 -18 l 1
 332 -17 l 1
 197 -15 l 1
 172 -15 l 1
 172 10 l 1
EndSplineSet
Validated: 37
Ligature2: "ltligs1" Z E
EndChar

StartChar: lt_ZF
Encoding: 269 -1 38
Width: 1000
VWidth: 0
Flags: W
HStem: 21 21G<135 170> 762 20G<479 515.143 762 788>
VStem: 474 50<18 746> 622 40<206.85 301.416> 762 50<601.35 781>
LayerCount: 2
Fore
SplineSet
711 434 m 1
 719 428 l 1
 728 422 l 1
 722 414 l 1
 716 407 l 2
 696 380 681 359 672 338 c 0
 664 319 661 300 662 273 c 0
 662 261 664 251 666 241 c 0
 675 209 696 187 725 148 c 2
 732 140 l 1
 738 132 l 1
 729 126 l 1
 722 120 l 1
 713 113 l 1
 705 108 l 1
 699 116 l 1
 693 123 l 2
 668 156 644 184 631 220 c 0
 625 236 623 252 622 272 c 0
 621 304 626 329 636 352 c 0
 647 379 663 402 683 430 c 2
 689 438 l 1
 695 446 l 1
 703 440 l 1
 711 434 l 1
909 662 m 1
 932 654 l 1
 925 630 l 2
 885 509 864 439 763 348 c 0
 651 248 514 350 427 293 c 0
 306 214 265 155 170 40 c 2
 154 21 l 1
 135 37 l 1
 116 52 l 1
 132 72 l 2
 225 184 272 252 399 335 c 0
 529 420 650 313 730 385 c 0
 822 468 838 523 878 646 c 2
 885 669 l 1
 909 662 l 1
788 781 m 1
 812 781 l 1
 812 756 l 2
 810 633 799 551 696 459 c 0
 584 359 445 462 358 405 c 0
 237 326 197 267 102 152 c 2
 87 132 l 1
 68 148 l 1
 48 165 l 1
 63 184 l 2
 156 296 205 364 332 447 c 0
 462 532 582 425 662 497 c 0
 753 579 760 636 762 757 c 2
 762 782 l 1
 788 781 l 1
479 765 m 1
 498 785 l 1
 516 764 l 1
 708 542 l 1
 689 525 l 1
 670 508 l 1
 496 711 l 1
 300 505 l 1
 282 522 l 1
 263 539 l 1
 479 765 l 1
495 746 m 1
 520 746 l 1
 520 739 l 1
 524 42 l 1
 524 18 l 1
 499 17 l 1
 474 17 l 1
 474 42 l 1
 470 739 l 1
 470 746 l 1
 495 746 l 1
EndSplineSet
Validated: 37
Ligature2: "ltligs1" Z F
EndChar

StartChar: lt_ZG
Encoding: 270 -1 39
Width: 1000
VWidth: 0
Flags: W
HStem: 799 20G<171 201.826 718.5 724>
VStem: 378 49<89.5244 264.468> 594 40<51.0654 135.517> 724 52<731.293 786>
LayerCount: 2
Fore
SplineSet
684 214 m 5
 692 208 l 5
 700 202 l 5
 694 195 l 5
 688 187 l 6
 668 160 654 139 645 118 c 4
 637 99 633 81 634 54 c 4
 634 42 637 32 639 22 c 4
 648 -10 669 -33 698 -72 c 6
 704 -80 l 5
 710 -88 l 5
 702 -94 l 5
 694 -100 l 5
 686 -106 l 5
 678 -112 l 5
 672 -104 l 5
 666 -96 l 6
 641 -63 616 -36 603 0 c 4
 597 16 595 32 594 52 c 4
 593 84 598 110 608 133 c 4
 619 160 636 182 656 210 c 6
 662 218 l 5
 668 227 l 5
 676 221 l 5
 684 214 l 5
97 288 m 2
 215 315 331 353 440 381 c 0
 445 383 463 389 466 393 c 0
 470 399 496 414 500 420 c 0
 504 426 497 422 502 428 c 1
 490 424 459 420 447 418 c 0
 253 391 212 638 157 778 c 2
 148 801 l 1
 171 810 l 1
 194 819 l 1
 203 796 l 2
 268 629 300 441 438 460 c 0
 504 469 589 531 645 613 c 0
 693 681 713 764 724 786 c 1
 724 786 776 808 776 783 c 0
 776 763 773 773 770 765 c 0
 768 762 766 758 764 752 c 0
 722 654 681 583 642 530 c 0
 602 475 564 437 533 402 c 1
 642 421 747 420 836 368 c 0
 912 324 893 224 851 152 c 0
 823 104 781 60 729 32 c 0
 628 -22 444 -18 390 84 c 0
 380 103 376 128 378 152 c 0
 385 226 398 280 419 324 c 1
 321 298 217 264 108 240 c 2
 83 234 l 1
 78 258 l 1
 72 283 l 1
 97 288 l 2
97 288 m 1
 98 288 96 288 97 288 c 1
486 341 m 0
 484 338 481 334 479 331 c 0
 453 289 435 235 427 147 c 0
 425 131 428 119 434 108 c 0
 466 47 616 28 705 76 c 0
 747 98 784 137 808 178 c 0
 849 247 845 305 810 326 c 0
 728 374 626 371 506 345 c 0
 499 343 493 343 486 341 c 0
EndSplineSet
Validated: 37
Ligature2: "ltligs1" Z G
EndChar

StartChar: lt_ZH
Encoding: 271 -1 40
Width: 1000
VWidth: 0
Flags: W
HStem: 762 20G<752 785>
LayerCount: 2
Fore
SplineSet
681 309 m 5
 689 303 l 5
 698 298 l 5
 692 289 l 5
 685 281 l 6
 665 254 651 234 642 213 c 4
 634 194 630 175 631 148 c 4
 631 136 634 126 636 116 c 4
 645 84 666 61 695 22 c 6
 701 14 l 5
 708 7 l 5
 699 1 l 5
 691 -6 l 5
 683 -12 l 5
 675 -18 l 5
 669 -9 l 5
 663 -2 l 6
 638 31 614 58 601 94 c 4
 595 110 592 127 591 147 c 4
 590 179 595 205 605 228 c 4
 616 255 633 277 653 305 c 6
 659 312 l 5
 665 321 l 5
 673 315 l 5
 681 309 l 5
786 760 m 1
 798 738 l 1
 775 727 l 2
 627 652 495 588 515 506 c 0
 531 440 800 500 812 362 c 0
 827 200 671 130 543 45 c 2
 522 31 l 1
 508 52 l 1
 495 72 l 1
 516 87 l 2
 656 180 773 236 762 357 c 0
 754 440 503 342 467 494 c 0
 435 632 624 707 752 772 c 2
 775 782 l 1
 786 760 l 1
487 718 m 1
 498 696 l 1
 475 684 l 2
 327 609 195 545 215 463 c 0
 231 397 500 457 512 319 c 0
 527 157 371 87 243 2 c 1
 244 2 244 3 243 2 c 1
 222 -11 l 1
 209 10 l 1
 195 31 l 1
 216 44 l 2
 356 137 473 194 462 315 c 0
 454 398 203 300 167 452 c 0
 135 590 324 664 452 729 c 2
 475 740 l 1
 487 718 l 1
EndSplineSet
Validated: 37
Ligature2: "ltligs1" Z H
EndChar

StartChar: lt_ZI
Encoding: 272 -1 41
Width: 1000
VWidth: 0
Flags: W
VStem: 668 40<-45.1504 103.517>
LayerCount: 2
Fore
SplineSet
758 182 m 5
 766 176 l 5
 774 170 l 5
 768 162 l 5
 762 154 l 6
 742 127 728 107 719 86 c 4
 711 67 707 48 708 21 c 4
 708 9 710 -2 712 -12 c 4
 721 -44 743 -66 772 -105 c 6
 778 -112 l 5
 784 -121 l 5
 776 -127 l 5
 768 -132 l 5
 760 -139 l 5
 752 -145 l 5
 746 -137 l 5
 740 -129 l 6
 715 -96 691 -68 678 -32 c 4
 672 -16 669 0 668 20 c 4
 667 52 672 78 682 101 c 4
 693 128 710 150 730 178 c 6
 736 186 l 5
 742 193 l 5
 750 188 l 5
 758 182 l 5
862 620 m 1
 842 607 l 1
 828 628 l 2
 826 630 824 633 822 635 c 0
 764 717 678 764 617 722 c 0
 483 629 419 377 458 212 c 0
 468 169 490 131 518 103 c 0
 596 25 729 9 842 123 c 2
 860 142 l 1
 878 123 l 1
 895 106 l 1
 878 88 l 2
 747 -44 580 -30 482 68 c 0
 447 103 420 148 408 200 c 0
 365 382 430 653 588 763 c 0
 688 833 803 751 864 664 c 0
 866 661 868 658 870 655 c 2
 883 633 l 1
 862 620 l 1
121 578 m 1
 98 588 l 1
 108 612 l 2
 123 644 147 678 175 710 c 0
 236 777 337 842 419 768 c 0
 602 600 669 407 598 166 c 0
 578 99 545 51 502 22 c 0
 386 -56 227 15 132 156 c 2
 118 177 l 1
 139 191 l 1
 160 205 l 1
 173 184 l 2
 261 53 393 9 474 63 c 0
 506 84 532 122 550 180 c 0
 616 403 557 574 385 732 c 0
 340 774 272 744 212 677 c 0
 187 649 165 617 153 591 c 2
 143 568 l 1
 121 578 l 1
EndSplineSet
Validated: 37
Ligature2: "ltligs1" Z I
EndChar

StartChar: lt_ZK
Encoding: 273 -1 42
Width: 1000
VWidth: 0
Flags: W
HStem: 27 51<611 829> 772 20G<794.613 867.922>
VStem: 652 40<-65.5424 28.4817>
LayerCount: 2
Fore
SplineSet
742 160 m 1
 750 154 l 1
 758 148 l 1
 752 140 l 1
 747 132 l 2
 727 105 712 85 703 64 c 0
 695 45 691 26 692 -1 c 0
 692 -13 695 -23 697 -33 c 0
 706 -65 727 -88 756 -127 c 2
 762 -134 l 1
 768 -142 l 1
 760 -148 l 1
 752 -154 l 1
 744 -161 l 1
 736 -167 l 1
 730 -158 l 1
 724 -151 l 2
 699 -118 675 -90 662 -54 c 0
 656 -38 653 -22 652 -2 c 0
 651 30 657 55 667 78 c 0
 678 105 694 128 714 156 c 2
 720 163 l 1
 726 172 l 1
 734 166 l 1
 742 160 l 1
679 316 m 1
 698 352 l 1
 722 318 l 1
 898 72 l 1
 925 34 l 1
 878 33 l 1
 569 27 l 1
 528 26 l 1
 547 63 l 1
 679 316 l 1
704 257 m 1
 611 78 l 1
 829 82 l 1
 704 257 l 1
808 536 m 1
 783 542 l 1
 759 547 l 1
 765 572 l 1
 791 689 l 1
 107 22 l 1
 88 5 l 1
 71 22 l 1
 53 41 l 1
 72 58 l 1
 735 705 l 1
 611 674 l 1
 599 722 l 1
 630 730 l 1
 873 792 l 1
 808 536 l 1
EndSplineSet
Validated: 37
Ligature2: "ltligs1" Z K
EndChar

StartChar: lt_ZL
Encoding: 274 -1 43
Width: 1000
VWidth: 0
Flags: W
HStem: -5 50<548.004 821.217> 783 20G<438.826 471.465>
VStem: 417 50<183.201 386 442 715> 678 40<-46.5091 101.659>
LayerCount: 2
Fore
SplineSet
768 180 m 5
 776 174 l 5
 784 168 l 5
 778 160 l 5
 772 152 l 6
 752 125 738 105 729 84 c 4
 721 65 717 46 718 19 c 4
 718 7 721 -3 723 -13 c 4
 732 -45 753 -68 782 -107 c 6
 788 -115 l 5
 794 -122 l 5
 786 -128 l 5
 778 -135 l 5
 770 -141 l 5
 762 -147 l 5
 756 -138 l 5
 750 -131 l 6
 725 -98 701 -71 688 -35 c 4
 682 -19 679 -2 678 18 c 4
 677 50 682 75 692 98 c 4
 703 125 720 148 740 176 c 6
 746 183 l 5
 752 192 l 5
 760 186 l 5
 768 180 l 5
467 397 m 1
 466 313 468 229 482 136 c 0
 494 61 591 47 706 45 c 0
 802 43 826 63 907 128 c 2
 926 143 l 1
 942 123 l 1
 958 104 l 1
 938 88 l 2
 857 23 812 -7 704 -5 c 0
 601 -3 452 3 433 128 c 0
 419 220 416 304 417 386 c 1
 122 543 l 1
 84 563 l 1
 121 586 l 1
 434 780 l 1
 471 803 l 1
 472 760 l 2
 476 628 470 519 468 415 c 1
 467 409 l 1
 467 397 l 1
418 442 m 1
 420 528 425 613 423 715 c 1
 184 567 l 1
 418 442 l 1
EndSplineSet
Validated: 37
Ligature2: "ltligs1" Z L
EndChar

StartChar: lt_ZM
Encoding: 275 -1 44
Width: 1000
VWidth: 0
Flags: W
HStem: 14 50<237 812> 213 50<543.463 779> 502 50<199 418.012> 771 20G<189 239>
VStem: 189 50<60 503 553 791> 198 41<503 552> 601 40<-51.1504 97.6594>
LayerCount: 2
Fore
SplineSet
691 176 m 5xf2
 699 170 l 5
 707 164 l 5
 701 156 l 5
 695 148 l 6
 675 121 661 101 652 80 c 4
 644 61 640 42 641 15 c 4
 641 3 644 -8 646 -18 c 4
 655 -50 676 -72 705 -111 c 6
 711 -118 l 5
 718 -127 l 5
 709 -132 l 5
 701 -138 l 5
 693 -145 l 5
 685 -151 l 5
 679 -142 l 5
 673 -135 l 6
 648 -102 624 -74 611 -38 c 4
 605 -22 602 -6 601 14 c 4
 600 46 605 71 615 94 c 4
 626 121 643 144 663 172 c 6
 669 180 l 5
 675 188 l 5
 682 182 l 5
 691 176 l 5xf2
198 528 m 1xf6
 198 552 l 1
 222 553 l 2
 319 556 430 564 510 472 c 0
 516 465 520 455 522 446 c 0
 531 388 439 339 430 326 c 1
 530 251 595 273 758 263 c 2
 782 262 l 1
 781 237 l 1
 779 212 l 1
 754 213 l 2
 602 223 516 199 398 288 c 0
 388 296 380 306 378 319 c 0
 376 336 385 349 392 358 c 0
 420 394 468 425 472 438 c 0
 410 510 326 506 224 503 c 2
 199 502 l 1
 198 528 l 1xf6
214 791 m 1
 239 791 l 1
 239 766 l 1
 239 767 240 766 239 766 c 1
 237 60 l 1
 788 64 l 1
 812 64 l 1
 813 39 l 1
 813 14 l 1
 788 14 l 1
 212 10 l 1
 187 10 l 1
 187 35 l 1
 189 766 l 1
 188 766 189 767 189 766 c 1
 189 791 l 1xfa
 214 791 l 1
EndSplineSet
Validated: 37
Ligature2: "ltligs1" Z M
EndChar

StartChar: lt_ZN
Encoding: 276 -1 45
Width: 1002
VWidth: 0
Flags: W
HStem: 22 51<226 766> 766 20G<816.18 835.357>
VStem: 452 40<-48.4759 99.5141> 787 48<393.462 663> 797 51<113 449.538>
LayerCount: 2
Fore
SplineSet
542 178 m 5xe0
 550 172 l 5
 558 166 l 5
 552 158 l 5
 546 150 l 6
 526 123 512 103 503 82 c 4
 495 63 491 45 492 18 c 4
 492 6 495 -5 497 -15 c 4
 506 -47 527 -70 556 -109 c 6
 562 -117 l 5
 568 -125 l 5
 560 -131 l 5
 552 -137 l 5
 544 -142 l 5
 536 -149 l 5
 530 -141 l 5
 524 -132 l 6
 499 -99 475 -73 462 -37 c 4
 456 -21 453 -4 452 16 c 4
 451 48 456 74 466 97 c 4
 477 124 494 145 514 173 c 6
 520 182 l 5
 526 189 l 5
 534 183 l 5
 542 178 l 5xe0
766 73 m 1
 499 358 l 1
 226 68 l 1
 766 73 l 1
787 663 m 1xf0
 534 395 l 1
 797 113 l 1xe8
 787 663 l 1xf0
500 430 m 1
 835 786 l 1xf0
 848 57 l 1
 848 22 l 1
 822 22 l 1
 799 22 l 1
 109 16 l 1
 465 394 l 1
 157 725 l 1
 193 759 l 1
 500 430 l 1
EndSplineSet
Validated: 37
Ligature2: "ltligs1" Z N
EndChar

StartChar: lt_ZO
Encoding: 277 -1 46
Width: 1000
VWidth: 0
Flags: W
HStem: 814 20G<493.93 509.931>
LayerCount: 2
Fore
SplineSet
909 166 m 1
 905 157 l 1
 902 148 l 1
 892 151 l 1
 883 154 l 2
 852 166 829 176 807 179 c 0
 787 182 767 181 741 173 c 0
 729 170 719 166 711 161 c 0
 683 144 666 118 635 80 c 2
 629 72 l 1
 622 64 l 1
 615 71 l 1
 607 77 l 1
 599 83 l 1
 592 89 l 1
 598 98 l 1
 604 105 l 2
 631 138 649 167 681 189 c 0
 694 198 711 206 730 212 c 0
 760 221 787 221 812 218 c 0
 840 214 866 204 898 192 c 2
 907 188 l 1
 917 184 l 1
 912 175 l 1
 909 166 l 1
469 245 m 0
 472 222 484 212 492 213 c 0
 507 214 520 229 518 247 c 0
 516 269 499 282 481 280 c 0
 475 280 466 269 469 245 c 0
419 238 m 0
 415 270 426 327 478 330 c 0
 526 334 562 295 567 253 c 0
 573 211 543 167 496 164 c 0
 448 161 424 205 419 238 c 0
188 -1 m 1
 165 8 l 1
 175 32 l 1
 479 777 l 1
 502 834 l 1
 525 776 l 1
 822 28 l 1
 831 4 l 1
 808 -5 l 1
 784 -14 l 1
 775 9 l 1
 502 700 l 1
 221 12 l 1
 212 -11 l 1
 188 -1 l 1
EndSplineSet
Validated: 37
Ligature2: "ltligs1" Z O
EndChar

StartChar: lt_ZP
Encoding: 278 -1 47
Width: 1000
VWidth: 0
Flags: W
HStem: 389 50<257.16 282>
VStem: 231 50<103.139 227.714>
LayerCount: 2
Fore
SplineSet
643 228 m 5
 651 222 l 5
 659 216 l 5
 653 208 l 5
 648 200 l 6
 628 173 613 153 604 132 c 4
 596 113 592 95 593 68 c 4
 593 56 596 45 598 35 c 4
 607 3 629 -19 658 -58 c 6
 663 -67 l 5
 669 -75 l 5
 661 -81 l 5
 653 -87 l 5
 645 -92 l 5
 638 -98 l 5
 631 -91 l 5
 625 -82 l 6
 600 -49 575 -23 562 13 c 4
 556 29 554 46 553 66 c 4
 552 98 558 124 568 147 c 4
 579 174 595 195 615 223 c 6
 621 232 l 5
 627 240 l 5
 635 234 l 5
 643 228 l 5
255 414 m 1
 258 439 l 1
 282 437 l 1
 748 395 l 1
 772 392 l 1
 770 368 l 1
 768 342 l 1
 742 345 l 1
 278 388 l 1
 252 389 l 1
 255 414 l 1
233 637 m 1
 216 655 l 1
 233 672 l 1
 232 671 234 672 233 672 c 1
 313 750 415 803 543 780 c 0
 579 773 618 759 654 739 c 0
 721 702 794 631 750 552 c 0
 693 450 590 430 502 368 c 0
 386 287 275 261 280 153 c 0
 280 151 281 149 281 147 c 0
 290 75 400 35 498 47 c 0
 599 59 663 136 725 228 c 2
 739 248 l 1
 760 235 l 1
 781 221 l 1
 767 200 l 2
 705 108 629 14 504 -2 c 0
 402 -14 246 18 231 140 c 0
 230 143 230 148 230 151 c 0
 222 301 376 342 472 409 c 0
 574 480 661 497 706 578 c 0
 726 615 697 658 630 695 c 0
 599 713 563 725 534 730 c 0
 427 750 342 707 268 636 c 2
 250 618 l 1
 233 637 l 1
EndSplineSet
Validated: 37
Ligature2: "ltligs1" Z P
EndChar

StartChar: lt_ZQ
Encoding: 279 -1 48
Width: 1000
VWidth: 0
Flags: W
HStem: 788 20G<747 772>
VStem: 246 50<-16 532> 253 49<9 532> 532 40<253.125 333.423> 722 50<370 807>
LayerCount: 2
Fore
SplineSet
622 478 m 5x98
 630 472 l 5
 638 466 l 5
 632 458 l 5
 627 450 l 6
 607 423 592 403 583 382 c 4
 575 363 571 345 572 318 c 4
 572 306 575 295 577 285 c 4
 586 253 607 231 636 192 c 6
 642 183 l 5
 648 176 l 5
 640 169 l 5
 632 163 l 5
 624 158 l 5
 616 152 l 5
 610 159 l 5
 604 168 l 6
 579 201 555 227 542 263 c 4
 536 279 533 296 532 316 c 4
 531 348 537 374 547 397 c 4
 558 424 574 445 594 473 c 6
 600 482 l 5
 606 490 l 5
 614 484 l 5
 622 478 l 5x98
522 509 m 1
 517 485 l 1
 492 491 l 1
 302 532 l 1xb8
 296 8 l 1
 296 -17 l 1
 271 -16 l 1
 246 -16 l 1
 246 9 l 1
 246 10 245 9 246 9 c 1xd8
 253 564 l 1
 253 595 l 1xb8
 283 588 l 1
 503 539 l 1
 528 534 l 1
 522 509 l 1
747 807 m 1
 772 808 l 1
 772 782 l 1
 777 343 l 1
 778 316 l 1
 750 318 l 1
 291 356 l 1
 266 358 l 1
 268 383 l 1
 270 408 l 1
 295 406 l 1
 727 370 l 1
 722 782 l 1
 722 807 l 1
 747 807 l 1
EndSplineSet
Validated: 37
Ligature2: "ltligs1" Z Q
EndChar

StartChar: lt_ZR
Encoding: 280 -1 49
Width: 1000
VWidth: 0
Flags: W
HStem: 785 20G<382 413.565 584.174 615>
VStem: 78 50<305.111 525.224> 291 40<-26.5091 57.875> 836 50<150.145 243.577 539.673 639.41>
LayerCount: 2
Fore
SplineSet
381 200 m 5
 389 194 l 5
 397 188 l 5
 391 180 l 5
 385 172 l 6
 365 145 351 125 342 104 c 4
 334 85 330 66 331 39 c 4
 331 27 334 17 336 7 c 4
 345 -25 366 -48 395 -87 c 6
 401 -95 l 5
 408 -102 l 5
 399 -108 l 5
 391 -115 l 5
 383 -121 l 5
 375 -127 l 5
 369 -118 l 5
 363 -111 l 6
 338 -78 314 -51 301 -15 c 4
 295 1 292 18 291 38 c 4
 290 70 295 95 305 118 c 4
 316 145 333 168 353 196 c 6
 359 203 l 5
 365 212 l 5
 372 206 l 5
 381 200 l 5
583 782 m 1
 592 805 l 1
 615 797 l 2
 720 759 885 726 887 578 c 0
 889 451 646 420 638 408 c 1
 648 389 886 334 886 202 c 0
 886 68 711 35 618 8 c 2
 594 1 l 1
 587 25 l 1
 580 49 l 1
 604 56 l 1
 715 88 836 120 836 202 c 0
 836 298 587 305 587 408 c 0
 587 517 839 488 837 577 c 0
 835 679 719 707 598 749 c 2
 575 758 l 1
 583 782 l 1
415 785 m 1
 427 763 l 1
 404 752 l 2
 251 673 126 581 128 418 c 0
 130 241 247 138 417 60 c 2
 439 49 l 1
 428 27 l 1
 418 4 l 1
 396 14 l 2
 220 96 81 214 78 417 c 0
 75 612 228 717 382 796 c 2
 404 808 l 1
 415 785 l 1
EndSplineSet
Validated: 37
Ligature2: "ltligs1" Z R
EndChar

StartChar: lt_ZS
Encoding: 281 -1 50
Width: 1000
VWidth: 0
Flags: W
HStem: 325 50<143 410.8> 340 50<533.4 800> 805 20G<472 494.105>
VStem: 472 50<110.875 711> 480 50<-8 624.375> 572 40<279.1 424.517>
LayerCount: 2
Fore
SplineSet
662 504 m 5x24
 670 498 l 5
 678 492 l 5
 672 484 l 5
 667 476 l 6
 647 449 632 429 623 408 c 4
 615 389 611 370 612 343 c 4
 612 331 615 321 617 311 c 4
 626 279 647 257 676 218 c 6
 682 209 l 5
 688 202 l 5
 680 195 l 5
 672 189 l 5
 664 183 l 5
 656 178 l 5
 650 185 l 5
 644 193 l 6
 619 226 595 253 582 289 c 4
 576 305 573 322 572 342 c 4
 571 374 577 399 587 422 c 4
 598 449 614 471 634 499 c 6
 640 508 l 5
 646 516 l 5
 654 510 l 5
 662 504 l 5x24
805 372 m 0
 808 349 820 339 828 340 c 0x64
 843 341 855 354 853 372 c 0
 851 394 835 408 817 406 c 0
 811 406 802 396 805 372 c 0
755 364 m 0
 751 396 761 453 813 456 c 0
 861 460 897 421 902 379 c 0
 908 337 879 293 832 290 c 0
 784 287 760 331 755 364 c 0
143 349 m 1
 142 374 l 1
 168 375 l 1
 167 375 168 374 168 375 c 1xa4
 775 390 l 1
 800 391 l 1
 801 366 l 1
 802 341 l 1
 777 340 l 1x64
 168 325 l 1
 168 326 167 325 168 325 c 1xa4
 143 324 l 1
 143 349 l 1
505 -8 m 1
 480 -8 l 1
 480 17 l 1x2c
 472 768 l 1
 472 825 l 1
 514 787 l 1
 768 557 l 1
 787 540 l 1
 769 521 l 1
 752 502 l 1
 734 519 l 1
 522 711 l 1x34
 530 18 l 1
 530 -8 l 1x2c
 505 -8 l 1
EndSplineSet
Validated: 37
Ligature2: "ltligs1" Z S
EndChar

StartChar: lt_ZT
Encoding: 282 -1 51
Width: 1000
VWidth: 0
Flags: W
HStem: 640 55<285 482 485 528 532 701> 760 51<473 532> 814 20G<670 684>
VStem: 471 50<-10 473.5> 481 50<277 695> 602 40<596.491 743.517>
LayerCount: 2
Fore
SplineSet
692 822 m 5xe4
 700 816 l 5
 708 810 l 5
 702 802 l 5
 697 794 l 6
 677 767 662 747 653 726 c 4
 645 707 641 689 642 662 c 4
 642 650 645 639 647 629 c 4
 656 597 677 575 706 536 c 6
 712 528 l 5
 718 519 l 5
 710 513 l 5
 702 508 l 5
 694 502 l 5
 686 496 l 5
 680 503 l 5
 674 512 l 6
 649 545 625 572 612 608 c 4
 606 624 603 640 602 660 c 4
 601 692 607 718 617 741 c 4
 628 768 644 790 664 818 c 6
 670 826 l 5
 676 834 l 5
 684 828 l 5
 692 822 l 5xe4
496 -10 m 1
 471 -10 l 1
 471 15 l 1xf4
 481 670 l 1
 482 695 l 1
 507 695 l 1
 532 695 l 1
 531 670 l 1xec
 521 15 l 1
 521 -10 l 1xf4
 496 -10 l 1
227 582 m 1
 204 593 l 1
 216 616 l 1
 248 677 l 1
 255 690 l 1
 270 690 l 1
 712 694 l 1
 725 694 l 1
 733 684 l 1
 779 623 l 1
 794 603 l 1
 774 588 l 1
 754 573 l 1
 739 593 l 1
 701 644 l 1
 285 640 l 1
 260 592 l 1
 248 570 l 1
 227 582 l 1
504 714 m 1
 532 760 l 1
 473 760 l 1
 504 714 l 1
485 654 m 1
 405 770 l 1
 379 808 l 1
 426 809 l 1
 576 811 l 1
 620 812 l 1
 598 773 l 1
 528 655 l 1
 508 622 l 1
 485 654 l 1
EndSplineSet
Validated: 37
Ligature2: "ltligs1" Z T
EndChar

StartChar: lt_ZU
Encoding: 283 -1 52
Width: 1000
VWidth: 0
Flags: W
HStem: 363 50<531.581 818.819> 715 50<298.973 724.672> 754 49<149.44 308.841> 776 20G<810 854.553>
VStem: 709 40<299.458 446.659>
LayerCount: 2
Fore
SplineSet
799 525 m 5x88
 807 519 l 5
 815 513 l 5
 809 505 l 5
 803 497 l 6
 783 470 769 450 760 429 c 4
 752 410 748 391 749 364 c 4
 749 352 752 342 754 332 c 4
 763 300 784 277 813 238 c 6
 819 231 l 5
 825 222 l 5
 818 217 l 5
 809 211 l 5
 801 204 l 5
 793 198 l 5
 788 207 l 5
 781 214 l 6
 756 247 732 275 719 311 c 4
 713 327 710 343 709 363 c 4
 708 395 713 420 723 443 c 4
 734 470 751 493 771 521 c 6
 777 528 l 5
 782 537 l 5
 791 531 l 5
 799 525 l 5x88
148 778 m 1
 150 803 l 1xa8
 175 801 l 2
 310 787 380 767 512 765 c 0
 626 763 691 781 810 791 c 2
 872 796 l 1
 831 749 l 2
 711 613 603 561 529 428 c 1
 584 420 643 415 711 413 c 0
 776 411 807 431 880 460 c 2
 903 469 l 1
 912 447 l 1
 922 423 l 1
 898 414 l 2
 831 387 788 360 709 363 c 0
 632 365 567 373 506 381 c 1
 454 260 501 188 512 40 c 2
 518 -44 l 1
 457 19 l 1
 134 450 l 1
 98 498 l 1
 158 490 l 2
 285 472 379 452 477 436 c 1
 549 575 647 634 748 734 c 1
 671 725 607 713 512 715 c 0xd8
 375 717 300 737 169 751 c 2
 144 754 l 1xa8
 148 778 l 1
455 389 m 1
 377 401 303 418 211 432 c 1
 460 94 l 1
 445 182 416 287 455 389 c 1
EndSplineSet
Validated: 37
Ligature2: "ltligs1" Z U
EndChar

StartChar: lt_ZV
Encoding: 284 -1 53
Width: 1000
VWidth: 0
Flags: W
HStem: -17 46<666.601 678.41> 203 40<546.783 640.625> 793 20G<647 674.667>
VStem: 277 50<314.866 531.716> 437 50<320.977 503.314>
LayerCount: 2
Fore
SplineSet
642 225 m 5
 642 215 l 5
 643 205 l 5
 633 204 l 5
 623 203 l 6
 590 201 565 199 543 192 c 4
 523 186 507 177 487 159 c 4
 478 151 471 142 465 134 c 4
 447 107 443 77 432 29 c 6
 430 19 l 5
 428 9 l 5
 418 12 l 5
 408 14 l 5
 398 16 l 5
 388 18 l 5
 391 28 l 5
 393 38 l 6
 402 79 407 115 426 148 c 4
 434 162 445 176 460 189 c 4
 483 210 507 222 531 230 c 4
 559 238 587 241 620 243 c 6
 630 244 l 5
 640 245 l 5
 641 235 l 5
 642 225 l 5
683 783 m 1
 673 771 l 2
 579 651 485 489 487 424 c 0
 489 352 544 161 686 29 c 2
 694 22 l 1
 675 -17 l 1
 662 -13 l 2
 414 57 285 224 277 423 c 0
 269 614 433 743 647 810 c 2
 658 813 l 1
 683 783 l 1
584 734 m 1
 420 665 321 560 327 425 c 0
 333 273 415 145 582 69 c 1
 480 201 439 349 437 422 c 0
 434 502 507 626 584 734 c 1
EndSplineSet
Validated: 37
Ligature2: "ltligs1" Z V
EndChar

StartChar: lt_ZW
Encoding: 285 -1 54
Width: 1000
VWidth: 0
Flags: W
HStem: 132 50<169 844> 603 50<171 846> 802 20G<480.571 504.941>
VStem: 588 49<244.036 506.652>
LayerCount: 2
Fore
SplineSet
772 738 m 5
 792 724 l 5
 778 704 l 6
 684 575 632 502 637 357 c 4
 642 217 708 154 802 28 c 6
 817 8 l 5
 797 -8 l 5
 777 -22 l 5
 762 -2 l 6
 670 120 593 197 588 355 c 4
 583 516 644 605 737 733 c 6
 752 753 l 5
 772 738 l 5
543 -2 m 1
 522 -37 l 1
 501 -2 l 1
 104 614 l 1
 79 653 l 1
 125 653 l 1
 890 654 l 1
 934 654 l 1
 912 616 l 1
 543 -2 l 1
521 58 m 1
 846 604 l 1
 171 603 l 1
 521 58 l 1
472 787 m 1
 492 822 l 1
 514 788 l 1
 911 171 l 1
 936 132 l 1
 890 132 l 1
 125 131 l 1
 81 131 l 1
 103 169 l 1
 472 787 l 1
494 727 m 1
 169 181 l 1
 844 182 l 1
 494 727 l 1
EndSplineSet
Validated: 37
Ligature2: "ltligs1" Z W
EndChar

StartChar: lt_ZX
Encoding: 286 -1 55
Width: 1000
VWidth: 0
Flags: W
HStem: 752 20G<837 862>
VStem: 150 50<651.429 711.497> 319 50<118 355.563> 388 40<434 528.514> 812 50<252.1 771> 822 50<15 534.2>
LayerCount: 2
Fore
SplineSet
478 607 m 5xf0
 486 601 l 5
 494 595 l 5
 488 587 l 5
 482 579 l 6
 462 552 448 532 439 511 c 4
 431 492 427 473 428 446 c 4
 428 434 430 423 432 413 c 4
 441 381 463 359 492 320 c 6
 498 312 l 5
 504 304 l 5
 496 298 l 5
 488 292 l 5
 480 286 l 5
 472 280 l 5
 466 288 l 5
 460 296 l 6
 435 329 411 356 398 392 c 4
 392 408 389 425 388 445 c 4
 387 477 392 503 402 526 c 4
 413 553 430 574 450 602 c 6
 456 611 l 5
 462 618 l 5
 470 612 l 5
 478 607 l 5xf0
837 771 m 1
 862 772 l 1
 862 747 l 1xf8
 872 40 l 1
 872 15 l 1
 848 15 l 1
 822 15 l 1
 822 40 l 1xf4
 812 746 l 1
 812 771 l 1xf8
 837 771 l 1
344 117 m 1
 319 118 l 1
 320 142 l 2
 322 216 289 282 330 368 c 0
 398 514 562 496 537 598 c 0
 511 702 393 694 255 719 c 0
 251 720 245 720 239 719 c 0
 213 714 197 694 200 677 c 2
 204 652 l 1
 179 648 l 1
 155 643 l 1
 150 668 l 2
 140 722 187 760 230 768 c 0
 241 770 251 770 263 768 c 0
 381 747 548 758 585 610 c 0
 620 468 414 430 376 348 c 0
 345 282 373 234 370 141 c 2
 369 116 l 1
 344 117 l 1
344 82 m 0
 347 59 360 49 368 50 c 0
 383 51 394 64 392 82 c 0
 390 104 375 118 357 116 c 0
 351 116 341 106 344 82 c 0
294 74 m 0
 290 106 300 163 352 166 c 0
 400 170 437 131 442 89 c 0
 448 47 418 3 371 0 c 0
 323 -3 299 41 294 74 c 0
EndSplineSet
Validated: 37
Ligature2: "ltligs1" Z X
EndChar

StartChar: lt_ZY
Encoding: 287 -1 56
Width: 1000
VWidth: 0
Flags: W
HStem: -3 50<411.813 608.765> 633 50<436.147 585.678> 787 20G<491 523>
VStem: 192 50<228.431 442.161> 624 50<249.703 511.834> 797 50<234.537 450.469>
LayerCount: 2
Fore
SplineSet
809 745 m 5
 829 730 l 5
 814 710 l 6
 720 581 669 507 674 362 c 4
 679 222 745 159 839 33 c 6
 854 13 l 5
 834 -2 l 5
 814 -17 l 5
 799 3 l 6
 707 125 629 203 624 361 c 4
 619 522 681 611 774 739 c 6
 788 759 l 5
 809 745 l 5
312 574 m 1
 296 592 l 1
 314 609 l 1
 491 792 l 1
 507 807 l 1
 523 793 l 1
 712 613 l 1
 732 598 l 1
 717 578 l 1
 701 559 l 1
 682 574 l 1
 509 741 l 1
 348 573 l 1
 330 556 l 1
 312 574 l 1
508 633 m 0
 363 635 246 491 242 338 c 0
 239 192 357 49 499 47 c 0
 662 44 792 172 797 336 c 0
 802 498 671 631 508 633 c 0
508 683 m 0
 698 680 852 526 847 334 c 0
 842 144 689 -6 498 -3 c 0
 323 0 188 168 192 338 c 0
 196 511 327 686 508 683 c 0
EndSplineSet
Validated: 37
Ligature2: "ltligs1" Z Y
EndChar

StartChar: ltd09
Encoding: 288 -1 57
Width: 1000
VWidth: 0
Flags: W
HStem: 638 166
VStem: 431 148
LayerCount: 2
Fore
SplineSet
481 720 m 4
 484 697 496 687 504 688 c 4
 519 689 531 703 529 721 c 4
 527 743 511 756 493 754 c 4
 487 754 478 744 481 720 c 4
431 712 m 4
 427 744 437 801 489 804 c 4
 537 808 574 770 579 728 c 4
 585 686 555 641 508 638 c 4
 460 635 436 679 431 712 c 4
EndSplineSet
Validated: 33
EndChar

StartChar: lt_WA
Encoding: 289 -1 58
Width: 1000
VWidth: 0
Flags: W
HStem: -74 50<297.06 373.7 637.88 734.791> 80 101<478 561> 131 50<189 509 515 821> 559 104<450 533> 559 50<190 822> 772 50<281.878 368.397 640.237 707.885>
LayerCount: 2
Fore
SplineSet
482 629 m 1xa4
 501 654 l 1
 520 630 l 1
 892 172 l 1
 926 131 l 1
 873 131 l 1
 137 132 l 1
 85 132 l 1
 118 172 l 1
 482 629 l 1xa4
501 574 m 1
 189 182 l 1
 821 181 l 1
 501 574 l 1
168 628 m 1
 147 640 l 1
 159 662 l 2
 198 728 237 824 342 822 c 0
 465 820 450 664 497 663 c 0x94
 533 662 568 821 661 817 c 0
 756 812 800 728 849 662 c 2
 864 642 l 1
 844 628 l 1
 824 613 l 1
 809 633 l 2
 754 707 721 764 659 767 c 0
 629 769 593 611 495 613 c 0
 380 615 403 770 341 772 c 0
 274 774 249 714 202 636 c 2
 190 615 l 1
 168 628 l 1
529 110 m 1
 510 86 l 1
 490 110 l 1
 118 568 l 1
 85 609 l 1
 138 609 l 1x8c
 874 608 l 1
 926 608 l 1
 893 568 l 1
 529 110 l 1
509 166 m 1
 822 558 l 1
 190 559 l 1
 509 166 l 1
842 115 m 1
 864 102 l 1
 851 81 l 2
 812 15 774 -81 669 -79 c 0
 546 -77 561 79 514 80 c 0
 478 81 442 -78 349 -74 c 0
 254 -69 211 14 162 80 c 2xc4
 147 100 l 1
 167 115 l 1
 187 130 l 1
 202 110 l 2
 257 36 290 -21 352 -24 c 0
 382 -26 417 132 515 130 c 0
 630 128 608 -27 670 -29 c 0
 737 -31 761 29 808 107 c 2
 821 128 l 1
 842 115 l 1
EndSplineSet
Validated: 37
Ligature2: "ltligs1" W A
EndChar

StartChar: lt_WB
Encoding: 290 -1 59
Width: 1000
VWidth: 0
Flags: W
HStem: -12 50<300.172 556.835>
VStem: 129 50<186.663 577.703> 379 50<452.808 527> 563 50<228 313.396> 828 50<205.533 601.96>
LayerCount: 2
Fore
SplineSet
404 527 m 1
 429 527 l 1
 429 480 449 437 475 436 c 0
 502 435 510 551 549 557 c 0
 587 562 579 522 579 522 c 1
 554 456 548 415 523 377 c 1
 595 361 617 301 613 226 c 1
 588 227 l 1
 563 228 l 1
 567 296 550 320 511 328 c 2
 509 328 474 260 440 232 c 0
 433 227 402 231 399 258 c 0
 394 296 447 341 455 358 c 0
 460 368 464 376 470 386 c 1
 395 393 379 481 379 527 c 1
 404 527 l 1
251 642 m 2
 230 656 l 1
 248 638 l 1
 160 547 178 509 179 397 c 0
 180 287 167 192 256 102 c 0
 274 84 314 36 344 38 c 0
 526 46 641 25 761 148 c 0
 849 239 829 277 828 389 c 0
 827 501 845 599 753 682 c 0
 689 740 584 742 492 734 c 0
 404 726 335 708 313 696 c 0
 271 672 252 643 251 642 c 2
244 647 m 2
 239 650 232 655 225 660 c 2
 230 656 l 1
 244 647 l 2
210 672 m 0
 217 682 240 712 288 739 c 0
 324 759 396 776 488 784 c 0
 582 792 705 793 787 719 c 0
 900 617 877 491 878 389 c 0
 879 287 897 215 796 112 c 0
 658 -29 519 -4 347 -12 c 0
 280 -14 229 60 221 68 c 0
 115 175 130 294 129 396 c 0
 128 498 110 568 210 672 c 0
EndSplineSet
Validated: 37
Ligature2: "ltligs1" W B
EndChar

StartChar: lt_WC
Encoding: 291 -1 60
Width: 1005
VWidth: 0
Flags: W
HStem: 124 50<179 827> 612 51<179 484 515 827>
LayerCount: 2
Fore
SplineSet
488 720 m 0
 491 697 504 687 512 688 c 0
 527 689 538 703 536 721 c 0
 534 743 518 756 500 754 c 0
 494 754 485 744 488 720 c 0
438 712 m 0
 434 744 444 801 496 804 c 0
 544 808 581 770 586 728 c 0
 592 686 562 641 515 638 c 0
 467 635 443 679 438 712 c 0
484 640 m 1
 505 674 l 1
 526 640 l 1
 893 162 l 1
 918 123 l 1
 872 123 l 1
 134 124 l 1
 88 124 l 1
 112 162 l 1
 484 640 l 1
505 580 m 1
 179 174 l 1
 827 173 l 1
 505 580 l 1
518 67 m 0
 515 90 502 99 494 98 c 0
 479 97 467 83 469 65 c 0
 471 43 488 30 506 32 c 0
 512 32 521 43 518 67 c 0
568 73 m 0
 572 41 562 -15 510 -18 c 0
 462 -22 425 16 420 58 c 0
 414 100 444 145 491 148 c 0
 539 151 563 106 568 73 c 0
522 146 m 1
 501 112 l 1
 480 146 l 1
 112 625 l 1
 88 663 l 1
 134 663 l 1
 872 662 l 1
 918 662 l 1
 892 623 l 1
 522 146 l 1
501 206 m 1
 827 612 l 1
 179 612 l 1
 501 206 l 1
EndSplineSet
Validated: 37
Ligature2: "ltligs1" W C
EndChar

StartChar: lt_WD
Encoding: 292 -1 61
Width: 1000
VWidth: 0
Flags: W
HStem: 774 20G<125 160 249 284 722 757 846 881>
LayerCount: 2
Fore
SplineSet
757 778 m 1
 776 762 l 1
 760 743 l 1
 160 4 l 1
 145 -15 l 1
 125 1 l 1
 106 17 l 1
 122 36 l 1
 722 775 l 1
 738 794 l 1
 757 778 l 1
125 778 m 1
 145 794 l 1
 160 775 l 1
 760 36 l 1
 776 17 l 1
 757 1 l 1
 738 -15 l 1
 722 4 l 1
 122 743 l 1
 106 762 l 1
 125 778 l 1
881 778 m 1
 900 762 l 1
 884 743 l 1
 284 4 l 1
 268 -15 l 1
 249 1 l 1
 230 17 l 1
 246 36 l 1
 846 775 l 1
 862 794 l 1
 881 778 l 1
249 778 m 1
 268 794 l 1
 284 775 l 1
 884 36 l 1
 900 17 l 1
 881 1 l 1
 862 -15 l 1
 846 4 l 1
 246 743 l 1
 230 762 l 1
 249 778 l 1
EndSplineSet
Validated: 5
Ligature2: "ltligs1" W D
EndChar

StartChar: lt_WE
Encoding: 293 -1 62
Width: 1000
VWidth: 0
Flags: W
HStem: -18 50<108 176 226 292 475.846 645.557> 730 42<695.875 838> 731 50<654 721 771 814>
VStem: 176 50<-8 213.525> 411 48<638.392 708.333> 482 48<53.25 111.181> 721 50<549.475 772>
LayerCount: 2
Fore
SplineSet
581 192 m 1x9e
 583 186 l 1
 578 183 l 2
 577 178 577 174 575 170 c 0
 563 133 546 105 536 67 c 2
 530 42 l 1
 506 49 l 1
 482 55 l 1
 488 79 l 2
 496 107 505 129 513 149 c 1
 485 134 440 112 407 153 c 0
 358 215 436 276 472 299 c 0
 481 305 491 307 500 309 c 0
 532 313 576 297 582 254 c 0
 585 231 585 211 581 192 c 1x9e
534 218 m 0
 535 227 535 237 533 248 c 0
 532 252 523 262 507 260 c 0
 504 259 500 258 498 257 c 0
 452 228 435 198 446 185 c 0
 456 173 469 183 523 212 c 0
 526 214 531 216 534 218 c 0
187 412 m 1
 185 289 221 177 226 17 c 1
 225 17 226 16 226 17 c 1
 227 -8 l 1
 202 -9 l 1
 177 -10 l 1
 176 15 l 2
 171 177 130 292 138 438 c 0
 140 480 147 525 159 574 c 0
 188 684 269 803 398 781 c 0xbe
 414 779 430 774 448 769 c 0
 571 736 756 646 716 498 c 0
 661 295 353 396 187 412 c 1
189 462 m 1
 389 443 629 368 668 511 c 0
 693 604 564 686 435 721 c 0
 419 725 404 730 390 732 c 0
 302 748 236 665 208 562 c 0
 199 527 192 494 189 462 c 1
108 10 m 1
 108 35 l 1
 133 35 l 1
 268 33 l 1
 293 32 l 1
 293 8 l 1
 292 -18 l 1
 268 -17 l 1
 132 -15 l 1
 108 -15 l 1
 108 10 l 1
367 572 m 1
 363 578 l 1
 368 580 l 2
 369 585 370 589 372 593 c 0
 384 630 401 659 411 697 c 2
 417 721 l 1
 441 714 l 1
 465 708 l 1
 459 684 l 2
 451 656 441 634 433 614 c 1
 461 629 507 651 540 610 c 0
 589 548 511 487 475 464 c 0
 466 458 456 456 447 454 c 0
 415 450 370 466 364 509 c 0
 361 532 363 553 367 572 c 1
412 545 m 0
 411 536 411 527 413 516 c 0
 414 512 424 501 440 503 c 0
 443 504 446 506 448 507 c 0
 494 536 513 565 502 578 c 0
 492 590 477 580 423 551 c 0
 420 549 415 547 412 545 c 0
760 352 m 1
 762 475 726 587 721 747 c 1
 722 747 721 748 721 747 c 1
 720 772 l 1
 745 772 l 1xde
 770 773 l 1
 771 748 l 2
 776 586 817 471 809 325 c 0
 807 283 800 238 788 189 c 0
 759 79 677 -40 548 -18 c 0
 532 -16 516 -11 498 -6 c 0
 375 27 191 118 231 266 c 0
 286 469 594 368 760 352 c 1
758 302 m 1
 558 321 318 395 279 252 c 0
 254 159 383 77 512 42 c 0
 528 38 544 34 558 32 c 0
 646 16 711 99 739 202 c 0
 748 237 755 270 758 302 c 1
839 752 m 1
 838 728 l 1
 813 728 l 1
 678 730 l 1xde
 653 731 l 1
 654 756 l 1
 654 781 l 1xbe
 679 780 l 1
 814 778 l 1
 839 778 l 1
 839 752 l 1
EndSplineSet
Validated: 37
Ligature2: "ltligs1" W E
EndChar

StartChar: lt_WF
Encoding: 294 -1 63
Width: 1000
VWidth: 0
Flags: W
HStem: 21 21G<135 170> 762 20G<479 515.143 762 788>
VStem: 474 50<18 26 42 746> 762 50<601.35 781>
LayerCount: 2
Fore
SplineSet
522 -29 m 1
 503 -49 l 1
 485 -28 l 1
 292 195 l 1
 312 211 l 1
 331 228 l 1
 505 26 l 1
 701 232 l 1
 719 214 l 1
 738 198 l 1
 522 -29 l 1
909 662 m 1
 932 654 l 1
 925 630 l 2
 885 509 864 439 763 348 c 0
 651 248 514 350 427 293 c 0
 306 214 265 155 170 40 c 2
 154 21 l 1
 135 37 l 1
 116 52 l 1
 132 72 l 2
 225 184 272 252 399 335 c 0
 529 420 650 313 730 385 c 0
 822 468 838 523 878 646 c 2
 885 669 l 1
 909 662 l 1
788 781 m 1
 812 781 l 1
 812 756 l 2
 810 633 799 551 696 459 c 0
 584 359 445 462 358 405 c 0
 237 326 197 267 102 152 c 2
 87 132 l 1
 68 148 l 1
 48 165 l 1
 63 184 l 2
 156 296 205 364 332 447 c 0
 462 532 582 425 662 497 c 0
 753 579 760 636 762 757 c 2
 762 782 l 1
 788 781 l 1
479 765 m 1
 498 785 l 1
 516 764 l 1
 708 542 l 1
 689 525 l 1
 670 508 l 1
 496 711 l 1
 300 505 l 1
 282 522 l 1
 263 539 l 1
 479 765 l 1
495 746 m 1
 520 746 l 1
 520 739 l 1
 524 42 l 1
 524 18 l 1
 499 17 l 1
 474 17 l 1
 474 42 l 1
 470 739 l 1
 470 746 l 1
 495 746 l 1
EndSplineSet
Validated: 37
Ligature2: "ltligs1" W F
EndChar

StartChar: lt_WG
Encoding: 295 -1 64
Width: 1000
VWidth: 0
Flags: W
HStem: 374 60<431.197 516.81>
VStem: 178 50<98 118.864>
LayerCount: 2
Fore
SplineSet
440 502 m 0
 442 506 443 509 445 511 c 0
 467 549 484 596 492 675 c 0
 494 688 491 699 486 708 c 0
 458 760 328 778 248 738 c 1
 256 719 l 2
 289 634 312 545 348 486 c 1
 372 488 396 492 422 498 c 0
 428 499 434 500 440 502 c 0
509 307 m 0
 507 303 505 300 503 298 c 0
 481 260 465 213 457 134 c 0
 455 121 458 109 463 100 c 0
 491 48 620 31 700 71 c 1
 693 89 l 2
 660 174 637 264 601 323 c 1
 577 321 552 316 526 310 c 0
 520 309 515 309 509 307 c 0
655 327 m 1
 693 258 715 170 739 108 c 2
 742 100 l 1
 763 118 782 140 795 163 c 0
 832 225 828 274 798 292 c 0
 756 317 708 328 655 327 c 1
297 248 m 1
 257 188 237 118 228 98 c 2
 228 98 208 88 194 88 c 0
 186 88 178 92 178 102 c 0
 178 120 181 116 183 119 c 0
 185 122 186 127 188 132 c 0
 204 170 221 203 237 232 c 1
 215 226 191 220 168 215 c 2
 146 211 l 1
 143 210 l 1
 142 212 l 1
 138 234 l 1
 132 257 l 1
 132 258 l 1
 135 259 l 1
 157 264 l 2
 196 272 234 282 272 293 c 1
 280 306 290 319 298 331 c 0
 319 359 340 382 358 403 c 1
 346 411 335 421 326 433 c 1
 254 428 186 436 125 472 c 0
 55 514 72 605 110 671 c 0
 136 714 174 755 221 780 c 0
 313 829 480 825 530 732 c 0
 539 714 544 692 542 670 c 0
 536 606 524 557 506 519 c 1
 554 531 601 547 652 561 c 1
 692 621 711 691 720 711 c 2
 720 712 l 1
 722 712 l 2
 722 712 740 720 754 720 c 0
 762 720 771 718 771 708 c 0
 771 690 768 693 766 690 c 0
 764 687 762 683 760 678 c 0
 744 640 728 606 712 577 c 1
 734 583 758 588 781 593 c 2
 803 598 l 1
 806 599 l 1
 806 597 l 1
 811 574 l 1
 816 552 l 1
 817 550 l 1
 814 549 l 1
 792 545 l 2
 753 537 714 526 676 515 c 1
 668 502 658 490 650 478 c 0
 629 450 609 426 591 405 c 1
 603 397 613 388 622 376 c 1
 694 381 762 372 823 336 c 0
 893 294 876 204 838 138 c 0
 812 95 775 53 728 28 c 0
 636 -21 469 -16 419 77 c 0
 410 95 406 116 408 138 c 0
 414 202 425 252 443 290 c 1
 395 278 348 262 297 248 c 1
563 368 m 1
 562 369 561 370 560 371 c 0
 559 369 558 369 557 368 c 1
 559 368 561 368 563 368 c 1
595 492 m 1
 557 481 519 470 482 461 c 0
 478 460 463 454 461 452 c 0
 456 445 433 432 430 428 c 2
 476 433 l 0
 489 435 501 435 513 434 c 1
 540 447 569 467 595 492 c 1
388 438 m 0
 389 440 391 441 392 442 c 1
 390 442 387 441 385 441 c 1
 386 440 387 439 388 438 c 0
206 709 m 1
 185 691 166 669 153 646 c 0
 116 584 120 534 150 516 c 0
 192 491 240 481 293 482 c 1
 255 551 233 640 209 702 c 2
 206 709 l 1
435 374 m 1
 408 361 380 342 354 317 c 1
 392 328 429 339 466 348 c 0
 470 349 486 356 488 358 c 0
 493 365 515 378 518 382 c 2
 472 376 l 0
 459 374 447 373 435 374 c 1
EndSplineSet
Validated: 33
Ligature2: "ltligs1" W G
EndChar

StartChar: lt_WH
Encoding: 296 -1 65
Width: 1000
VWidth: 0
Flags: W
HStem: 760 20G<758 790>
LayerCount: 2
Fore
SplineSet
791 758 m 1
 802 736 l 1
 780 724 l 2
 632 649 500 585 520 503 c 0
 536 437 805 497 817 359 c 0
 832 197 676 127 548 42 c 2
 528 29 l 1
 513 50 l 1
 500 71 l 1
 521 84 l 2
 661 177 778 234 767 355 c 0
 759 438 507 340 471 492 c 0
 439 630 630 704 758 769 c 2
 780 780 l 1
 791 758 l 1
491 716 m 1
 502 693 l 1
 480 682 l 2
 332 607 200 543 220 461 c 0
 236 395 505 455 517 317 c 0
 532 155 376 86 248 1 c 1
 249 1 249 2 248 1 c 1
 228 -13 l 1
 213 8 l 1
 200 28 l 1
 221 42 l 2
 361 135 478 191 467 312 c 0
 459 395 208 297 172 449 c 0
 140 587 330 662 458 727 c 2
 480 738 l 1
 491 716 l 1
114 751 m 1
 137 762 l 1
 148 740 l 2
 223 592 287 460 369 480 c 0
 435 496 375 765 513 777 c 0
 675 792 745 636 830 508 c 2
 843 488 l 1
 822 473 l 1
 802 460 l 1
 788 481 l 2
 695 621 639 738 518 727 c 0
 435 719 533 467 381 431 c 0
 243 399 168 590 103 718 c 2
 92 740 l 1
 114 751 l 1
157 451 m 1
 179 462 l 1
 190 440 l 2
 265 292 330 160 412 180 c 0
 478 196 418 465 556 477 c 0
 718 492 787 336 872 208 c 1
 872 209 871 209 872 208 c 1
 886 188 l 1
 865 173 l 1
 844 160 l 1
 830 181 l 2
 737 321 681 438 560 427 c 0
 477 419 575 168 423 132 c 0
 285 100 211 290 146 418 c 2
 134 440 l 1
 157 451 l 1
EndSplineSet
Validated: 37
Ligature2: "ltligs1" W H
EndChar

StartChar: lt_WI
Encoding: 297 -1 66
Width: 1000
VWidth: 0
Flags: W
VStem: 850 50<473.077 617.671>
LayerCount: 2
Fore
SplineSet
101 184 m 1
 84 228 85 276 123 318 c 0
 291 501 485 568 726 497 c 0
 793 477 841 443 870 400 c 0
 936 302 895 175 797 80 c 1
 779 62 781 68 765 56 c 1
 650 -37 568 -18 482 68 c 0
 447 103 420 148 408 200 c 0
 365 382 430 653 588 763 c 0
 634 795 682 796 728 778 c 1
 782 757 902 630 900 558 c 1
 898 490 870 427 823 380 c 0
 788 345 744 320 692 308 c 0
 510 265 238 328 128 486 c 0
 113 508 104 530 102 552 c 1
 94 633 239 771 278 788 c 1
 325 808 375 809 419 768 c 0
 602 600 669 407 598 166 c 0
 578 99 545 51 502 22 c 0
 452 -12 394 -18 336 -2 c 1
 261 19 117 142 101 184 c 1
349 47 m 1
 395 35 439 40 474 63 c 0
 506 84 532 122 550 180 c 0
 616 403 557 574 385 732 c 0
 358 756 325 756 289 738 c 1
 263 726 143 605 155 548 c 1
 157 536 161 525 169 515 c 0
 262 381 515 317 680 356 c 0
 723 366 760 388 788 416 c 0
 826 454 850 506 850 562 c 1
 850 620 749 718 707 732 c 1
 675 743 644 740 617 722 c 0
 483 629 419 377 458 212 c 0
 468 169 490 131 518 103 c 0
 586 35 637 22 731 98 c 1
 746 110 746 101 762 116 c 1
 850 200 874 304 828 372 c 0
 807 404 770 430 712 448 c 0
 489 514 318 455 160 283 c 0
 142 264 138 242 143 217 c 1
 151 183 288 63 349 47 c 1
EndSplineSet
Validated: 37
Ligature2: "ltligs1" W I
EndChar

StartChar: lt_WK
Encoding: 298 -1 67
Width: 1000
VWidth: 0
Flags: W
HStem: 27 51<611 829> 714 49<149 365> 719 51<149 368> 782 20G<838.656 912.902>
VStem: 171 43<260.431 278.526>
LayerCount: 2
Fore
SplineSet
679 316 m 1x98
 698 352 l 1
 722 318 l 1
 898 72 l 1
 925 34 l 1
 878 33 l 1
 569 27 l 1
 528 26 l 1
 547 63 l 1
 679 316 l 1x98
704 257 m 1
 611 78 l 1
 829 82 l 1
 704 257 l 1
563 434 m 1
 243 120 l 1
 368 151 l 1
 380 102 l 1
 349 94 l 1
 106 32 l 1
 171 288 l 1
 195 283 l 1
 219 278 l 1
 214 253 l 1
 188 135 l 1
 532 473 l 1
 781 716 l 1
 657 684 l 1
 644 732 l 1
 676 741 l 1
 918 802 l 1
 853 547 l 1
 829 552 l 1
 805 558 l 1
 810 582 l 1
 837 700 l 1
 563 434 l 1
300 481 m 1
 281 445 l 1
 258 478 l 1
 82 724 l 1
 53 762 l 1
 101 763 l 1xd8
 409 770 l 1xb8
 452 771 l 1
 432 733 l 1
 300 481 l 1
274 540 m 1
 368 719 l 1xb8
 149 714 l 1
 274 540 l 1
EndSplineSet
Validated: 1
Ligature2: "ltligs1" W K
EndChar

StartChar: lt_WL
Encoding: 299 -1 68
Width: 1000
VWidth: 0
Flags: W
HStem: -5 50<617.783 770.217> 753 50<219.783 372.217>
VStem: 366 50<183.201 386 442 715> 574 50<83 357 412 614.877>
LayerCount: 2
Fore
SplineSet
416 397 m 1
 415 313 418 229 432 136 c 0
 444 61 539 47 654 45 c 0
 750 43 774 63 855 128 c 2
 875 143 l 1
 891 123 l 1
 906 104 l 1
 887 88 l 2
 806 23 761 -7 653 -5 c 0
 550 -3 401 3 382 128 c 0
 368 220 365 304 366 386 c 1
 71 543 l 1
 33 563 l 1
 70 586 l 1
 382 780 l 1
 419 803 l 1
 421 760 l 2
 425 628 419 519 417 415 c 1
 416 409 l 1
 416 397 l 1
367 442 m 1
 369 528 374 613 372 715 c 1
 133 567 l 1
 367 442 l 1
574 402 m 1
 575 486 572 569 558 662 c 0
 546 737 451 751 336 753 c 0
 240 755 216 736 135 671 c 2
 115 655 l 1
 100 674 l 1
 84 694 l 1
 103 709 l 2
 184 774 229 805 337 803 c 0
 440 801 589 795 608 670 c 0
 622 578 625 494 624 412 c 1
 919 255 l 1
 958 235 l 1
 920 212 l 1
 608 18 l 1
 571 -5 l 1
 569 38 l 2
 565 170 572 278 574 382 c 1
 574 389 l 1
 574 402 l 1
623 357 m 1
 621 271 616 185 618 83 c 1
 857 232 l 1
 623 357 l 1
EndSplineSet
Validated: 37
Ligature2: "ltligs1" W L
EndChar

StartChar: lt_WM
Encoding: 300 -1 69
Width: 1000
VWidth: 0
Flags: W
HStem: 10 50<237 763> 213 50<543.463 779> 502 50<199 418.012> 741 50<239 765>
VStem: 189 50<60 503 553 741> 198 41<503 552> 763 50<64 212 262 745> 763 18<212 262>
LayerCount: 2
Fore
SplineSet
198 528 m 1xf5
 198 552 l 1
 222 553 l 2
 319 556 430 564 510 472 c 0
 516 465 520 455 522 446 c 0
 531 388 439 339 430 326 c 1
 530 251 595 273 758 263 c 2
 782 262 l 1
 781 237 l 1
 779 212 l 1
 754 213 l 2
 602 223 516 199 398 288 c 0
 388 296 380 306 378 319 c 0
 376 336 385 349 392 358 c 0
 420 394 468 425 472 438 c 0
 410 510 326 506 224 503 c 2
 199 502 l 1
 198 528 l 1xf5
189 766 m 1xfa
 189 777 l 1
 189 791 l 2
 214 791 l 1
 225 791 l 1
 790 795 l 1
 815 795 l 1
 815 770 l 1
 813 39 l 1
 814 39 813 38 813 39 c 1
 813 28 l 1
 813 14 l 2
 788 14 l 1
 777 14 l 1
 212 10 l 1
 187 10 l 1
 187 35 l 1
 189 766 l 1xfa
189 766 m 1
 188 766 189 767 189 766 c 1
239 741 m 1
 237 60 l 1
 763 64 l 1
 765 745 l 1
 239 741 l 1
EndSplineSet
Validated: 37
Ligature2: "ltligs1" W M
EndChar

StartChar: lt_WN
Encoding: 301 -1 70
Width: 1002
VWidth: 0
Flags: W
HStem: 22 51<308 848> 728 52<140 238 275 680>
VStem: 58 51<408.538 688> 71 47<139 408.538> 869 48<360.75 663> 878 51<113 482.25>
LayerCount: 2
Fore
SplineSet
848 73 m 1xc0
 582 358 l 1
 308 68 l 1
 848 73 l 1xc0
869 663 m 1xc8
 616 395 l 1
 878 113 l 1xc4
 869 663 l 1xc8
582 430 m 1
 917 786 l 1xc8
 929 57 l 1
 931 22 l 1
 905 22 l 1
 881 22 l 1
 191 16 l 1
 548 394 l 1
 238 725 l 1
 275 759 l 1
 582 430 l 1
140 728 m 1
 406 443 l 1
 680 733 l 1
 140 728 l 1
118 139 m 1xd0
 372 407 l 1
 109 688 l 1xe0
 118 139 l 1xd0
406 372 m 1
 71 16 l 1xd0
 58 745 l 1
 57 779 l 1
 82 779 l 1
 107 780 l 1
 797 786 l 1
 440 408 l 1
 749 77 l 1
 712 42 l 1
 406 372 l 1
EndSplineSet
Validated: 5
Ligature2: "ltligs1" W N
EndChar

StartChar: lt_WO
Encoding: 302 -1 71
Width: 1000
VWidth: 0
Flags: W
HStem: 814 20G<188 219.826 493.93 509.931 775.818 808>
LayerCount: 2
Fore
SplineSet
469 394 m 4
 472 371 484 361 492 362 c 4
 507 363 520 378 518 396 c 4
 516 418 499 431 481 429 c 4
 475 429 466 418 469 394 c 4
419 388 m 4
 415 420 426 475 478 478 c 4
 526 482 562 444 567 402 c 4
 573 360 543 315 496 312 c 4
 448 309 424 355 419 388 c 4
188 -1 m 1
 165 8 l 1
 175 32 l 1
 479 777 l 1
 502 834 l 1
 525 776 l 1
 822 28 l 1
 831 4 l 1
 808 -5 l 1
 784 -14 l 1
 775 9 l 1
 502 700 l 1
 221 12 l 1
 212 -11 l 1
 188 -1 l 1
808 821 m 1
 831 812 l 1
 821 788 l 1
 517 43 l 1
 493 -14 l 1
 471 43 l 1
 175 792 l 1
 165 816 l 1
 188 825 l 1
 212 834 l 1
 221 811 l 1
 494 120 l 1
 775 808 l 1
 784 830 l 1
 808 821 l 1
EndSplineSet
Validated: 37
Ligature2: "ltligs1" W O
EndChar

StartChar: lt_WP
Encoding: 303 -1 72
Width: 1000
VWidth: 0
Flags: W
VStem: 117 50<103.139 227.714> 818 50<548.286 672.447>
LayerCount: 2
Fore
SplineSet
94 423 m 1
 97 448 l 1
 121 446 l 1
 849 395 l 1
 874 392 l 1
 872 368 l 1
 870 342 l 1
 845 345 l 1
 117 396 l 1
 92 398 l 1
 94 423 l 1
119 637 m 1
 102 655 l 1
 120 672 l 1
 119 671 121 672 120 672 c 1
 200 750 301 803 429 780 c 0
 465 773 504 759 540 739 c 0
 607 702 680 631 636 552 c 0
 579 450 476 430 388 368 c 0
 272 287 161 261 166 153 c 0
 166 151 167 149 167 147 c 0
 176 75 286 35 384 47 c 0
 485 59 550 136 612 228 c 2
 625 248 l 1
 646 235 l 1
 667 221 l 1
 652 200 l 2
 590 108 515 14 390 -2 c 0
 288 -14 132 18 117 140 c 0
 116 143 116 148 116 151 c 0
 108 301 262 342 358 409 c 0
 460 480 547 497 592 578 c 0
 612 615 583 658 516 695 c 0
 485 713 450 725 421 730 c 0
 314 750 228 707 154 636 c 2
 137 618 l 1
 119 637 l 1
864 140 m 1
 882 122 l 1
 863 105 l 1
 864 106 862 105 863 105 c 1
 783 27 682 -25 554 -2 c 0
 518 5 479 18 443 38 c 0
 376 75 304 145 348 224 c 0
 405 326 508 346 596 408 c 0
 712 489 823 515 818 623 c 0
 818 625 817 628 817 630 c 0
 808 702 697 742 599 730 c 0
 498 718 434 641 372 549 c 2
 358 528 l 1
 338 542 l 1
 317 556 l 1
 331 577 l 2
 393 669 468 764 593 780 c 0
 695 792 852 759 867 637 c 0
 868 634 868 629 868 626 c 0
 876 476 721 435 625 368 c 0
 523 297 436 281 391 200 c 0
 371 163 401 119 468 82 c 0
 499 64 533 52 562 47 c 0
 669 27 755 70 829 141 c 2
 847 158 l 1
 864 140 l 1
EndSplineSet
Validated: 37
Ligature2: "ltligs1" W P
EndChar

StartChar: lt_WQ
Encoding: 304 -1 73
Width: 1000
VWidth: 0
Flags: W
HStem: 788 20G<672 697 796.231 822>
VStem: 171 50<-16 532> 178 50<9 532> 320 50<-16 421> 647 50<370 807> 789 50<258 702.714> 796 50<332.857 807>
LayerCount: 2
Fore
SplineSet
570 282 m 1x9c
 575 306 l 1
 599 300 l 1
 789 258 l 1x9c
 796 782 l 1
 797 808 l 1
 822 807 l 1
 847 807 l 1
 846 782 l 1
 846 781 847 782 846 782 c 1x9a
 839 227 l 1
 838 196 l 1
 808 202 l 1
 588 252 l 1
 564 257 l 1
 570 282 l 1x9c
345 -16 m 1
 320 -17 l 1
 320 8 l 1
 315 448 l 1
 315 475 l 1
 342 472 l 1
 801 435 l 1
 826 432 l 1
 824 408 l 1
 822 383 l 1
 797 385 l 1
 365 421 l 1
 370 9 l 1
 370 -16 l 1
 345 -16 l 1
448 509 m 1
 442 485 l 1
 418 491 l 1
 228 532 l 1xb8
 221 8 l 1
 221 -17 l 1
 196 -16 l 1
 171 -16 l 1
 171 9 l 1
 171 10 170 9 171 9 c 1xd8
 178 564 l 1
 178 595 l 1xb8
 208 588 l 1
 428 539 l 1
 452 534 l 1
 448 509 l 1
672 807 m 1
 697 808 l 1
 697 782 l 1
 702 343 l 1
 702 316 l 1
 675 318 l 1
 216 356 l 1
 191 358 l 1
 193 383 l 1
 195 408 l 1
 220 406 l 1
 652 370 l 1
 647 782 l 1
 647 807 l 1
 672 807 l 1
EndSplineSet
Validated: 5
Ligature2: "ltligs1" W Q
EndChar

StartChar: lt_WR
Encoding: 305 -1 74
Width: 1000
VWidth: 0
Flags: W
HStem: 785 20G<348 376.6 459.304 492.435 584.174 615>
VStem: 79 50<170.524 270.294 565.423 658.777> 157 50<362.107 469.012> 758 50<340.955 454.959> 836 50<150.145 243.577 539.673 639.41>
LayerCount: 2
Fore
SplineSet
583 782 m 1
 592 805 l 1
 615 797 l 2
 720 759 885 726 887 578 c 0
 889 451 646 420 638 408 c 1
 648 389 886 334 886 202 c 0
 886 68 711 35 618 8 c 2
 594 1 l 1
 587 25 l 1
 580 49 l 1
 604 56 l 1
 715 88 836 120 836 202 c 0
 836 298 587 305 587 408 c 0
 587 517 839 488 837 577 c 0
 835 679 719 707 598 749 c 2
 575 758 l 1
 583 782 l 1
494 785 m 1
 506 763 l 1
 483 752 l 2
 330 673 205 581 207 418 c 0
 209 241 326 138 496 60 c 2
 518 49 l 1
 508 27 l 1
 498 4 l 1
 474 14 l 2
 298 96 160 214 157 417 c 0
 154 612 307 717 461 796 c 2
 482 808 l 1
 494 785 l 1
382 28 m 1
 373 4 l 1
 350 12 l 2
 245 50 80 84 78 232 c 0
 76 359 320 389 328 401 c 1
 318 420 79 475 79 607 c 0
 79 741 255 774 348 801 c 2
 371 808 l 1
 378 783 l 1
 385 759 l 1
 361 752 l 1
 250 720 129 689 129 607 c 0
 129 511 378 504 378 401 c 0
 378 292 126 321 128 232 c 0
 130 130 246 101 367 59 c 2
 390 51 l 1
 382 28 l 1
471 23 m 5
 459 46 l 5
 482 57 l 6
 635 136 760 229 758 392 c 4
 756 569 639 671 469 749 c 6
 447 759 l 5
 458 782 l 5
 468 805 l 5
 491 794 l 6
 667 712 805 595 808 392 c 4
 811 197 658 91 504 12 c 6
 482 1 l 5
 471 23 l 5
EndSplineSet
Validated: 37
Ligature2: "ltligs1" W R
EndChar

StartChar: lt_WS
Encoding: 306 -1 75
Width: 1000
VWidth: 0
Flags: W
HStem: 291 50<86 352.6> 306 50<475.2 742> 448 50<312 619.267> 463 50<701.8 968> 792 33G<414 447.6 582 632>
VStem: 414 51<110.875 711> 422 50<-8 674.125> 582 50<142.875 824> 589 51<106 518.375>
LayerCount: 2
Fore
SplineSet
747 338 m 0x48
 750 315 762 305 770 306 c 0
 785 307 797 321 795 339 c 0
 793 361 777 374 759 372 c 0
 753 372 744 362 747 338 c 0x48
698 331 m 0
 692 394 703 415 755 422 c 0
 803 428 840 387 845 345 c 0
 851 303 820 259 773 256 c 0
 725 253 701 298 698 331 c 0
85 315 m 1
 84 340 l 1
 109 341 l 1
 108 341 109 340 109 341 c 1x88
 718 356 l 1
 742 357 l 1
 743 332 l 1
 743 307 l 1
 718 306 l 1x48
 111 291 l 1
 111 292 110 291 111 291 c 1x88
 86 290 l 1
 85 315 l 1
448 -8 m 1
 422 -8 l 1
 422 17 l 1x0a
 414 768 l 1
 414 812 l 1
 456 787 l 1
 743 593 l 1
 762 577 l 1
 745 558 l 1
 728 540 l 1
 710 557 l 1
 465 711 l 1x0c
 472 18 l 1
 472 -8 l 1x0a
 448 -8 l 1
308 468 m 0
 305 491 292 499 284 498 c 0x28
 269 497 257 484 259 466 c 0
 261 444 277 430 295 432 c 0
 301 432 311 444 308 468 c 0
357 474 m 0
 361 442 351 385 299 382 c 0
 251 378 214 417 209 459 c 0
 203 501 234 545 281 548 c 0
 329 551 352 507 357 474 c 0
969 489 m 1
 970 464 l 1
 945 463 l 1
 946 463 945 464 945 463 c 1x18
 337 448 l 1
 312 448 l 1
 311 473 l 1
 311 498 l 1
 336 498 l 1x28
 943 513 l 1
 943 512 944 513 943 513 c 1x18
 968 514 l 1
 969 489 l 1
607 825 m 1
 632 825 l 1
 632 800 l 1x09
 640 49 l 1
 642 0 l 1
 598 30 l 1
 326 204 l 1
 308 221 l 1
 324 239 l 1
 341 258 l 1
 359 241 l 1
 589 106 l 1x0880
 582 799 l 1
 582 824 l 1x09
 607 825 l 1
EndSplineSet
Validated: 37
Ligature2: "ltligs1" W S
EndChar

StartChar: lt_WT
Encoding: 307 -1 76
Width: 1000
VWidth: 0
Flags: W
HStem: -9 50<480 538> 112 50<311 484 527 727> 131 27<484 502> 640 55<285 482 485 528 532 701> 760 51<473 532>
VStem: 477 50<132 695>
LayerCount: 2
Fore
SplineSet
786 220 m 1xdc
 808 208 l 1
 796 186 l 1
 764 125 l 1
 757 112 l 1
 742 112 l 1xdc
 299 108 l 1
 287 108 l 1
 279 118 l 1
 232 178 l 1
 218 198 l 1
 238 213 l 1
 258 228 l 1
 272 208 l 1
 311 158 l 1xbc
 727 162 l 1
 752 209 l 1
 763 232 l 1
 786 220 l 1xdc
508 88 m 1
 480 41 l 1
 538 42 l 1
 508 88 l 1
527 148 m 1
 607 32 l 1
 633 -7 l 1
 586 -8 l 1
 436 -9 l 1
 392 -10 l 1
 414 28 l 1
 484 147 l 1
 504 180 l 1
 527 148 l 1
502 131 m 1xbc
 477 132 l 1
 477 157 l 1
 481 670 l 1
 482 695 l 1
 507 695 l 1
 532 695 l 1
 531 670 l 1
 527 156 l 1
 527 131 l 1
 502 131 l 1xbc
227 582 m 1
 204 593 l 1
 216 616 l 1
 248 677 l 1
 255 690 l 1
 270 690 l 1
 712 694 l 1
 725 694 l 1
 733 684 l 1
 779 623 l 1
 794 603 l 1
 774 588 l 1
 754 573 l 1
 739 593 l 1
 701 644 l 1
 285 640 l 1
 260 592 l 1
 248 570 l 1
 227 582 l 1
504 714 m 1
 532 760 l 1
 473 760 l 1
 504 714 l 1
485 654 m 1
 405 770 l 1
 379 808 l 1
 426 809 l 1
 576 811 l 1
 620 812 l 1
 598 773 l 1
 528 655 l 1
 508 622 l 1
 485 654 l 1
EndSplineSet
Validated: 5
Ligature2: "ltligs1" W T
EndChar

StartChar: lt_WU
Encoding: 308 -1 77
Width: 1000
VWidth: 0
Flags: W
HStem: -19 50<726.647 911.636> 17 50<335.328 761.027> 268 49<323.438 529.418> 465 50<463.581 665.93> 715 50<228.335 656.672> 754 49<81.16 241.119> 776 20G<742 786.128>
LayerCount: 2
Fore
SplineSet
79 778 m 1x34
 82 803 l 1x34
 107 801 l 2
 242 787 312 767 444 765 c 0
 558 763 623 781 742 791 c 2
 804 796 l 1
 762 749 l 2
 642 613 535 664 461 531 c 1
 516 523 575 517 643 515 c 0
 708 513 739 533 812 562 c 2
 835 572 l 1
 844 548 l 1
 853 525 l 1
 830 516 l 2
 763 489 720 462 641 465 c 0
 564 467 499 475 438 483 c 1
 386 362 433 290 444 142 c 2
 450 58 l 1
 389 121 l 1
 66 552 l 1
 30 600 l 1
 89 592 l 2
 216 574 310 554 408 538 c 1
 480 677 578 634 679 734 c 1
 602 725 538 713 443 715 c 0x3a
 306 717 233 737 102 751 c 2
 77 754 l 1
 79 778 l 1x34
387 491 m 1
 309 503 234 519 142 533 c 1
 392 196 l 1
 377 284 348 389 387 491 c 1
913 3 m 5
 911 -22 l 5
 886 -19 l 6xb0
 751 -5 680 15 548 17 c 4
 434 19 369 1 250 -9 c 6
 188 -14 l 5
 229 32 l 6
 349 168 458 119 532 252 c 5
 477 260 417 266 349 268 c 4
 284 270 254 249 181 220 c 6
 158 211 l 5
 148 234 l 5
 139 257 l 5
 162 267 l 6
 229 294 272 320 351 317 c 4
 428 315 494 307 555 299 c 5
 607 420 559 492 548 640 c 6
 542 724 l 5
 603 661 l 5
 926 230 l 5
 962 182 l 5
 902 190 l 6
 775 208 682 228 584 244 c 5
 512 105 413 148 312 48 c 5
 389 57 453 69 548 67 c 4x70
 685 65 760 45 891 31 c 6xb0
 916 28 l 5
 913 3 l 5
606 291 m 5
 684 279 757 262 849 248 c 5
 600 586 l 5
 615 498 645 393 606 291 c 5
EndSplineSet
Validated: 37
Ligature2: "ltligs1" W U
EndChar

StartChar: lt_WV
Encoding: 309 -1 78
Width: 1000
VWidth: 0
Flags: W
HStem: -17 46<599.601 611.41> 793 20G<391 414 579 608.333>
VStem: 210 50<314.866 531.716> 370 50<320.977 503.314> 589 50<293.474 475.276> 749 50<265.284 482.134>
LayerCount: 2
Fore
SplineSet
617 783 m 1
 607 771 l 2
 513 651 418 489 420 424 c 0
 422 352 477 161 619 29 c 2
 627 22 l 1
 608 -17 l 1
 595 -13 l 2
 347 57 218 224 210 423 c 0
 202 614 365 743 579 810 c 2
 591 813 l 1
 617 783 l 1
517 734 m 1
 353 665 254 560 260 425 c 0
 266 273 348 145 515 69 c 1
 413 201 372 349 370 422 c 0
 367 502 440 626 517 734 c 1
392 14 m 1
 402 26 l 2
 496 146 591 307 589 372 c 0
 587 444 532 636 390 768 c 2
 382 775 l 1
 401 813 l 1
 414 810 l 2
 662 740 791 573 799 374 c 0
 807 183 643 54 429 -13 c 2
 418 -17 l 1
 392 14 l 1
492 62 m 1
 656 131 755 237 749 372 c 0
 743 524 661 652 494 728 c 1
 596 596 637 448 639 375 c 0
 642 295 569 170 492 62 c 1
EndSplineSet
Validated: 37
Ligature2: "ltligs1" W V
EndChar

StartChar: lt_WX
Encoding: 310 -1 79
Width: 1000
VWidth: 0
Flags: W
HStem: 752 20G<903 928.8>
VStem: 85 50<308.4 756> 95 50<1 519.2> 358 50<118 355.532> 641 50<416.445 653> 807 49<56.3682 120.4> 879 50<322.8 771> 889 50<15 534.2>
LayerCount: 2
Fore
SplineSet
903 771 m 1x9e
 928 772 l 1
 929 747 l 1x9e
 939 40 l 1
 939 15 l 1
 914 15 l 1
 889 15 l 1
 889 40 l 1x9d
 879 746 l 1
 878 771 l 1
 903 771 l 1x9e
383 117 m 1
 358 118 l 1
 359 142 l 2
 361 216 329 281 369 368 c 0
 437 514 551 485 526 587 c 0
 500 691 431 696 293 719 c 0
 289 720 284 720 278 719 c 0
 252 714 235 694 238 677 c 2
 243 652 l 1
 218 648 l 1
 194 643 l 1
 189 668 l 2
 179 722 226 760 269 768 c 0
 280 770 290 770 302 768 c 0
 420 747 537 747 574 599 c 0
 609 457 453 430 415 348 c 0
 384 282 412 234 409 141 c 2
 408 116 l 1
 383 117 l 1
383 82 m 0
 386 59 399 49 407 50 c 0
 422 51 434 64 432 82 c 0
 430 104 413 118 395 116 c 0
 389 116 380 106 383 82 c 0
333 74 m 0
 329 106 340 163 392 166 c 0
 440 170 476 131 481 89 c 0
 487 47 457 3 410 0 c 0
 362 -3 338 41 333 74 c 0
120 0 m 1
 95 0 l 1
 95 25 l 1xbc
 85 731 l 1
 84 756 l 1
 109 757 l 1
 134 757 l 1
 135 732 l 1xdc
 145 26 l 1
 145 1 l 1xbc
 120 0 l 1
667 654 m 1
 692 653 l 1
 691 628 l 2
 689 554 720 489 680 402 c 0
 612 256 493 279 518 177 c 0
 544 73 618 75 756 52 c 0
 760 51 766 51 772 52 c 0
 798 57 814 78 811 95 c 2
 807 119 l 1
 832 124 l 1
 856 128 l 1
 860 104 l 2
 870 50 824 11 781 3 c 0
 770 1 760 0 748 2 c 0
 630 23 506 17 469 165 c 0
 434 307 597 342 635 424 c 0
 666 490 638 537 641 630 c 2
 642 655 l 1
 667 654 l 1
667 690 m 0
 664 713 651 723 643 722 c 0
 628 721 616 706 618 688 c 0
 620 666 636 653 654 655 c 0
 660 655 670 666 667 690 c 0
716 697 m 0
 720 665 710 609 658 606 c 0
 610 602 573 640 568 682 c 0
 562 724 593 769 640 772 c 0
 688 775 711 730 716 697 c 0
EndSplineSet
Validated: 37
Ligature2: "ltligs1" W X
EndChar

StartChar: lt_WY
Encoding: 311 -1 80
Width: 1000
VWidth: 0
Flags: W
HStem: 112 50<404.434 608.765> 633 50<436.147 585.678> 787 20G<491 523>
VStem: 192 50<296.93 493.988> 797 50<305.387 499.821>
LayerCount: 2
Fore
SplineSet
710 194 m 1
 728 176 l 1
 709 159 l 1
 532 -23 l 1
 517 -38 l 1
 499 -25 l 1
 310 155 l 1
 291 170 l 1
 307 190 l 1
 322 209 l 1
 342 194 l 1
 513 28 l 1
 675 195 l 1
 693 212 l 1
 710 194 l 1
312 574 m 1
 296 592 l 1
 314 609 l 1
 491 792 l 1
 507 807 l 1
 523 793 l 1
 712 613 l 1
 732 598 l 1
 717 578 l 1
 701 559 l 1
 682 574 l 1
 509 741 l 1
 348 573 l 1
 330 556 l 1
 312 574 l 1
508 633 m 0
 363 635 246 551 242 398 c 0
 239 252 357 164 499 162 c 0
 662 159 792 233 797 397 c 0
 802 559 671 631 508 633 c 0
508 683 m 0
 698 680 852 587 847 395 c 0
 842 205 689 109 498 112 c 0
 323 115 188 230 192 400 c 0
 196 573 327 686 508 683 c 0
EndSplineSet
Validated: 37
Ligature2: "ltligs1" W Y
EndChar

StartChar: lt_WZ
Encoding: 312 -1 81
Width: 1000
VWidth: 0
Flags: W
HStem: 22 21G<266 301> 753 45G<202 206 241 276 678.667 712 757.664 798>
VStem: 401 50<269.348 526.281> 528 50<268.719 525.652>
LayerCount: 2
Fore
SplineSet
712 758 m 1
 733 743 l 1
 718 723 l 2
 624 594 573 521 578 376 c 0
 583 236 649 173 743 47 c 2
 758 27 l 1
 738 12 l 1
 718 -3 l 1
 703 17 l 2
 611 139 533 216 528 374 c 0
 523 535 585 624 678 752 c 2
 692 773 l 1
 712 758 l 1
899 396 m 1
 184 2 l 1
 176 16 168 32 160 46 c 1
 372 164 586 280 798 398 c 1
 181 755 l 1
 189 769 198 784 206 798 c 1
 206 798 675 525 899 396 c 1
266 37 m 1
 246 52 l 1
 261 72 l 2
 355 201 406 274 401 419 c 0
 396 559 330 622 236 748 c 2
 221 768 l 1
 241 783 l 1
 261 798 l 1
 276 778 l 2
 368 656 446 579 451 421 c 0
 456 260 394 170 301 42 c 2
 287 22 l 1
 266 37 l 1
80 400 m 1
 794 793 l 1
 802 779 811 763 819 749 c 1
 607 631 394 515 182 397 c 1
 798 40 l 1
 790 26 780 11 772 -3 c 1
 772 -3 304 271 80 400 c 1
EndSplineSet
Validated: 37
Ligature2: "ltligs1" W Z
EndChar

StartChar: lt_DN
Encoding: 313 -1 82
Width: 1000
Flags: W
HStem: 22 51<226 766> 352 50<805.714 947.609> 389 50<52.44 233.622> 766 20G<816.18 835.357>
VStem: 467 49<559.136 840.56> 488 30<-8 821> 491 50<-28.56 248.478> 787 48<393.462 663> 797 51<113 449.538>
LayerCount: 2
Fore
SplineSet
766 73 m 1x90
 499 358 l 1
 226 68 l 1
 766 73 l 1x90
787 663 m 1x91
 534 395 l 1
 797 113 l 1x9080
 787 663 l 1x91
500 430 m 1
 835 786 l 1x91
 848 57 l 1
 848 22 l 1
 822 22 l 1
 799 22 l 1
 109 16 l 1
 465 394 l 1
 157 725 l 1
 193 759 l 1
 500 430 l 1
492 842 m 5
 516 845 l 5x98
 518 821 l 5x94
 538 -2 l 5
 541 -28 l 5x92
 516 -30 l 5x98
 491 -32 l 5x92
 488 -8 l 5x94
 469 815 l 5
 467 840 l 5x98
 492 842 l 5
51 414 m 5
 53 439 l 5xb0
 78 437 l 5
 927 402 l 5
 952 400 l 5
 949 375 l 5
 947 350 l 5
 922 352 l 5xd0
 73 387 l 5
 48 389 l 5xb0
 51 414 l 5
EndSplineSet
Validated: 5
Ligature2: "ltligs1" D N
EndChar

StartChar: lt_DK
Encoding: 314 -1 83
Width: 1000
Flags: W
HStem: 27 51<611 829> 352 50<773.714 915.913> 389 50<20.88 201.622> 772 20G<794.613 867.922>
VStem: 437 50<650.4 840.364> 457 30<-8 821> 459 49<-28.56 253.864>
LayerCount: 2
Fore
SplineSet
679 316 m 1xd0
 698 352 l 1
 722 318 l 1
 898 72 l 1
 925 34 l 1
 878 33 l 1
 569 27 l 1
 528 26 l 1
 547 63 l 1
 679 316 l 1xd0
704 257 m 1
 611 78 l 1
 829 82 l 1
 704 257 l 1
808 536 m 1
 783 542 l 1
 759 547 l 1
 765 572 l 1
 791 689 l 1
 107 22 l 1
 88 5 l 1
 71 22 l 1
 53 41 l 1
 72 58 l 1
 735 705 l 1
 611 674 l 1
 599 722 l 1
 630 730 l 1
 873 792 l 1
 808 536 l 1
459 842 m 5x92
 484 845 l 5
 487 821 l 5x98
 506 -2 l 5
 508 -28 l 5
 483 -30 l 5
 459 -32 l 5x92
 457 -8 l 5x94
 437 815 l 5x98
 434 840 l 5
 459 842 l 5x92
18 414 m 5
 22 439 l 5xb0
 46 437 l 5
 895 402 l 5
 920 400 l 5
 918 375 l 5
 915 350 l 5
 890 352 l 5xd0
 41 387 l 5
 16 389 l 5xb0
 18 414 l 5
EndSplineSet
Validated: 5
Ligature2: "ltligs1" D K
EndChar

StartChar: lt_DA
Encoding: 315 -1 84
Width: 1000
Flags: W
HStem: 565 50<475 520.974> 724 50<281.878 368.397 640.237 707.885> 759 20G<184 219 781 816>
LayerCount: 2
Fore
SplineSet
482 518 m 1x80
 501 542 l 1
 520 518 l 1
 892 60 l 1
 926 19 l 1
 873 19 l 1
 137 20 l 1
 85 20 l 1
 118 61 l 1
 482 518 l 1x80
501 462 m 1
 189 70 l 1
 821 69 l 1
 501 462 l 1
168 579 m 1
 147 592 l 1
 159 614 l 2
 198 680 237 776 342 774 c 0
 465 772 450 616 497 615 c 0
 533 614 568 773 661 769 c 0
 756 764 800 681 849 615 c 2
 864 595 l 1
 844 580 l 1
 824 565 l 1
 809 585 l 2
 754 659 721 716 659 719 c 0
 629 721 593 563 495 565 c 0
 380 567 403 722 341 724 c 0xc0
 274 726 249 666 202 588 c 2
 190 567 l 1
 168 579 l 1
816 763 m 1
 835 748 l 1
 819 728 l 1
 219 -11 l 1
 203 -30 l 1
 184 -14 l 1
 165 2 l 1
 181 21 l 1
 781 760 l 1
 797 779 l 1xa0
 816 763 l 1
184 763 m 1
 203 779 l 1
 219 760 l 1
 819 21 l 1
 835 2 l 1
 816 -14 l 1
 797 -30 l 1
 781 -11 l 1
 181 728 l 1
 165 748 l 1
 184 763 l 1
EndSplineSet
Validated: 37
Ligature2: "ltligs1" D A
EndChar

StartChar: lt_DG
Encoding: 316 -1 85
Width: 1000
Flags: W
HStem: 354 50<784.147 929.217> 392 49<34.16 144.368> 799 20G<171 201.826 718.5 724>
VStem: 378 49<89.5244 264.468> 470 31<-6 822> 472 50<-25.875 268.667> 724 52<731.293 786>
LayerCount: 2
Fore
SplineSet
473 845 m 1x3a
 498 848 l 1
 501 822 l 1x3a
 520 0 l 1
 522 -25 l 1
 498 -28 l 1
 472 -30 l 1x36
 470 -6 l 1
 451 818 l 1
 448 842 l 1
 473 845 l 1x3a
32 416 m 1
 35 441 l 1x72
 60 438 l 1
 909 404 l 1
 934 402 l 1
 932 377 l 1
 928 352 l 1
 904 354 l 1xb2
 55 389 l 1
 30 392 l 1x72
 32 416 l 1
97 288 m 2
 215 315 331 353 440 381 c 0
 445 383 463 389 466 393 c 0
 470 399 496 414 500 420 c 0
 504 426 497 422 502 428 c 1
 490 424 459 420 447 418 c 0
 253 391 212 638 157 778 c 2
 148 801 l 1
 171 810 l 1
 194 819 l 1
 203 796 l 2
 268 629 300 441 438 460 c 0
 504 469 589 531 645 613 c 0
 693 681 713 764 724 786 c 1
 724 786 776 808 776 783 c 0
 776 763 773 773 770 765 c 0
 768 762 766 758 764 752 c 0
 722 654 681 583 642 530 c 0
 602 475 564 437 533 402 c 1
 642 421 747 420 836 368 c 0
 912 324 893 224 851 152 c 0
 823 104 781 60 729 32 c 0
 628 -22 444 -18 390 84 c 0
 380 103 376 128 378 152 c 0
 385 226 398 280 419 324 c 1
 321 298 217 264 108 240 c 2
 83 234 l 1
 78 258 l 1
 72 283 l 1
 97 288 l 2
97 288 m 1
 98 288 96 288 97 288 c 1
486 341 m 0
 484 338 481 334 479 331 c 0
 453 289 435 235 427 147 c 0
 425 131 428 119 434 108 c 0
 466 47 616 28 705 76 c 0
 747 98 784 137 808 178 c 0
 849 247 845 305 810 326 c 0
 728 374 626 371 506 345 c 0
 499 343 493 343 486 341 c 0
EndSplineSet
Validated: 37
Ligature2: "ltligs1" D G
EndChar

StartChar: lt_DZ
Encoding: 317 -1 86
Width: 1000
Flags: W
HStem: 753 41G<130 134 231 267 667.714 702 828 862>
VStem: 517 50<299.07 500>
LayerCount: 2
Fore
SplineSet
702 758 m 5
 722 743 l 5
 708 723 l 6
 614 594 562 521 567 376 c 4
 572 236 638 173 732 47 c 6
 747 27 l 5
 727 12 l 5
 707 -3 l 5
 692 17 l 6
 600 139 522 216 517 374 c 4
 512 535 574 624 667 752 c 6
 682 773 l 5
 702 758 l 5
827 396 m 1
 112 2 l 1
 104 16 96 32 88 46 c 1
 300 164 513 280 725 398 c 1
 109 755 l 1
 117 769 126 784 134 798 c 1
 134 798 603 525 827 396 c 1
862 778 m 1
 882 762 l 1
 867 743 l 1
 267 4 l 1
 251 -15 l 1
 231 1 l 1
 212 17 l 1
 228 36 l 1
 828 775 l 1
 843 794 l 1
 862 778 l 1
231 778 m 1
 251 794 l 1
 267 775 l 1
 867 36 l 1
 882 17 l 1
 862 1 l 1
 843 -15 l 1
 828 4 l 1
 228 743 l 1
 212 762 l 1
 231 778 l 1
EndSplineSet
Validated: 37
Ligature2: "ltligs1" D Z
EndChar

StartChar: lt_DU
Encoding: 318 -1 87
Width: 1000
Flags: W
HStem: 363 50<497.581 784.819> 715 50<334.506 690.672> 754 49<115.16 257.382> 776 18G<264 299 776 820.553 861 896>
LayerCount: 2
Fore
SplineSet
113 778 m 1xa0
 116 803 l 1xa0
 141 801 l 2
 276 787 346 767 478 765 c 0
 592 763 657 781 776 791 c 2
 838 796 l 1
 797 749 l 2
 677 613 569 561 495 428 c 1
 550 420 609 415 677 413 c 0
 742 411 773 431 846 460 c 2
 869 469 l 1
 878 447 l 1
 888 423 l 1
 864 414 l 2
 797 387 754 360 675 363 c 0
 598 365 533 373 472 381 c 1
 420 260 467 188 478 40 c 2
 484 -44 l 1
 423 19 l 1
 100 450 l 1
 64 498 l 1
 123 490 l 2
 250 472 344 452 442 436 c 1
 514 575 612 634 713 734 c 1
 636 725 573 713 478 715 c 0xc0
 341 717 266 737 135 751 c 2
 111 754 l 1
 113 778 l 1xa0
421 389 m 1
 343 401 269 418 177 432 c 1
 426 94 l 1
 411 182 382 287 421 389 c 1
896 778 m 1
 915 762 l 1
 899 743 l 1
 299 4 l 1
 283 -15 l 1
 264 1 l 1
 245 17 l 1
 261 36 l 1
 861 775 l 1
 877 794 l 1x90
 896 778 l 1
264 778 m 1
 283 794 l 1
 299 775 l 1
 899 36 l 1
 915 17 l 1
 896 1 l 1
 877 -15 l 1
 861 4 l 1
 261 743 l 1
 245 762 l 1
 264 778 l 1
EndSplineSet
Validated: 37
Ligature2: "ltligs1" D U
EndChar

StartChar: ltd10
Encoding: 319 -1 88
Width: 1000
VWidth: 0
Flags: W
HStem: 26 50<572.287 759.067>
VStem: 136 50<183.411 580.091> 768 49<76.5814 160.75>
LayerCount: 2
Fore
SplineSet
777 662 m 1
 756 648 l 1
 742 668 l 2
 720 698 686 744 669 743 c 0
 471 731 360 747 251 635 c 0
 168 550 185 514 186 398 c 0
 187 279 174 191 260 104 c 0
 368 -5 510 64 752 76 c 1
 759 88 765 126 768 144 c 2
 772 169 l 1
 797 165 l 1
 821 160 l 1
 817 136 l 2
 816 128 818 28 760 26 c 0
 534 15 361 -69 224 69 c 0
 122 172 137 285 136 397 c 0
 135 509 115 568 215 670 c 0
 351 809 485 785 671 793 c 0
 722 795 761 728 782 698 c 2
 797 677 l 1
 777 662 l 1
EndSplineSet
Validated: 33
EndChar

StartChar: ltd11
Encoding: 320 -1 89
Width: 1000
VWidth: 0
Flags: W
HStem: 565 50<475 520.974> 724 50<281.878 368.397 640.237 707.885>
LayerCount: 2
Fore
SplineSet
168 579 m 1
 147 592 l 1
 159 614 l 2
 198 680 237 776 342 774 c 0
 465 772 450 616 497 615 c 0
 533 614 568 773 661 769 c 0
 756 764 800 681 849 615 c 2
 864 595 l 1
 844 580 l 1
 824 565 l 1
 809 585 l 2
 754 659 721 716 659 719 c 0
 629 721 593 563 495 565 c 0
 380 567 403 722 341 724 c 0
 274 726 249 666 202 588 c 2
 190 567 l 1
 168 579 l 1
EndSplineSet
Validated: 33
EndChar

StartChar: ltd12
Encoding: 321 -1 90
Width: 1000
VWidth: 0
Flags: W
HStem: -17 50<172 240 290 357>
VStem: 240 50<-8 213.525>
LayerCount: 2
Fore
SplineSet
251 412 m 1
 249 289 285 177 290 17 c 1
 289 17 290 16 290 17 c 1
 291 -8 l 1
 266 -9 l 1
 241 -10 l 1
 240 15 l 2
 235 177 194 292 202 438 c 0
 204 480 210 525 222 574 c 0
 251 684 333 803 462 781 c 0
 478 779 494 774 512 769 c 0
 635 736 820 646 780 498 c 0
 725 295 417 396 251 412 c 1
253 462 m 1
 453 443 693 368 732 511 c 0
 757 604 628 686 499 721 c 0
 483 725 467 730 453 732 c 0
 365 748 299 665 271 562 c 0
 262 527 256 494 253 462 c 1
172 10 m 1
 172 35 l 1
 198 35 l 1
 332 33 l 1
 358 32 l 1
 357 8 l 1
 357 -18 l 1
 332 -17 l 1
 197 -15 l 1
 172 -15 l 1
 172 10 l 1
EndSplineSet
Validated: 37
EndChar

StartChar: ltd13
Encoding: 322 -1 91
Width: 1000
VWidth: 0
Flags: W
HStem: 785 20G<702.043 732>
VStem: 879 50<127.887 253.697 534.725 664.656>
LayerCount: 2
Fore
SplineSet
701 782 m 5
 709 805 l 5
 732 797 l 6
 837 759 928 726 930 578 c 4
 932 451 762 420 754 408 c 5
 764 389 929 334 929 202 c 4
 929 68 828 35 735 8 c 6
 711 1 l 5
 704 25 l 5
 698 49 l 5
 721 56 l 5
 832 88 879 120 879 202 c 4
 879 298 704 305 704 408 c 4
 704 517 882 488 880 577 c 4
 878 679 837 707 716 749 c 6
 692 758 l 5
 701 782 l 5
EndSplineSet
Validated: 37
EndChar

StartChar: lt_OA
Encoding: 323 -1 92
Width: 1000
VWidth: 0
Flags: W
HStem: -3 50<189 821> 565 50<475 520.974> 724 50<281.878 368.397 640.237 707.885>
LayerCount: 2
Fore
SplineSet
476 295 m 4
 479 272 491 262 499 263 c 4
 514 264 526 279 524 297 c 4
 522 319 506 332 488 330 c 4
 482 330 473 319 476 295 c 4
427 288 m 4
 423 320 432 377 484 380 c 4
 532 384 569 345 574 303 c 4
 580 261 549 217 502 214 c 4
 454 211 432 255 427 288 c 4
482 496 m 1
 501 520 l 1
 520 496 l 1
 892 38 l 1
 926 -3 l 1
 873 -3 l 1
 137 -2 l 1
 85 -2 l 1
 118 38 l 1
 482 496 l 1
501 440 m 1
 189 48 l 1
 821 47 l 1
 501 440 l 1
168 579 m 1
 147 592 l 1
 159 614 l 2
 198 680 237 776 342 774 c 0
 465 772 450 616 497 615 c 0
 533 614 568 773 661 769 c 0
 756 764 800 681 849 615 c 2
 864 595 l 1
 844 580 l 1
 824 565 l 1
 809 585 l 2
 754 659 721 716 659 719 c 0
 629 721 593 563 495 565 c 0
 380 567 403 722 341 724 c 0
 274 726 249 666 202 588 c 2
 190 567 l 1
 168 579 l 1
EndSplineSet
Validated: 33
Ligature2: "ltligs1" O A
EndChar

StartChar: lt_OB
Encoding: 324 -1 93
Width: 1000
VWidth: 0
Flags: W
HStem: 26 50<572.287 759.067>
VStem: 136 50<183.411 580.091> 360 49<468.444 584.12> 768 49<76.5814 160.75>
LayerCount: 2
Fore
SplineSet
626 253 m 4
 629 230 641 221 649 222 c 4
 664 223 676 237 674 255 c 4
 672 277 656 290 638 288 c 4
 632 288 623 277 626 253 c 4
577 247 m 4
 573 279 582 335 634 338 c 4
 682 342 719 303 724 261 c 4
 730 219 699 175 652 172 c 4
 604 169 582 214 577 247 c 4
385 587 m 1
 409 590 l 1
 412 565 l 2
 423 485 429 437 462 440 c 0
 500 444 501 519 499 580 c 2
 499 586 l 1
 548 582 l 2
 555 581 560 518 563 503 c 0
 586 405 585 338 523 253 c 0
 511 236 492 231 476 232 c 0
 436 234 381 275 385 322 c 2
 388 348 l 1
 412 345 l 1
 438 342 l 1
 435 318 l 2
 436 310 467 280 482 282 c 0
 521 336 534 405 529 457 c 1
 517 439 495 392 468 390 c 0
 371 380 371 506 363 558 c 2
 360 583 l 1
 385 587 l 1
777 662 m 1
 756 648 l 1
 742 668 l 2
 720 698 686 744 669 743 c 0
 471 731 360 747 251 635 c 0
 168 550 185 514 186 398 c 0
 187 279 174 191 260 104 c 0
 368 -5 510 64 752 76 c 1
 759 88 765 126 768 144 c 2
 772 169 l 1
 797 165 l 1
 821 160 l 1
 817 136 l 2
 816 128 818 28 760 26 c 0
 534 15 361 -69 224 69 c 0
 122 172 137 285 136 397 c 0
 135 509 115 568 215 670 c 0
 351 809 485 785 671 793 c 0
 722 795 761 728 782 698 c 2
 797 677 l 1
 777 662 l 1
EndSplineSet
Validated: 37
Ligature2: "ltligs1" O B
EndChar

StartChar: lt_OC
Encoding: 325 -1 94
Width: 1000
VWidth: 0
Flags: W
HStem: 4 50<172 820>
LayerCount: 2
Fore
SplineSet
471 298 m 4
 474 275 486 266 494 267 c 4
 509 268 521 282 519 300 c 4
 517 322 501 334 483 332 c 4
 477 332 468 322 471 298 c 4
422 292 m 4
 418 324 427 379 479 382 c 4
 527 386 564 348 569 306 c 4
 575 264 545 220 498 217 c 4
 450 214 427 259 422 292 c 4
481 720 m 0
 484 697 496 687 504 688 c 0
 519 689 531 703 529 721 c 0
 527 743 511 756 493 754 c 0
 487 754 478 744 481 720 c 0
431 712 m 0
 427 744 437 801 489 804 c 0
 537 808 574 770 579 728 c 0
 585 686 555 641 508 638 c 0
 460 635 436 679 431 712 c 0
477 640 m 1
 498 674 l 1
 519 640 l 1
 886 42 l 1
 910 3 l 1
 865 3 l 1
 127 4 l 1
 82 4 l 1
 106 42 l 1
 477 640 l 1
498 580 m 1
 172 54 l 1
 820 53 l 1
 498 580 l 1
EndSplineSet
Validated: 37
Ligature2: "ltligs1" O C
EndChar

StartChar: lt_OD
Encoding: 326 -1 95
Width: 1000
VWidth: 0
Flags: W
HStem: 774 20G<184 219 781 816>
LayerCount: 2
Fore
SplineSet
477 184 m 4
 480 161 493 151 501 152 c 4
 516 153 527 168 525 186 c 4
 523 208 507 221 489 219 c 4
 483 219 474 208 477 184 c 4
428 178 m 4
 424 210 433 265 485 268 c 4
 533 272 570 234 575 192 c 4
 581 150 551 105 504 102 c 4
 456 99 433 145 428 178 c 4
816 778 m 1
 835 762 l 1
 819 743 l 1
 219 4 l 1
 203 -15 l 1
 184 1 l 1
 165 17 l 1
 181 36 l 1
 781 775 l 1
 797 794 l 1
 816 778 l 1
184 778 m 1
 203 794 l 1
 219 775 l 1
 819 36 l 1
 835 17 l 1
 816 1 l 1
 797 -15 l 1
 781 4 l 1
 181 743 l 1
 165 762 l 1
 184 778 l 1
EndSplineSet
Validated: 37
Ligature2: "ltligs1" O D
EndChar

StartChar: lt_OE
Encoding: 327 -1 96
Width: 1000
VWidth: 0
Flags: W
HStem: -17 50<172 240 290 357>
VStem: 240 50<-8 213.525> 546 48<53.25 112.64>
LayerCount: 2
Fore
SplineSet
516 552 m 4
 519 529 531 519 539 520 c 4
 554 521 566 534 564 552 c 4
 562 574 546 588 528 586 c 4
 522 586 513 576 516 552 c 4
467 544 m 4
 463 576 472 633 524 636 c 4
 572 640 609 601 614 559 c 4
 620 517 589 473 542 470 c 4
 494 467 472 511 467 544 c 4
644 192 m 1
 648 186 l 1
 642 183 l 2
 641 178 640 174 638 170 c 0
 626 133 610 105 600 67 c 2
 594 42 l 1
 570 49 l 1
 546 55 l 1
 552 79 l 2
 560 107 570 129 578 149 c 1
 550 134 504 112 471 153 c 0
 422 215 500 276 536 299 c 0
 545 305 554 307 563 309 c 0
 595 313 641 297 647 254 c 0
 650 231 648 211 644 192 c 1
598 218 m 0
 599 227 600 237 598 248 c 0
 597 252 587 262 571 260 c 0
 568 259 564 258 562 257 c 0
 516 228 498 198 509 185 c 0
 519 173 534 183 588 212 c 0
 591 214 595 216 598 218 c 0
251 412 m 1
 249 289 285 177 290 17 c 1
 289 17 290 16 290 17 c 1
 291 -8 l 1
 266 -9 l 1
 241 -10 l 1
 240 15 l 2
 235 177 194 292 202 438 c 0
 204 480 210 525 222 574 c 0
 251 684 333 803 462 781 c 0
 478 779 494 774 512 769 c 0
 635 736 820 646 780 498 c 0
 725 295 417 396 251 412 c 1
253 462 m 1
 453 443 693 368 732 511 c 0
 757 604 628 686 499 721 c 0
 483 725 467 730 453 732 c 0
 365 748 299 665 271 562 c 0
 262 527 256 494 253 462 c 1
172 10 m 1
 172 35 l 1
 198 35 l 1
 332 33 l 1
 358 32 l 1
 357 8 l 1
 357 -18 l 1
 332 -17 l 1
 197 -15 l 1
 172 -15 l 1
 172 10 l 1
EndSplineSet
Validated: 37
Ligature2: "ltligs1" O E
EndChar

StartChar: lt_OF
Encoding: 328 -1 97
Width: 1000
VWidth: 0
Flags: W
HStem: 21 21G<135 170> 762 20G<479 515.143 762 788>
VStem: 474 50<18 746> 762 50<601.35 781>
LayerCount: 2
Fore
SplineSet
601 202 m 4
 604 179 616 169 624 170 c 4
 639 171 651 184 649 202 c 4
 647 224 631 238 613 236 c 4
 607 236 598 226 601 202 c 4
552 194 m 4
 548 226 557 283 609 286 c 4
 657 290 694 251 699 209 c 4
 705 167 675 123 628 120 c 4
 580 117 557 161 552 194 c 4
909 662 m 1
 932 654 l 1
 925 630 l 2
 885 509 864 439 763 348 c 0
 651 248 514 350 427 293 c 0
 306 214 265 155 170 40 c 2
 154 21 l 1
 135 37 l 1
 116 52 l 1
 132 72 l 2
 225 184 272 252 399 335 c 0
 529 420 650 313 730 385 c 0
 822 468 838 523 878 646 c 2
 885 669 l 1
 909 662 l 1
788 781 m 1
 812 781 l 1
 812 756 l 2
 810 633 799 551 696 459 c 0
 584 359 445 462 358 405 c 0
 237 326 197 267 102 152 c 2
 87 132 l 1
 68 148 l 1
 48 165 l 1
 63 184 l 2
 156 296 205 364 332 447 c 0
 462 532 582 425 662 497 c 0
 753 579 760 636 762 757 c 2
 762 782 l 1
 788 781 l 1
479 765 m 1
 498 785 l 1
 516 764 l 1
 708 542 l 1
 689 525 l 1
 670 508 l 1
 496 711 l 1
 300 505 l 1
 282 522 l 1
 263 539 l 1
 479 765 l 1
495 746 m 1
 520 746 l 1
 520 739 l 1
 524 42 l 1
 524 18 l 1
 499 17 l 1
 474 17 l 1
 474 42 l 1
 470 739 l 1
 470 746 l 1
 495 746 l 1
EndSplineSet
Validated: 37
Ligature2: "ltligs1" O F
EndChar

StartChar: lt_OG
Encoding: 329 -1 98
Width: 1000
VWidth: 0
Flags: W
HStem: 799 20G<171 201.826 718.5 724>
VStem: 378 49<89.5244 264.468> 724 52<731.293 786>
LayerCount: 2
Fore
SplineSet
529 254 m 4
 532 231 544 221 552 222 c 4
 567 223 580 238 578 256 c 4
 576 278 559 291 541 289 c 4
 535 289 526 278 529 254 c 4
479 248 m 4
 475 280 486 335 538 338 c 4
 586 342 622 304 627 262 c 4
 633 220 603 175 556 172 c 4
 508 169 484 215 479 248 c 4
97 288 m 2
 215 315 331 353 440 381 c 0
 445 383 463 389 466 393 c 0
 470 399 496 414 500 420 c 0
 504 426 497 422 502 428 c 1
 490 424 459 420 447 418 c 0
 253 391 212 638 157 778 c 2
 148 801 l 1
 171 810 l 1
 194 819 l 1
 203 796 l 2
 268 629 300 441 438 460 c 0
 504 469 589 531 645 613 c 0
 693 681 713 764 724 786 c 1
 724 786 776 808 776 783 c 0
 776 763 773 773 770 765 c 0
 768 762 766 758 764 752 c 0
 722 654 681 583 642 530 c 0
 602 475 564 437 533 402 c 1
 642 421 747 420 836 368 c 0
 912 324 893 224 851 152 c 0
 823 104 781 60 729 32 c 0
 628 -22 444 -18 390 84 c 0
 380 103 376 128 378 152 c 0
 385 226 398 280 419 324 c 1
 321 298 217 264 108 240 c 2
 83 234 l 1
 78 258 l 1
 72 283 l 1
 97 288 l 2
97 288 m 1
 98 288 96 288 97 288 c 1
486 341 m 0
 484 338 481 334 479 331 c 0
 453 289 435 235 427 147 c 0
 425 131 428 119 434 108 c 0
 466 47 616 28 705 76 c 0
 747 98 784 137 808 178 c 0
 849 247 845 305 810 326 c 0
 728 374 626 371 506 345 c 0
 499 343 493 343 486 341 c 0
EndSplineSet
Validated: 37
Ligature2: "ltligs1" O G
EndChar

StartChar: lt_OH
Encoding: 330 -1 99
Width: 1000
VWidth: 0
Flags: W
HStem: 762 20G<752 785>
LayerCount: 2
Fore
SplineSet
331 517 m 4
 334 494 346 484 354 485 c 4
 369 486 381 500 379 518 c 4
 377 540 361 553 343 551 c 4
 337 551 328 541 331 517 c 4
282 509 m 4
 278 541 287 598 339 601 c 4
 387 605 424 566 429 524 c 4
 435 482 405 438 358 435 c 4
 310 432 287 476 282 509 c 4
786 760 m 1
 798 738 l 1
 775 727 l 2
 627 652 495 588 515 506 c 0
 531 440 800 500 812 362 c 0
 827 200 671 130 543 45 c 2
 522 31 l 1
 508 52 l 1
 495 72 l 1
 516 87 l 2
 656 180 773 236 762 357 c 0
 754 440 503 342 467 494 c 0
 435 632 624 707 752 772 c 2
 775 782 l 1
 786 760 l 1
487 718 m 1
 498 696 l 1
 475 684 l 2
 327 609 195 545 215 463 c 0
 231 397 500 457 512 319 c 0
 527 157 371 87 243 2 c 1
 244 2 244 3 243 2 c 1
 222 -11 l 1
 209 10 l 1
 195 31 l 1
 216 44 l 2
 356 137 473 194 462 315 c 0
 454 398 203 300 167 452 c 0
 135 590 324 664 452 729 c 2
 475 740 l 1
 487 718 l 1
EndSplineSet
Validated: 37
Ligature2: "ltligs1" O H
EndChar

StartChar: lt_OI
Encoding: 331 -1 100
Width: 1000
VWidth: 0
Flags: W
LayerCount: 2
Fore
SplineSet
481 364 m 4
 484 341 496 331 504 332 c 4
 519 333 531 348 529 366 c 4
 527 388 511 401 493 399 c 4
 487 399 478 388 481 364 c 4
432 358 m 4
 428 390 437 445 489 448 c 4
 537 452 574 414 579 372 c 4
 585 330 555 285 508 282 c 4
 460 279 437 325 432 358 c 4
840 620 m 1
 818 607 l 1
 805 628 l 2
 803 630 802 633 800 635 c 0
 742 717 654 764 593 722 c 0
 459 629 395 377 434 212 c 0
 444 169 466 131 494 103 c 0
 572 25 706 9 819 123 c 2
 837 142 l 1
 855 123 l 1
 872 106 l 1
 855 88 l 2
 724 -44 557 -30 459 68 c 0
 424 103 398 148 386 200 c 0
 343 382 407 653 565 763 c 0
 665 833 780 751 841 664 c 0
 843 661 845 658 847 655 c 2
 861 633 l 1
 840 620 l 1
135 578 m 1
 112 588 l 1
 122 612 l 2
 137 644 161 678 189 710 c 0
 250 777 350 842 432 768 c 0
 615 600 683 407 612 166 c 0
 592 99 559 51 516 22 c 0
 400 -56 242 15 147 156 c 2
 132 177 l 1
 153 191 l 1
 174 205 l 1
 188 184 l 2
 276 53 407 9 488 63 c 0
 520 84 546 122 564 180 c 0
 630 403 571 574 399 732 c 0
 354 774 286 744 226 677 c 0
 201 649 180 617 168 591 c 2
 158 568 l 1
 135 578 l 1
EndSplineSet
Validated: 37
Ligature2: "ltligs1" O I
EndChar

StartChar: lt_OK
Encoding: 332 -1 101
Width: 1000
VWidth: 0
Flags: W
HStem: 27 51<611 829> 772 20G<794.613 867.922>
LayerCount: 2
Fore
SplineSet
488 258 m 4
 491 235 504 225 512 226 c 4
 527 227 539 240 537 258 c 4
 535 280 518 294 500 292 c 4
 494 292 485 282 488 258 c 4
438 250 m 4
 434 282 444 339 496 342 c 4
 544 346 581 307 586 265 c 4
 592 223 562 179 515 176 c 4
 467 173 443 217 438 250 c 4
679 316 m 1
 698 352 l 1
 722 318 l 1
 898 72 l 1
 925 34 l 1
 878 33 l 1
 569 27 l 1
 528 26 l 1
 547 63 l 1
 679 316 l 1
704 257 m 1
 611 78 l 1
 829 82 l 1
 704 257 l 1
808 536 m 1
 783 542 l 1
 759 547 l 1
 765 572 l 1
 791 689 l 1
 107 22 l 1
 88 5 l 1
 71 22 l 1
 53 41 l 1
 72 58 l 1
 735 705 l 1
 611 674 l 1
 599 722 l 1
 630 730 l 1
 873 792 l 1
 808 536 l 1
EndSplineSet
Validated: 33
Ligature2: "ltligs1" O K
EndChar

StartChar: lt_OL
Encoding: 333 -1 102
Width: 1000
VWidth: 0
Flags: W
HStem: -5 50<548.004 821.217> 783 20G<438.826 471.465>
VStem: 417 50<183.201 386 442 715>
LayerCount: 2
Fore
SplineSet
319 562 m 4
 322 539 335 530 343 531 c 4
 358 532 370 546 368 564 c 4
 366 586 350 600 332 598 c 4
 326 598 316 586 319 562 c 4
270 556 m 4
 266 588 276 645 328 648 c 4
 376 652 413 612 418 570 c 4
 424 528 394 485 347 482 c 4
 299 479 275 523 270 556 c 4
467 397 m 1
 466 313 468 229 482 136 c 0
 494 61 591 47 706 45 c 0
 802 43 826 63 907 128 c 2
 926 143 l 1
 942 123 l 1
 958 104 l 1
 938 88 l 2
 857 23 812 -7 704 -5 c 0
 601 -3 452 3 433 128 c 0
 419 220 416 304 417 386 c 1
 122 543 l 1
 84 563 l 1
 121 586 l 1
 434 780 l 1
 471 803 l 1
 472 760 l 2
 476 628 470 519 468 415 c 1
 467 409 l 1
 467 397 l 1
418 442 m 1
 420 528 425 613 423 715 c 1
 184 567 l 1
 418 442 l 1
EndSplineSet
Validated: 37
Ligature2: "ltligs1" O L
EndChar

StartChar: lt_OM
Encoding: 334 -1 103
Width: 1000
VWidth: 0
Flags: W
HStem: 14 50<237 812> 213 50<543.463 779> 502 50<199 418.012> 771 20G<189 239>
VStem: 189 50<60 503 553 791> 198 41<503 552>
LayerCount: 2
Fore
SplineSet
325 168 m 4xf0
 328 145 340 135 348 136 c 4
 363 137 375 150 373 168 c 4
 371 190 356 204 338 202 c 4
 332 202 322 192 325 168 c 4xf0
276 160 m 4
 272 192 281 249 333 252 c 4
 381 256 418 217 423 175 c 4
 429 133 399 89 352 86 c 4
 304 83 281 127 276 160 c 4
198 528 m 1xf4
 198 552 l 1
 222 553 l 2
 319 556 430 564 510 472 c 0
 516 465 520 455 522 446 c 0
 531 388 439 339 430 326 c 1
 530 251 595 273 758 263 c 2
 782 262 l 1
 781 237 l 1
 779 212 l 1
 754 213 l 2
 602 223 516 199 398 288 c 0
 388 296 380 306 378 319 c 0
 376 336 385 349 392 358 c 0
 420 394 468 425 472 438 c 0
 410 510 326 506 224 503 c 2
 199 502 l 1
 198 528 l 1xf4
214 791 m 1
 239 791 l 1
 239 766 l 1
 239 767 240 766 239 766 c 1
 237 60 l 1
 788 64 l 1
 812 64 l 1
 813 39 l 1
 813 14 l 1
 788 14 l 1
 212 10 l 1
 187 10 l 1
 187 35 l 1
 189 766 l 1
 188 766 189 767 189 766 c 1
 189 791 l 1xf8
 214 791 l 1
EndSplineSet
Validated: 37
Ligature2: "ltligs1" O M
EndChar

StartChar: lt_ON
Encoding: 335 -1 104
Width: 1002
VWidth: 0
Flags: W
HStem: 22 51<226 766> 766 20G<816.18 835.357>
VStem: 787 48<393.462 663> 797 51<113 449.538>
LayerCount: 2
Fore
SplineSet
472 205 m 4xc0
 475 182 488 172 496 173 c 4
 511 174 522 189 520 207 c 4
 518 229 502 242 484 240 c 4
 478 240 469 229 472 205 c 4xc0
422 198 m 4
 418 230 428 287 480 290 c 4
 528 294 565 255 570 213 c 4
 576 171 546 127 499 124 c 4
 451 121 427 165 422 198 c 4
766 73 m 1
 499 358 l 1
 226 68 l 1
 766 73 l 1
787 663 m 1xe0
 534 395 l 1
 797 113 l 1xd0
 787 663 l 1xe0
500 430 m 1
 835 786 l 1xe0
 848 57 l 1
 848 22 l 1
 822 22 l 1
 799 22 l 1
 109 16 l 1
 465 394 l 1
 157 725 l 1
 193 759 l 1
 500 430 l 1
EndSplineSet
Validated: 33
Ligature2: "ltligs1" O N
EndChar

StartChar: lt_OP
Encoding: 336 -1 105
Width: 1000
VWidth: 0
Flags: W
VStem: 231 50<103.139 227.714>
LayerCount: 2
Fore
SplineSet
465 547 m 4
 468 524 480 514 488 515 c 4
 503 516 515 530 513 548 c 4
 511 570 496 583 478 581 c 4
 472 581 462 571 465 547 c 4
416 539 m 4
 412 571 421 628 473 631 c 4
 521 635 558 596 563 554 c 4
 569 512 539 468 492 465 c 4
 444 462 421 506 416 539 c 4
258 439 m 1
 772 392 l 1
 768 342 l 1
 252 389 l 1
 258 439 l 1
233 637 m 1
 216 655 l 1
 233 672 l 1
 232 671 234 672 233 672 c 1
 313 750 415 803 543 780 c 0
 579 773 618 759 654 739 c 0
 721 702 794 631 750 552 c 0
 693 450 590 430 502 368 c 0
 386 287 275 261 280 153 c 0
 280 151 281 149 281 147 c 0
 290 75 400 35 498 47 c 0
 599 59 663 136 725 228 c 2
 739 248 l 1
 760 235 l 1
 781 221 l 1
 767 200 l 2
 705 108 629 14 504 -2 c 0
 402 -14 246 18 231 140 c 0
 230 143 230 148 230 151 c 0
 222 301 376 342 472 409 c 0
 574 480 661 497 706 578 c 0
 726 615 697 658 630 695 c 0
 599 713 563 725 534 730 c 0
 427 750 342 707 268 636 c 2
 250 618 l 1
 233 637 l 1
EndSplineSet
Validated: 37
Ligature2: "ltligs1" O P
EndChar

StartChar: lt_OQ
Encoding: 337 -1 106
Width: 1000
VWidth: 0
Flags: W
HStem: 788 20G<747 772>
VStem: 246 50<-16 532> 253 49<9 532> 722 50<370 807>
LayerCount: 2
Fore
SplineSet
614 482 m 4x90
 617 459 630 449 638 450 c 4
 653 451 664 464 662 482 c 4
 660 504 644 518 626 516 c 4
 620 516 611 506 614 482 c 4x90
564 474 m 4
 560 506 570 563 622 566 c 4
 670 570 707 531 712 489 c 4
 718 447 688 403 641 400 c 4
 593 397 569 441 564 474 c 4
522 509 m 1
 517 485 l 1
 492 491 l 1
 302 532 l 1xb0
 296 8 l 1
 296 -17 l 1
 271 -16 l 1
 246 -16 l 1
 246 9 l 1
 246 10 245 9 246 9 c 1xd0
 253 564 l 1
 253 595 l 1xb0
 283 588 l 1
 503 539 l 1
 528 534 l 1
 522 509 l 1
747 807 m 1
 772 808 l 1
 772 782 l 1
 777 343 l 1
 778 316 l 1
 750 318 l 1
 291 356 l 1
 266 358 l 1
 268 383 l 1
 270 408 l 1
 295 406 l 1
 727 370 l 1
 722 782 l 1
 722 807 l 1
 747 807 l 1
EndSplineSet
Validated: 37
Ligature2: "ltligs1" O Q
EndChar

StartChar: lt_OR
Encoding: 338 -1 107
Width: 1000
VWidth: 0
Flags: W
HStem: 785 20G<382 413.565 584.174 615>
VStem: 78 50<305.111 525.224> 836 50<150.145 243.577 539.673 639.41>
LayerCount: 2
Fore
SplineSet
211 432 m 4
 214 409 226 399 234 400 c 4
 249 401 261 414 259 432 c 4
 257 454 241 468 223 466 c 4
 217 466 208 456 211 432 c 4
162 424 m 4
 158 456 167 513 219 516 c 4
 267 520 304 481 309 439 c 4
 315 397 285 353 238 350 c 4
 190 347 167 391 162 424 c 4
583 782 m 1
 592 805 l 1
 615 797 l 2
 720 759 885 726 887 578 c 0
 889 451 646 420 638 408 c 1
 648 389 886 334 886 202 c 0
 886 68 711 35 618 8 c 2
 594 1 l 1
 587 25 l 1
 580 49 l 1
 604 56 l 1
 715 88 836 120 836 202 c 0
 836 298 587 305 587 408 c 0
 587 517 839 488 837 577 c 0
 835 679 719 707 598 749 c 2
 575 758 l 1
 583 782 l 1
415 785 m 1
 427 763 l 1
 404 752 l 2
 251 673 126 581 128 418 c 0
 130 241 247 138 417 60 c 2
 439 49 l 1
 428 27 l 1
 418 4 l 1
 396 14 l 2
 220 96 81 214 78 417 c 0
 75 612 228 717 382 796 c 2
 404 808 l 1
 415 785 l 1
EndSplineSet
Validated: 37
Ligature2: "ltligs1" O R
EndChar

StartChar: lt_OS
Encoding: 339 -1 108
Width: 1000
VWidth: 0
Flags: W
HStem: 325 50<143 410.8> 340 50<533.4 800> 805 20G<472 494.105>
VStem: 472 50<110.875 711> 480 50<-8 624.375>
LayerCount: 2
Fore
SplineSet
594 490 m 4x20
 597 467 610 457 618 458 c 4
 633 459 644 474 642 492 c 4
 640 514 624 527 606 525 c 4
 600 525 591 514 594 490 c 4x20
544 483 m 4
 540 515 550 572 602 575 c 4
 650 579 687 540 692 498 c 4
 698 456 668 412 621 409 c 4
 573 406 549 450 544 483 c 4
805 372 m 0
 808 349 820 339 828 340 c 0x60
 843 341 855 354 853 372 c 0
 851 394 835 408 817 406 c 0
 811 406 802 396 805 372 c 0
755 364 m 0
 751 396 761 453 813 456 c 0
 861 460 897 421 902 379 c 0
 908 337 879 293 832 290 c 0
 784 287 760 331 755 364 c 0
143 349 m 1
 142 374 l 1
 168 375 l 1
 167 375 168 374 168 375 c 1xa0
 775 390 l 1
 800 391 l 1
 801 366 l 1
 802 341 l 1
 777 340 l 1x60
 168 325 l 1
 168 326 167 325 168 325 c 1xa0
 143 324 l 1
 143 349 l 1
505 -8 m 1
 480 -8 l 1
 480 17 l 1x28
 472 768 l 1
 472 825 l 1
 514 787 l 1
 768 557 l 1
 787 540 l 1
 769 521 l 1
 752 502 l 1
 734 519 l 1
 522 711 l 1x30
 530 18 l 1
 530 -8 l 1x28
 505 -8 l 1
EndSplineSet
Validated: 37
Ligature2: "ltligs1" O S
EndChar

StartChar: lt_OT
Encoding: 340 -1 109
Width: 1000
VWidth: 0
Flags: W
HStem: 640 55<285 482 485 528 532 701> 760 51<473 532>
VStem: 471 50<-10 473.5> 481 50<277 695>
LayerCount: 2
Fore
SplineSet
598 509 m 4xc0
 601 486 614 477 622 478 c 4
 637 479 649 493 647 511 c 4
 645 533 628 546 610 544 c 4
 604 544 595 533 598 509 c 4xc0
548 502 m 4
 544 534 554 590 606 593 c 4
 654 597 691 559 696 517 c 4
 702 475 672 431 625 428 c 4
 577 425 553 469 548 502 c 4
496 -10 m 1
 471 -10 l 1
 471 15 l 1xe0
 481 670 l 1
 482 695 l 1
 507 695 l 1
 532 695 l 1
 531 670 l 1xd0
 521 15 l 1
 521 -10 l 1xe0
 496 -10 l 1
227 582 m 1
 204 593 l 1
 216 616 l 1
 248 677 l 1
 255 690 l 1
 270 690 l 1
 712 694 l 1
 725 694 l 1
 733 684 l 1
 779 623 l 1
 794 603 l 1
 774 588 l 1
 754 573 l 1
 739 593 l 1
 701 644 l 1
 285 640 l 1
 260 592 l 1
 248 570 l 1
 227 582 l 1
504 714 m 1
 532 760 l 1
 473 760 l 1
 504 714 l 1
485 654 m 1
 405 770 l 1
 379 808 l 1
 426 809 l 1
 576 811 l 1
 620 812 l 1
 598 773 l 1
 528 655 l 1
 508 622 l 1
 485 654 l 1
EndSplineSet
Validated: 37
Ligature2: "ltligs1" O T
EndChar

StartChar: lt_OU
Encoding: 341 -1 110
Width: 1000
VWidth: 0
Flags: W
HStem: 363 50<531.581 818.819> 715 50<298.973 724.672> 754 49<149.44 308.841> 776 20G<810 854.553>
LayerCount: 2
Fore
SplineSet
393 548 m 4x80
 396 525 409 515 417 516 c 4
 432 517 444 530 442 548 c 4
 440 570 423 584 405 582 c 4
 399 582 390 572 393 548 c 4x80
343 540 m 4
 339 572 349 629 401 632 c 4
 449 636 486 597 491 555 c 4
 497 513 467 469 420 466 c 4
 372 463 348 507 343 540 c 4
148 778 m 1
 150 803 l 1xa0
 175 801 l 2
 310 787 380 767 512 765 c 0
 626 763 691 781 810 791 c 2
 872 796 l 1
 831 749 l 2
 711 613 603 561 529 428 c 1
 584 420 643 415 711 413 c 0
 776 411 807 431 880 460 c 2
 903 469 l 1
 912 447 l 1
 922 423 l 1
 898 414 l 2
 831 387 788 360 709 363 c 0
 632 365 567 373 506 381 c 1
 454 260 501 188 512 40 c 2
 518 -44 l 1
 457 19 l 1
 134 450 l 1
 98 498 l 1
 158 490 l 2
 285 472 379 452 477 436 c 1
 549 575 647 634 748 734 c 1
 671 725 607 713 512 715 c 0xd0
 375 717 300 737 169 751 c 2
 144 754 l 1xa0
 148 778 l 1
455 389 m 1
 377 401 303 418 211 432 c 1
 460 94 l 1
 445 182 416 287 455 389 c 1
EndSplineSet
Validated: 33
Ligature2: "ltligs1" O U
EndChar

StartChar: lt_OV
Encoding: 342 -1 111
Width: 1000
VWidth: 0
Flags: W
HStem: -17 46<666.601 678.41> 793 20G<647 674.667>
LayerCount: 2
Fore
SplineSet
362 414 m 0
 365 391 378 381 386 382 c 0
 401 383 412 398 410 416 c 0
 408 438 392 451 374 449 c 0
 368 449 359 438 362 414 c 0
312 408 m 0
 308 440 318 495 370 498 c 0
 418 502 455 464 460 422 c 0
 466 380 436 335 389 332 c 0
 341 329 317 375 312 408 c 0
683 783 m 1
 673 771 l 2
 579 651 485 489 487 424 c 0
 489 352 544 161 686 29 c 2
 694 22 l 1
 675 -17 l 1
 662 -13 l 2
 414 57 285 224 277 423 c 0
 269 614 433 743 647 810 c 2
 658 813 l 1
 683 783 l 1
584 734 m 1
 420 665 321 560 327 425 c 0
 333 273 415 145 582 69 c 1
 480 201 439 349 437 422 c 0
 434 502 507 626 584 734 c 1
EndSplineSet
Validated: 37
Ligature2: "ltligs1" O V
EndChar

StartChar: lt_OW
Encoding: 343 -1 112
Width: 1000
VWidth: 0
Flags: W
HStem: 132 50<169 844> 603 50<171 846> 802 20G<480.571 504.941>
LayerCount: 2
Fore
SplineSet
466 510 m 4
 469 487 481 477 489 478 c 4
 504 479 516 494 514 512 c 4
 512 534 496 547 478 545 c 4
 472 545 463 534 466 510 c 4
417 503 m 4
 413 535 422 592 474 595 c 4
 522 599 559 560 564 518 c 4
 570 476 539 432 492 429 c 4
 444 426 422 470 417 503 c 4
543 -2 m 1
 522 -37 l 1
 501 -2 l 1
 104 614 l 1
 79 653 l 1
 125 653 l 1
 890 654 l 1
 934 654 l 1
 912 616 l 1
 543 -2 l 1
521 58 m 1
 846 604 l 1
 171 603 l 1
 521 58 l 1
472 787 m 1
 492 822 l 1
 514 788 l 1
 911 171 l 1
 936 132 l 1
 890 132 l 1
 125 131 l 1
 81 131 l 1
 103 169 l 1
 472 787 l 1
494 727 m 1
 169 181 l 1
 844 182 l 1
 494 727 l 1
EndSplineSet
Validated: 37
Ligature2: "ltligs1" O W
EndChar

StartChar: lt_OX
Encoding: 344 -1 113
Width: 1000
VWidth: 0
Flags: W
HStem: 752 20G<837 862>
VStem: 150 50<651.429 711.497> 319 50<118 355.563> 812 50<252.1 771> 822 50<15 534.2>
LayerCount: 2
Fore
SplineSet
368 572 m 4xe0
 371 549 384 539 392 540 c 4
 407 541 419 554 417 572 c 4
 415 594 398 608 380 606 c 4
 374 606 365 596 368 572 c 4xe0
318 564 m 4
 314 596 324 653 376 656 c 4
 424 660 461 621 466 579 c 4
 472 537 442 493 395 490 c 4
 347 487 323 531 318 564 c 4
837 771 m 1
 862 772 l 1
 862 747 l 1xf0
 872 40 l 1
 872 15 l 1
 848 15 l 1
 822 15 l 1
 822 40 l 1xe8
 812 746 l 1
 812 771 l 1xf0
 837 771 l 1
344 117 m 1
 319 118 l 1
 320 142 l 2
 322 216 289 282 330 368 c 0
 398 514 562 496 537 598 c 0
 511 702 393 694 255 719 c 0
 251 720 245 720 239 719 c 0
 213 714 197 694 200 677 c 2
 204 652 l 1
 179 648 l 1
 155 643 l 1
 150 668 l 2
 140 722 187 760 230 768 c 0
 241 770 251 770 263 768 c 0
 381 747 548 758 585 610 c 0
 620 468 414 430 376 348 c 0
 345 282 373 234 370 141 c 2
 369 116 l 1
 344 117 l 1
344 82 m 0
 347 59 360 49 368 50 c 0
 383 51 394 64 392 82 c 0
 390 104 375 118 357 116 c 0
 351 116 341 106 344 82 c 0
294 74 m 0
 290 106 300 163 352 166 c 0
 400 170 437 131 442 89 c 0
 448 47 418 3 371 0 c 0
 323 -3 299 41 294 74 c 0
EndSplineSet
Validated: 37
Ligature2: "ltligs1" O X
EndChar

StartChar: lt_OY
Encoding: 345 -1 114
Width: 1000
VWidth: 0
Flags: W
HStem: -3 50<411.813 608.765> 633 50<436.147 585.678> 787 20G<491 523>
VStem: 192 50<228.431 442.161> 797 50<234.537 450.469>
LayerCount: 2
Fore
SplineSet
491 522 m 4
 494 499 506 490 514 491 c 4
 529 492 541 505 539 523 c 4
 537 545 521 559 503 557 c 4
 497 557 488 546 491 522 c 4
442 515 m 4
 438 547 447 604 499 607 c 4
 547 611 584 572 589 530 c 4
 595 488 565 444 518 441 c 4
 470 438 447 482 442 515 c 4
312 574 m 1
 296 592 l 1
 314 609 l 1
 491 792 l 1
 507 807 l 1
 523 793 l 1
 712 613 l 1
 732 598 l 1
 717 578 l 1
 701 559 l 1
 682 574 l 1
 509 741 l 1
 348 573 l 1
 330 556 l 1
 312 574 l 1
508 633 m 0
 363 635 246 491 242 338 c 0
 239 192 357 49 499 47 c 0
 662 44 792 172 797 336 c 0
 802 498 671 631 508 633 c 0
508 683 m 0
 698 680 852 526 847 334 c 0
 842 144 689 -6 498 -3 c 0
 323 0 188 168 192 338 c 0
 196 511 327 686 508 683 c 0
EndSplineSet
Validated: 37
Ligature2: "ltligs1" O Y
EndChar

StartChar: lt_OZ
Encoding: 346 -1 115
Width: 1000
VWidth: 0
Flags: W
HStem: 753 45G<158 162 635.667 670>
VStem: 485 50<268.719 525.652>
LayerCount: 2
Fore
SplineSet
583 403 m 4
 586 380 599 371 607 372 c 4
 622 373 634 387 632 405 c 4
 630 427 613 440 595 438 c 4
 589 438 580 427 583 403 c 4
533 397 m 4
 529 429 539 485 591 488 c 4
 639 492 676 453 681 411 c 4
 687 369 657 325 610 322 c 4
 562 319 538 364 533 397 c 4
670 758 m 1
 690 743 l 1
 675 723 l 2
 581 594 530 521 535 376 c 0
 540 236 606 173 700 47 c 2
 715 27 l 1
 695 12 l 1
 675 -3 l 1
 660 17 l 2
 568 139 490 216 485 374 c 0
 480 535 542 624 635 752 c 2
 649 773 l 1
 670 758 l 1
856 396 m 1
 141 2 l 1
 133 16 125 32 117 46 c 1
 329 164 542 280 754 398 c 1
 138 755 l 1
 146 769 154 784 162 798 c 1
 162 798 632 525 856 396 c 1
EndSplineSet
Validated: 37
Ligature2: "ltligs1" O Z
EndChar

StartChar: ltd14
Encoding: 347 -1 116
Width: 1000
VWidth: 0
Flags: W
HStem: 352 108
LayerCount: 2
Fore
SplineSet
137 460 m 1
 879 402 l 1
 874 352 l 1
 132 410 l 1
 137 460 l 1
EndSplineSet
Validated: 1
EndChar

StartChar: lt_RX
Encoding: 348 -1 117
Width: 1000
Flags: W
HStem: 785 20G<702.043 732>
VStem: 245 50<103 331.977> 584 50<178.111 696> 593 50<12 529.889> 879 50<127.887 253.697 534.725 664.656>
LayerCount: 2
Fore
SplineSet
609 697 m 5xe8
 632 697 l 5
 634 697 l 5
 634 694 l 5
 634 672 l 5xe8
 643 37 l 5
 643 14 l 5
 643 12 l 5
 641 12 l 5
 618 11 l 5
 596 11 l 5
 593 11 l 5
 593 12 l 5
 593 13 l 5
 593 36 l 5xd8
 584 671 l 5
 584 693 l 5
 584 696 l 5
 587 696 l 5
 609 697 l 5xe8
270 102 m 1
 248 103 l 1
 245 103 l 1
 245 106 l 1
 246 128 l 2
 248 194 217 254 255 332 c 0
 317 466 463 449 441 538 c 0
 419 629 315 623 189 645 c 0
 186 646 181 646 176 645 c 0
 154 641 140 622 142 609 c 2
 146 588 l 1
 147 585 l 1
 144 584 l 1
 122 580 l 1
 100 576 l 1
 98 576 l 1
 97 578 l 1
 92 600 l 2
 83 651 128 686 167 694 c 0
 177 696 187 696 198 694 c 0
 303 675 456 685 489 549 c 0
 521 419 332 383 300 312 c 0
 272 254 299 212 296 127 c 2
 295 104 l 1
 295 102 l 1
 292 102 l 1
 270 102 l 1
272 73 m 0
 274 53 286 48 291 48 c 0
 303 49 313 60 311 74 c 0
 309 92 295 104 281 102 c 0
 279 102 269 95 272 73 c 0
222 67 m 0
 218 95 228 149 277 152 c 0
 322 156 355 120 360 81 c 0
 365 41 337 0 294 -2 c 0
 249 -5 226 37 222 67 c 0
701 782 m 1
 709 805 l 1
 732 797 l 2
 837 759 928 726 930 578 c 0
 932 451 762 420 754 408 c 1
 764 389 929 334 929 202 c 0
 929 68 828 35 735 8 c 2
 711 1 l 1
 704 25 l 1
 698 49 l 1
 721 56 l 1
 832 88 879 120 879 202 c 0
 879 298 704 305 704 408 c 0
 704 517 882 488 880 577 c 0
 878 679 837 707 716 749 c 2
 692 758 l 1
 701 782 l 1
EndSplineSet
Validated: 37
Ligature2: "ltligs1" R X
EndChar

StartChar: lt_SP
Encoding: 349 -1 118
Width: 1000
Flags: W
HStem: 325 50<57 377.2> 340 50<527.8 848>
VStem: 231 50<103.139 227.714>
LayerCount: 2
Fore
SplineSet
233 637 m 1x20
 216 655 l 1
 233 672 l 1
 232 671 234 672 233 672 c 1
 313 750 415 803 543 780 c 0
 579 773 618 759 654 739 c 0
 721 702 794 631 750 552 c 0
 693 450 590 430 502 368 c 0
 386 287 275 261 280 153 c 0
 280 151 281 149 281 147 c 0
 290 75 400 35 498 47 c 0
 599 59 663 136 725 228 c 2
 739 248 l 1
 760 235 l 1
 781 221 l 1
 767 200 l 2
 705 108 629 14 504 -2 c 0
 402 -14 246 18 231 140 c 0
 230 143 230 148 230 151 c 0
 222 301 376 342 472 409 c 0
 574 480 661 497 706 578 c 0
 726 615 697 658 630 695 c 0
 599 713 563 725 534 730 c 0
 427 750 342 707 268 636 c 2
 250 618 l 1
 233 637 l 1x20
852 372 m 0
 855 349 869 339 877 340 c 0x60
 892 341 903 354 901 372 c 0
 899 394 883 408 865 406 c 0
 859 406 849 396 852 372 c 0
803 364 m 0
 799 396 809 453 861 456 c 0
 909 460 946 421 951 379 c 0
 957 337 927 293 880 290 c 0
 832 287 808 331 803 364 c 0
56 349 m 1
 55 374 l 1
 80 375 l 1
 79 375 80 374 80 375 c 1xa0
 823 390 l 1
 848 391 l 1
 849 366 l 1
 850 341 l 1
 825 340 l 1x60
 82 325 l 1
 82 326 81 325 82 325 c 1xa0
 57 324 l 1
 56 349 l 1
EndSplineSet
Validated: 37
Ligature2: "ltligs1" S P
EndChar

StartChar: lt_PS
Encoding: 350 -1 119
Width: 1000
Flags: W
HStem: 360 50<143 410.8> 375 50<533.4 800> 805 20G<472 494.105>
VStem: 472 50<110.875 711> 480 50<-8 624.375>
LayerCount: 2
Fore
SplineSet
805 407 m 4x60
 808 384 820 374 828 375 c 4
 843 376 855 390 853 408 c 4
 851 430 835 443 817 441 c 4
 811 441 802 431 805 407 c 4x60
755 399 m 4
 751 431 761 488 813 491 c 4
 861 495 897 456 902 414 c 4
 908 372 879 328 832 325 c 4
 784 322 760 366 755 399 c 4
143 384 m 5
 142 409 l 5
 168 410 l 5
 167 410 168 409 168 410 c 5xa0
 775 425 l 5
 800 426 l 5
 801 401 l 5
 802 376 l 5
 777 375 l 5x60
 168 360 l 5
 168 361 167 360 168 360 c 5xa0
 143 359 l 5
 143 384 l 5
505 -8 m 1
 480 -8 l 1
 480 17 l 1x28
 472 768 l 1
 472 825 l 1
 514 787 l 1
 768 557 l 1
 787 540 l 1
 769 521 l 1
 752 502 l 1
 734 519 l 1
 522 711 l 1x30
 530 18 l 1
 530 -8 l 1x28
 505 -8 l 1
137 321 m 1
 879 263 l 1
 874 213 l 1
 132 271 l 1
 137 321 l 1
EndSplineSet
Validated: 37
Ligature2: "ltligs1" P S
EndChar

StartChar: lt_PH
Encoding: 351 -1 120
Width: 1000
Flags: W
HStem: 762 20G<752 785>
LayerCount: 2
Fore
SplineSet
786 760 m 1
 798 738 l 1
 775 727 l 2
 627 652 495 588 515 506 c 0
 531 440 800 500 812 362 c 0
 827 200 671 130 543 45 c 2
 522 31 l 1
 508 52 l 1
 495 72 l 1
 516 87 l 2
 656 180 773 236 762 357 c 0
 754 440 503 342 467 494 c 0
 435 632 624 707 752 772 c 2
 775 782 l 1
 786 760 l 1
487 718 m 1
 498 696 l 1
 475 684 l 2
 327 609 195 545 215 463 c 0
 231 397 500 457 512 319 c 0
 527 157 371 87 243 2 c 1
 244 2 244 3 243 2 c 1
 222 -11 l 1
 209 10 l 1
 195 31 l 1
 216 44 l 2
 356 137 473 194 462 315 c 0
 454 398 203 300 167 452 c 0
 135 590 324 664 452 729 c 2
 475 740 l 1
 487 718 l 1
137 332 m 5
 879 274 l 5
 874 224 l 5
 132 282 l 5
 137 332 l 5
EndSplineSet
Validated: 37
Ligature2: "ltligs1" P H
EndChar

StartChar: lt_PG
Encoding: 352 -1 121
Width: 1000
Flags: W
HStem: 799 20G<171 201.826 718.5 724>
VStem: 378 49<89.5244 264.468> 724 52<731.293 786>
LayerCount: 2
Fore
SplineSet
97 288 m 2
 215 315 331 353 440 381 c 0
 445 383 463 389 466 393 c 0
 470 399 496 414 500 420 c 0
 504 426 497 422 502 428 c 1
 490 424 459 420 447 418 c 0
 253 391 212 638 157 778 c 2
 148 801 l 1
 171 810 l 1
 194 819 l 1
 203 796 l 2
 268 629 300 441 438 460 c 0
 504 469 589 531 645 613 c 0
 693 681 713 764 724 786 c 1
 724 786 776 808 776 783 c 0
 776 763 773 773 770 765 c 0
 768 762 766 758 764 752 c 0
 722 654 681 583 642 530 c 0
 602 475 564 437 533 402 c 1
 642 421 747 420 836 368 c 0
 912 324 893 224 851 152 c 0
 823 104 781 60 729 32 c 0
 628 -22 444 -18 390 84 c 0
 380 103 376 128 378 152 c 0
 385 226 398 280 419 324 c 1
 321 298 217 264 108 240 c 2
 83 234 l 1
 78 258 l 1
 72 283 l 1
 97 288 l 2
97 288 m 1
 98 288 96 288 97 288 c 1
486 341 m 0
 484 338 481 334 479 331 c 0
 453 289 435 235 427 147 c 0
 425 131 428 119 434 108 c 0
 466 47 616 28 705 76 c 0
 747 98 784 137 808 178 c 0
 849 247 845 305 810 326 c 0
 728 374 626 371 506 345 c 0
 499 343 493 343 486 341 c 0
137 568 m 5
 879 510 l 5
 874 460 l 5
 132 518 l 5
 137 568 l 5
EndSplineSet
Validated: 37
Ligature2: "ltligs1" P G
EndChar

StartChar: lt_PQ
Encoding: 353 -1 122
Width: 1000
Flags: W
HStem: 788 20G<747 772>
VStem: 246 50<-16 532> 253 49<9 532> 722 50<370 807>
LayerCount: 2
Fore
SplineSet
522 509 m 1xb0
 517 485 l 1
 492 491 l 1
 302 532 l 1xb0
 296 8 l 1
 296 -17 l 1
 271 -16 l 1
 246 -16 l 1
 246 9 l 1
 246 10 245 9 246 9 c 1xd0
 253 564 l 1
 253 595 l 1
 283 588 l 1
 503 539 l 1
 528 534 l 1
 522 509 l 1xb0
747 807 m 1
 772 808 l 1
 772 782 l 1
 777 343 l 1
 778 316 l 1
 750 318 l 1
 291 356 l 1
 266 358 l 1
 268 383 l 1
 270 408 l 1
 295 406 l 1
 727 370 l 1
 722 782 l 1
 722 807 l 1
 747 807 l 1
127 503 m 5
 869 445 l 5
 864 395 l 5
 122 453 l 5
 127 503 l 5
EndSplineSet
Validated: 5
Ligature2: "ltligs1" P Q
EndChar

StartChar: lt_PE
Encoding: 354 -1 123
Width: 1000
Flags: W
HStem: -17 50<172 240 290 357>
VStem: 240 50<-8 210.423> 546 48<53.25 112.64>
LayerCount: 2
Fore
SplineSet
644 192 m 1
 648 186 l 1
 642 183 l 2
 641 178 640 174 638 170 c 0
 626 133 610 105 600 67 c 2
 594 42 l 1
 570 49 l 1
 546 55 l 1
 552 79 l 2
 560 107 570 129 578 149 c 1
 550 134 504 112 471 153 c 0
 422 215 500 276 536 299 c 0
 545 305 554 307 563 309 c 0
 595 313 641 297 647 254 c 0
 650 231 648 211 644 192 c 1
598 218 m 0
 599 227 600 237 598 248 c 0
 597 252 587 262 571 260 c 0
 568 259 564 258 562 257 c 0
 516 228 498 198 509 185 c 0
 519 173 534 183 588 212 c 0
 591 214 595 216 598 218 c 0
251 412 m 1
 249 289 285 177 290 17 c 1
 289 17 290 16 290 17 c 1
 291 -8 l 1
 266 -9 l 1
 241 -10 l 1
 240 15 l 2
 235 177 194 292 202 438 c 0
 204 480 210 525 222 574 c 0
 251 684 333 803 462 781 c 0
 478 779 494 774 512 769 c 0
 635 736 820 646 780 498 c 0
 725 295 417 396 251 412 c 1
253 462 m 1
 453 443 693 368 732 511 c 0
 757 604 628 686 499 721 c 0
 483 725 467 730 453 732 c 0
 365 748 299 665 271 562 c 0
 262 527 256 494 253 462 c 1
172 10 m 1
 172 35 l 1
 198 35 l 1
 332 33 l 1
 358 32 l 1
 357 8 l 1
 357 -18 l 1
 332 -17 l 1
 197 -15 l 1
 172 -15 l 1
 172 10 l 1
81 279 m 5
 823 221 l 5
 818 171 l 5
 77 229 l 5
 81 279 l 5
EndSplineSet
Validated: 37
Ligature2: "ltligs1" P E
EndChar

StartChar: lt_PU
Encoding: 355 -1 124
Width: 1000
Flags: W
HStem: 363 50<531.581 818.819> 715 50<298.973 724.672> 754 49<149.44 308.841> 776 20G<810 854.553>
LayerCount: 2
Fore
SplineSet
148 778 m 1xa0
 150 803 l 1xa0
 175 801 l 2
 310 787 380 767 512 765 c 0
 626 763 691 781 810 791 c 2
 872 796 l 1
 831 749 l 2
 711 613 603 561 529 428 c 1
 584 420 643 415 711 413 c 0
 776 411 807 431 880 460 c 2
 903 469 l 1
 912 447 l 1
 922 423 l 1
 898 414 l 2
 831 387 788 360 709 363 c 0
 632 365 567 373 506 381 c 1
 454 260 501 188 512 40 c 2
 518 -44 l 1
 457 19 l 1
 134 450 l 1
 98 498 l 1
 158 490 l 2
 285 472 379 452 477 436 c 1
 549 575 647 634 748 734 c 1
 671 725 607 713 512 715 c 0xd0
 375 717 300 737 169 751 c 2
 144 754 l 1
 148 778 l 1xa0
455 389 m 1
 377 401 303 418 211 432 c 1
 460 94 l 1
 445 182 416 287 455 389 c 1
159 657 m 5
 902 599 l 5
 897 549 l 5
 155 607 l 5
 159 657 l 5
EndSplineSet
Validated: 37
Ligature2: "ltligs1" P U
EndChar

StartChar: lt_MA
Encoding: 356 -1 125
Width: 1000
VWidth: 0
Flags: W
HStem: -3 50<189 821> 98 50<506.211 671.545> 565 50<475 520.974> 724 50<281.878 368.397 640.237 707.885>
LayerCount: 2
Fore
SplineSet
482 496 m 1
 501 520 l 1
 520 496 l 1
 892 38 l 1
 926 -3 l 1
 873 -3 l 1
 137 -2 l 1
 85 -2 l 1
 118 38 l 1
 482 496 l 1
501 440 m 1
 189 48 l 1
 821 47 l 1
 501 440 l 1
168 579 m 1
 147 592 l 1
 159 614 l 2
 198 680 237 776 342 774 c 0
 465 772 450 616 497 615 c 0
 533 614 568 773 661 769 c 0
 756 764 800 681 849 615 c 2
 864 595 l 1
 844 580 l 1
 824 565 l 1
 809 585 l 2
 754 659 721 716 659 719 c 0
 629 721 593 563 495 565 c 0
 380 567 403 722 341 724 c 0
 274 726 249 666 202 588 c 2
 190 567 l 1
 168 579 l 1
356 268 m 5
 355 280 l 5
 355 292 l 5
 368 292 l 5
 380 293 l 6
 428 295 489 300 533 248 c 4
 537 243 541 237 542 229 c 4
 547 199 517 178 505 168 c 5
 512 164 515 161 521 159 c 4
 552 147 585 152 649 148 c 6
 662 148 l 5
 674 147 l 5
 673 134 l 5
 672 122 l 5
 672 109 l 5
 671 97 l 5
 658 98 l 5
 646 98 l 6
 589 101 547 95 502 113 c 4
 488 119 475 127 461 138 c 4
 454 143 447 151 446 162 c 4
 444 175 451 186 455 191 c 4
 465 204 480 215 488 222 c 5
 462 245 429 245 382 243 c 6
 369 242 l 5
 357 242 l 5
 356 255 l 5
 356 268 l 5
EndSplineSet
Validated: 37
Ligature2: "ltligs1" M A
EndChar

StartChar: lt_MB
Encoding: 357 -1 126
Width: 1000
VWidth: 0
Flags: W
HStem: 26 50<572.287 759.067> 232 50<322.325 488> 252 50<558.356 607.422> 378 50<173 304.775>
VStem: 172 14<377 427> 472 49<488.06 603.167> 497 50<314.379 362> 768 49<76.5814 160.75>
LayerCount: 2
Fore
SplineSet
172 402 m 1xd9
 172 414 l 1
 172 427 l 1
 184 428 l 1
 197 428 l 2
 245 430 307 434 351 382 c 0
 355 377 359 371 360 363 c 0
 365 333 334 312 322 302 c 1xb9
 329 298 332 296 338 294 c 0
 369 282 402 286 466 282 c 2
 478 282 l 1
 491 281 l 1
 490 268 l 1
 489 256 l 1
 488 243 l 1
 488 231 l 1
 475 232 l 1
 462 232 l 2
 405 235 365 230 320 248 c 0
 306 254 292 261 278 272 c 0
 271 277 264 286 263 297 c 0
 261 310 268 320 272 325 c 0
 282 338 298 351 306 358 c 1
 280 381 245 380 198 378 c 2
 186 378 l 1
 173 377 l 1
 173 389 l 1
 172 402 l 1xd9
496 606 m 5
 521 609 l 5xbd
 524 585 l 6
 535 505 541 456 574 459 c 4
 612 463 613 538 611 599 c 6
 611 605 l 5
 660 601 l 6
 667 600 672 538 675 523 c 4
 698 425 697 357 635 272 c 4
 623 255 604 251 588 252 c 4
 548 254 493 295 497 342 c 6
 498 367 l 5
 523 364 l 5
 548 362 l 5
 547 338 l 6xbb
 548 330 578 300 593 302 c 4
 594 302 594 302 594 302 c 4
 633 356 646 424 641 476 c 5
 629 458 606 411 579 409 c 4
 482 399 483 526 475 578 c 6
 472 602 l 5xbd
 496 606 l 5
777 662 m 1
 756 648 l 1
 742 668 l 2
 720 698 686 744 669 743 c 0
 471 731 360 747 251 635 c 0
 168 550 185 514 186 398 c 0
 187 279 174 191 260 104 c 0
 368 -5 510 64 752 76 c 1
 759 88 765 126 768 144 c 2
 772 169 l 1
 797 165 l 1
 821 160 l 1
 817 136 l 2
 816 128 818 28 760 26 c 0
 534 15 361 -69 224 69 c 0
 122 172 137 285 136 397 c 0
 135 509 115 568 215 670 c 0
 351 809 485 785 671 793 c 0
 722 795 761 728 782 698 c 2
 797 677 l 1
 777 662 l 1
EndSplineSet
Validated: 37
Ligature2: "ltligs1" M B
EndChar

StartChar: lt_MC
Encoding: 358 -1 127
Width: 1000
VWidth: 0
Flags: W
HStem: 4 50<172 820> 168 50<482.211 646.545>
LayerCount: 2
Fore
SplineSet
332 338 m 5
 331 350 l 5
 331 362 l 5
 343 362 l 5
 356 363 l 6
 404 365 465 370 509 318 c 4
 513 313 517 307 518 299 c 4
 523 269 493 248 481 238 c 5
 488 234 491 232 497 230 c 4
 528 218 560 222 624 218 c 6
 637 218 l 5
 649 217 l 5
 648 204 l 5
 648 192 l 5
 647 179 l 5
 646 167 l 5
 634 168 l 5
 622 168 l 6
 565 171 523 165 478 183 c 4
 464 189 450 197 436 208 c 4
 429 213 423 221 422 232 c 4
 420 245 427 256 431 261 c 4
 441 274 456 285 464 292 c 5
 438 315 405 315 358 313 c 6
 345 312 l 5
 332 312 l 5
 332 325 l 5
 332 338 l 5
481 720 m 0
 484 697 496 687 504 688 c 0
 519 689 531 703 529 721 c 0
 527 743 511 756 493 754 c 0
 487 754 478 744 481 720 c 0
431 712 m 0
 427 744 437 801 489 804 c 0
 537 808 574 770 579 728 c 0
 585 686 555 641 508 638 c 0
 460 635 436 679 431 712 c 0
477 640 m 1
 498 674 l 1
 519 640 l 1
 886 42 l 1
 910 3 l 1
 865 3 l 1
 127 4 l 1
 82 4 l 1
 106 42 l 1
 477 640 l 1
498 580 m 1
 172 54 l 1
 820 53 l 1
 498 580 l 1
EndSplineSet
Validated: 37
Ligature2: "ltligs1" M C
EndChar

StartChar: lt_MD
Encoding: 359 -1 128
Width: 1000
VWidth: 0
Flags: W
HStem: 240 50<683.325 836> 774 20G<184 219 781 816>
LayerCount: 2
Fore
SplineSet
534 409 m 5
 533 422 l 5
 533 434 l 5
 546 434 l 5
 558 435 l 6
 606 437 668 442 712 390 c 4
 716 385 720 379 721 371 c 4
 726 341 695 319 683 309 c 5
 690 305 693 304 699 302 c 4
 730 290 763 294 827 290 c 6
 839 289 l 5
 852 288 l 5
 851 276 l 5
 850 263 l 5
 849 251 l 5
 848 238 l 5
 836 239 l 5
 823 240 l 6
 766 243 726 237 681 255 c 4
 667 261 652 268 638 279 c 4
 631 284 625 293 624 304 c 4
 622 317 629 327 633 332 c 4
 643 345 659 357 667 364 c 5
 641 387 606 387 559 385 c 6
 547 384 l 5
 534 384 l 5
 534 397 l 5
 534 409 l 5
816 778 m 1
 835 762 l 1
 819 743 l 1
 219 4 l 1
 203 -15 l 1
 184 1 l 1
 165 17 l 1
 181 36 l 1
 781 775 l 1
 797 794 l 1
 816 778 l 1
184 778 m 1
 203 794 l 1
 219 775 l 1
 819 36 l 1
 835 17 l 1
 816 1 l 1
 797 -15 l 1
 781 4 l 1
 181 743 l 1
 165 762 l 1
 184 778 l 1
EndSplineSet
Validated: 37
Ligature2: "ltligs1" M D
EndChar

StartChar: lt_ME
Encoding: 360 -1 129
Width: 1000
VWidth: 0
Flags: W
HStem: -17 50<172 240 290 357> 152 50<393.208 558> 298 50<243 254 256 373.775>
VStem: 240 50<-8 213.525> 242 9<298 348>
LayerCount: 2
Fore
SplineSet
242 322 m 1xe8
 242 335 l 1
 242 348 l 1
 254 348 l 1
 267 348 l 2
 315 350 376 355 420 303 c 0
 424 298 428 292 429 284 c 0
 434 254 404 233 392 223 c 1
 399 219 402 217 408 215 c 0
 439 203 472 207 536 203 c 2
 548 202 l 1
 560 202 l 1
 560 189 l 1
 559 177 l 1
 558 164 l 1
 558 152 l 1
 545 152 l 1
 532 153 l 2
 475 156 434 150 389 168 c 0
 375 174 362 181 348 192 c 0
 341 197 333 207 332 218 c 0
 330 231 338 241 342 246 c 0
 352 259 367 271 375 278 c 1
 349 301 315 300 268 298 c 2
 256 298 l 1
 243 298 l 1
 242 310 l 1
 242 322 l 1xe8
736 182 m 5
 738 177 l 5
 734 174 l 6
 733 169 732 164 730 160 c 4
 718 123 702 96 692 58 c 6
 685 33 l 5
 661 40 l 5
 637 46 l 5
 643 70 l 6
 651 98 660 120 668 140 c 5
 640 125 595 103 562 144 c 4
 513 206 591 267 627 290 c 4
 636 296 646 298 655 300 c 4
 687 304 732 288 738 245 c 4
 741 222 740 201 736 182 c 5
689 209 m 4
 690 218 690 227 688 238 c 4
 687 242 678 252 662 250 c 4
 659 249 655 249 653 248 c 4
 607 219 590 188 601 175 c 4
 611 163 624 174 678 203 c 4
 681 205 686 207 689 209 c 4
251 412 m 1
 249 289 285 177 290 17 c 1
 289 17 290 16 290 17 c 1
 291 -8 l 1
 266 -9 l 1
 241 -10 l 1
 240 15 l 2xf0
 235 177 194 292 202 438 c 0
 204 480 210 525 222 574 c 0
 251 684 333 803 462 781 c 0
 478 779 494 774 512 769 c 0
 635 736 820 646 780 498 c 0
 725 295 417 396 251 412 c 1
253 462 m 1
 453 443 693 368 732 511 c 0
 757 604 628 686 499 721 c 0
 483 725 467 730 453 732 c 0
 365 748 299 665 271 562 c 0
 262 527 256 494 253 462 c 1
172 10 m 1
 172 35 l 1
 198 35 l 1
 332 33 l 1
 358 32 l 1
 357 8 l 1
 357 -18 l 1
 332 -17 l 1
 197 -15 l 1
 172 -15 l 1
 172 10 l 1
EndSplineSet
Validated: 37
Ligature2: "ltligs1" M E
EndChar

StartChar: lt_MF
Encoding: 361 -1 130
Width: 1000
VWidth: 0
Flags: W
HStem: 21 21G<135 170> 62 50<638.208 802> 208 50<488 618.775> 762 20G<479 515.143 762 788>
VStem: 474 50<18 208 258 746> 488 36<208 258> 762 50<601.35 781>
LayerCount: 2
Fore
SplineSet
488 232 m 5xf6
 487 245 l 5
 487 258 l 5
 499 258 l 5
 512 258 l 6
 560 260 621 265 665 213 c 4
 669 208 673 202 674 194 c 4
 679 164 649 142 637 132 c 5
 644 128 646 126 652 124 c 4
 683 112 716 117 780 113 c 6
 792 112 l 5
 805 112 l 5
 804 99 l 5
 803 87 l 5
 802 74 l 5
 802 62 l 5
 789 62 l 5
 777 63 l 6
 720 66 679 60 634 78 c 4
 620 84 606 91 592 102 c 4
 585 107 579 117 578 128 c 4
 576 141 583 151 587 156 c 4
 597 169 612 181 620 188 c 5
 594 211 559 210 512 208 c 6
 500 208 l 5
 488 208 l 5
 488 220 l 5
 488 232 l 5xf6
909 662 m 1
 932 654 l 1
 925 630 l 2
 885 509 864 439 763 348 c 0
 651 248 514 350 427 293 c 0
 306 214 265 155 170 40 c 2
 154 21 l 1
 135 37 l 1
 116 52 l 1
 132 72 l 2
 225 184 272 252 399 335 c 0
 529 420 650 313 730 385 c 0
 822 468 838 523 878 646 c 2
 885 669 l 1
 909 662 l 1
788 781 m 1
 812 781 l 1
 812 756 l 2
 810 633 799 551 696 459 c 0
 584 359 445 462 358 405 c 0
 237 326 197 267 102 152 c 2
 87 132 l 1
 68 148 l 1
 48 165 l 1
 63 184 l 2
 156 296 205 364 332 447 c 0
 462 532 582 425 662 497 c 0
 753 579 760 636 762 757 c 2
 762 782 l 1
 788 781 l 1
479 765 m 1
 498 785 l 1
 516 764 l 1
 708 542 l 1
 689 525 l 1
 670 508 l 1
 496 711 l 1
 300 505 l 1
 282 522 l 1
 263 539 l 1
 479 765 l 1
495 746 m 1
 520 746 l 1
 520 739 l 1
 524 42 l 1
 524 18 l 1
 499 17 l 1
 474 17 l 1
 474 42 l 1xfa
 470 739 l 1
 470 746 l 1
 495 746 l 1
EndSplineSet
Validated: 37
Ligature2: "ltligs1" M F
EndChar

StartChar: lt_MG
Encoding: 362 -1 131
Width: 1000
VWidth: 0
Flags: W
HStem: 120 50<583.325 736> 264 50<434 447 458 565.775> 799 20G<171 201.826 718.5 724>
VStem: 378 49<89.5244 264.468> 724 52<731.293 786>
LayerCount: 2
Fore
SplineSet
434 289 m 5
 433 302 l 5
 433 314 l 5
 446 314 l 5
 458 315 l 6
 506 317 568 322 612 270 c 4
 616 265 620 259 621 251 c 4
 626 221 595 199 583 189 c 5
 590 185 593 184 599 182 c 4
 630 170 663 174 727 170 c 6
 739 169 l 5
 752 168 l 5
 751 156 l 5
 750 143 l 5
 749 131 l 5
 748 118 l 5
 736 119 l 5
 723 120 l 6
 666 123 626 117 581 135 c 4
 567 141 552 148 538 159 c 4
 531 164 525 173 524 184 c 4
 522 197 529 207 533 212 c 4
 543 225 559 237 567 244 c 5
 541 267 506 267 459 265 c 6
 447 264 l 5
 434 264 l 5
 434 277 l 5
 434 289 l 5
97 288 m 2
 215 315 331 353 440 381 c 0
 445 383 463 389 466 393 c 0
 470 399 496 414 500 420 c 0
 504 426 497 422 502 428 c 1
 490 424 459 420 447 418 c 0
 253 391 212 638 157 778 c 2
 148 801 l 1
 171 810 l 1
 194 819 l 1
 203 796 l 2
 268 629 300 441 438 460 c 0
 504 469 589 531 645 613 c 0
 693 681 713 764 724 786 c 1
 724 786 776 808 776 783 c 0
 776 763 773 773 770 765 c 0
 768 762 766 758 764 752 c 0
 722 654 681 583 642 530 c 0
 602 475 564 437 533 402 c 1
 642 421 747 420 836 368 c 0
 912 324 893 224 851 152 c 0
 823 104 781 60 729 32 c 0
 628 -22 444 -18 390 84 c 0
 380 103 376 128 378 152 c 0
 385 226 398 280 419 324 c 1
 321 298 217 264 108 240 c 2
 83 234 l 1
 78 258 l 1
 72 283 l 1
 97 288 l 2
97 288 m 1
 98 288 96 288 97 288 c 1
486 341 m 0
 484 338 481 334 479 331 c 0
 453 289 435 235 427 147 c 0
 425 131 428 119 434 108 c 0
 466 47 616 28 705 76 c 0
 747 98 784 137 808 178 c 0
 849 247 845 305 810 326 c 0
 728 374 626 371 506 345 c 0
 499 343 493 343 486 341 c 0
EndSplineSet
Validated: 37
Ligature2: "ltligs1" M G
EndChar

StartChar: lt_MH
Encoding: 363 -1 132
Width: 1000
VWidth: 0
Flags: W
HStem: 348 50<432 562.004> 762 20G<752 785>
LayerCount: 2
Fore
SplineSet
432 373 m 5
 432 386 l 5
 431 398 l 5
 443 398 l 5
 456 399 l 6
 504 401 566 405 610 353 c 4
 614 348 617 343 618 335 c 4
 623 305 593 283 581 273 c 5
 588 269 592 267 598 265 c 4
 629 253 661 257 725 253 c 6
 738 253 l 5
 750 252 l 5
 749 240 l 5
 748 228 l 5
 748 215 l 5
 747 202 l 5
 734 203 l 5
 722 204 l 6
 665 207 624 201 579 219 c 4
 565 225 551 232 537 243 c 4
 530 248 523 257 522 268 c 4
 520 281 527 292 531 297 c 4
 541 310 556 321 564 328 c 5
 538 351 505 351 458 349 c 6
 445 348 l 5
 432 348 l 5
 432 361 l 5
 432 373 l 5
786 760 m 1
 798 738 l 1
 775 727 l 2
 627 652 495 588 515 506 c 0
 531 440 800 500 812 362 c 0
 827 200 671 130 543 45 c 2
 522 31 l 1
 508 52 l 1
 495 72 l 1
 516 87 l 2
 656 180 773 236 762 357 c 0
 754 440 503 342 467 494 c 0
 435 632 624 707 752 772 c 2
 775 782 l 1
 786 760 l 1
487 718 m 1
 498 696 l 1
 475 684 l 2
 327 609 195 545 215 463 c 0
 231 397 500 457 512 319 c 0
 527 157 371 87 243 2 c 1
 244 2 244 3 243 2 c 1
 222 -11 l 1
 209 10 l 1
 195 31 l 1
 216 44 l 2
 356 137 473 194 462 315 c 0
 454 398 203 300 167 452 c 0
 135 590 324 664 452 729 c 2
 475 740 l 1
 487 718 l 1
EndSplineSet
Validated: 37
Ligature2: "ltligs1" M H
EndChar

StartChar: lt_MI
Encoding: 364 -1 133
Width: 1000
VWidth: 0
Flags: W
HStem: 252 50<754.325 920> 397 50<606 617 618 736.685>
LayerCount: 2
Fore
SplineSet
605 421 m 5
 604 433 l 5
 604 446 l 5
 617 447 l 5
 629 447 l 6
 677 449 738 454 782 402 c 4
 786 397 791 390 792 382 c 4
 797 352 766 332 754 322 c 5
 761 318 764 315 770 313 c 4
 801 301 834 306 898 302 c 6
 910 301 l 5
 922 300 l 5
 922 288 l 5
 921 275 l 5
 920 262 l 5
 920 250 l 5
 908 251 l 5
 895 252 l 6
 838 255 797 249 752 267 c 4
 738 273 724 281 710 292 c 4
 703 297 696 305 695 316 c 4
 693 329 700 339 704 344 c 4
 714 357 730 370 738 377 c 5
 712 400 678 399 631 397 c 6
 618 397 l 5
 606 396 l 5
 605 408 l 5
 605 421 l 5
862 620 m 1
 842 607 l 1
 828 628 l 2
 826 630 824 633 822 635 c 0
 764 717 678 764 617 722 c 0
 483 629 419 377 458 212 c 0
 468 169 490 131 518 103 c 0
 596 25 729 9 842 123 c 2
 860 142 l 1
 878 123 l 1
 895 106 l 1
 878 88 l 2
 747 -44 580 -30 482 68 c 0
 447 103 420 148 408 200 c 0
 365 382 430 653 588 763 c 0
 688 833 803 751 864 664 c 0
 866 661 868 658 870 655 c 2
 883 633 l 1
 862 620 l 1
121 578 m 1
 98 588 l 1
 108 612 l 2
 123 644 147 678 175 710 c 0
 236 777 337 842 419 768 c 0
 602 600 669 407 598 166 c 0
 578 99 545 51 502 22 c 0
 386 -56 227 15 132 156 c 2
 118 177 l 1
 139 191 l 1
 160 205 l 1
 173 184 l 2
 261 53 393 9 474 63 c 0
 506 84 532 122 550 180 c 0
 616 403 557 574 385 732 c 0
 340 774 272 744 212 677 c 0
 187 649 165 617 153 591 c 2
 143 568 l 1
 121 578 l 1
EndSplineSet
Validated: 37
Ligature2: "ltligs1" M I
EndChar

StartChar: lt_MK
Encoding: 365 -1 134
Width: 1000
VWidth: 0
Flags: W
HStem: 27 51<611 829> 337 50<740.325 906.455> 772 20G<794.613 867.922>
LayerCount: 2
Fore
SplineSet
591 506 m 5
 590 518 l 5
 590 531 l 5
 602 532 l 5
 615 532 l 6
 663 534 724 539 768 487 c 4
 772 482 777 476 778 468 c 4
 783 438 752 417 740 407 c 5
 747 403 750 400 756 398 c 4
 787 386 820 391 884 387 c 6
 897 386 l 5
 909 385 l 5
 908 372 l 5
 908 360 l 5
 907 348 l 5
 906 335 l 5
 893 336 l 5
 881 337 l 6
 824 340 783 334 738 352 c 4
 724 358 710 366 696 377 c 4
 689 382 682 390 681 401 c 4
 679 414 686 424 690 429 c 4
 700 442 715 455 723 462 c 5
 697 485 664 484 617 482 c 6
 604 482 l 5
 592 481 l 5
 591 493 l 5
 591 506 l 5
679 316 m 1
 698 352 l 1
 722 318 l 1
 898 72 l 1
 925 34 l 1
 878 33 l 1
 569 27 l 1
 528 26 l 1
 547 63 l 1
 679 316 l 1
704 257 m 1
 611 78 l 1
 829 82 l 1
 704 257 l 1
808 536 m 1
 783 542 l 1
 759 547 l 1
 765 572 l 1
 791 689 l 1
 107 22 l 1
 88 5 l 1
 71 22 l 1
 53 41 l 1
 72 58 l 1
 735 705 l 1
 611 674 l 1
 599 722 l 1
 630 730 l 1
 873 792 l 1
 808 536 l 1
EndSplineSet
Validated: 37
Ligature2: "ltligs1" M K
EndChar

StartChar: lt_ML
Encoding: 366 -1 135
Width: 1000
VWidth: 0
Flags: W
HStem: -5 50<548.004 821.217> 247 49<604.106 769.273> 391 50<455 467 468 586.453> 783 20G<438.826 471.465>
VStem: 417 50<183.201 386 442 715> 455 12<391 441>
LayerCount: 2
Fore
SplineSet
454 416 m 5xf4
 454 428 l 5
 453 441 l 5
 466 441 l 5
 478 442 l 6
 526 444 588 448 632 396 c 4
 636 391 641 386 642 378 c 4
 647 348 615 326 603 316 c 5
 610 312 614 310 620 308 c 4
 651 296 684 300 748 296 c 6
 760 296 l 5
 772 295 l 5
 772 282 l 5
 771 270 l 5
 770 258 l 5
 769 245 l 5
 757 246 l 5
 744 247 l 6
 687 250 647 244 602 262 c 4
 588 268 573 275 559 286 c 4
 552 291 546 300 545 311 c 4
 543 324 549 334 553 339 c 4
 563 352 580 364 588 371 c 5
 562 394 527 394 480 392 c 6
 468 391 l 5
 455 391 l 5
 455 403 l 5
 454 416 l 5xf4
467 397 m 1
 466 313 468 229 482 136 c 0
 494 61 591 47 706 45 c 0
 802 43 826 63 907 128 c 2
 926 143 l 1
 942 123 l 1
 958 104 l 1
 938 88 l 2
 857 23 812 -7 704 -5 c 0
 601 -3 452 3 433 128 c 0
 419 220 416 304 417 386 c 1xf8
 122 543 l 1
 84 563 l 1
 121 586 l 1
 434 780 l 1
 471 803 l 1
 472 760 l 2
 476 628 470 519 468 415 c 1
 467 409 l 1
 467 397 l 1
418 442 m 1
 420 528 425 613 423 715 c 1
 184 567 l 1
 418 442 l 1
EndSplineSet
Validated: 37
Ligature2: "ltligs1" M L
EndChar

StartChar: lt_MN
Encoding: 367 -1 136
Width: 1002
VWidth: 0
Flags: W
HStem: 22 51<226 766> 85 50<524.325 690> 229 50<376 387 399 506.685> 766 20G<816.18 835.357>
VStem: 787 48<393.462 663> 797 51<113 449.538>
LayerCount: 2
Fore
SplineSet
375 254 m 5xf0
 374 267 l 5
 374 279 l 5
 387 279 l 5
 399 280 l 6
 447 282 508 287 552 235 c 4
 556 230 561 224 562 216 c 4
 567 186 536 164 524 154 c 5
 531 150 534 149 540 147 c 4
 571 135 604 139 668 135 c 6
 680 134 l 5
 692 133 l 5
 692 121 l 5
 691 108 l 5
 690 96 l 5
 690 83 l 5
 678 84 l 5
 665 85 l 6
 608 88 567 82 522 100 c 4
 508 106 494 113 480 124 c 4
 473 129 466 138 465 149 c 4
 463 162 470 173 474 178 c 4
 484 191 500 202 508 209 c 5
 482 232 448 232 401 230 c 6
 388 229 l 5
 376 229 l 5
 375 242 l 5
 375 254 l 5xf0
766 73 m 1
 499 358 l 1
 226 68 l 1
 766 73 l 1
787 663 m 1xf8
 534 395 l 1
 797 113 l 1xf4
 787 663 l 1xf8
500 430 m 1
 835 786 l 1xf8
 848 57 l 1
 848 22 l 1
 822 22 l 1
 799 22 l 1
 109 16 l 1
 465 394 l 1
 157 725 l 1
 193 759 l 1
 500 430 l 1
EndSplineSet
Validated: 37
Ligature2: "ltligs1" M N
EndChar

StartChar: lt_MO
Encoding: 368 -1 137
Width: 1000
VWidth: 0
Flags: W
HStem: 312 49<529.098 671> 456 50<380 509.752> 814 20G<493.93 509.931>
LayerCount: 2
Fore
SplineSet
379 481 m 1
 379 493 l 1
 378 506 l 1
 391 506 l 1
 403 507 l 2
 451 509 514 513 558 461 c 0
 562 456 566 450 567 442 c 0
 572 412 540 391 528 381 c 1
 535 377 539 374 545 372 c 0
 576 360 598 365 662 361 c 6
 674 361 l 5
 687 360 l 5
 686 348 l 5
 685 335 l 5
 684 322 l 5
 683 310 l 5
 671 311 l 5
 658 312 l 6
 601 315 572 309 527 327 c 0
 513 333 498 340 484 351 c 0
 477 356 471 365 470 376 c 0
 468 389 474 399 478 404 c 0
 488 417 504 429 512 436 c 1
 486 459 452 459 405 457 c 2
 392 456 l 1
 380 456 l 1
 380 468 l 1
 379 481 l 1
469 245 m 0
 472 222 484 212 492 213 c 0
 507 214 520 229 518 247 c 0
 516 269 499 282 481 280 c 0
 475 280 466 269 469 245 c 0
419 238 m 0
 415 270 426 327 478 330 c 0
 526 334 562 295 567 253 c 0
 573 211 543 167 496 164 c 0
 448 161 424 205 419 238 c 0
188 -1 m 1
 165 8 l 1
 175 32 l 1
 479 777 l 1
 502 834 l 1
 525 776 l 1
 822 28 l 1
 831 4 l 1
 808 -5 l 1
 784 -14 l 1
 775 9 l 1
 502 700 l 1
 221 12 l 1
 212 -11 l 1
 188 -1 l 1
EndSplineSet
Validated: 37
Ligature2: "ltligs1" M O
EndChar

StartChar: lt_MP
Encoding: 369 -1 138
Width: 1000
VWidth: 0
Flags: W
VStem: 231 50<103.139 227.714>
LayerCount: 2
Fore
SplineSet
350 279 m 5
 349 292 l 5
 349 304 l 5
 362 304 l 5
 374 305 l 6
 422 307 484 312 528 260 c 4
 532 255 536 249 537 241 c 4
 542 211 511 189 499 179 c 5
 506 175 509 174 515 172 c 4
 546 160 578 164 642 160 c 6
 655 159 l 5
 668 158 l 5
 667 146 l 5
 666 133 l 5
 665 121 l 5
 665 108 l 5
 652 109 l 5
 640 110 l 6
 583 113 542 107 497 125 c 4
 483 131 469 138 455 149 c 4
 448 154 441 163 440 174 c 4
 438 187 445 197 449 202 c 4
 459 215 474 227 482 234 c 5
 456 257 423 257 376 255 c 6
 363 254 l 5
 351 254 l 5
 350 267 l 5
 350 279 l 5
258 439 m 1
 772 392 l 1
 768 342 l 1
 252 389 l 1
 258 439 l 1
233 637 m 1
 216 655 l 1
 233 672 l 1
 232 671 234 672 233 672 c 1
 313 750 415 803 543 780 c 0
 579 773 618 759 654 739 c 0
 721 702 794 631 750 552 c 0
 693 450 590 430 502 368 c 0
 386 287 275 261 280 153 c 0
 280 151 281 149 281 147 c 0
 290 75 400 35 498 47 c 0
 599 59 663 136 725 228 c 2
 739 248 l 1
 760 235 l 1
 781 221 l 1
 767 200 l 2
 705 108 629 14 504 -2 c 0
 402 -14 246 18 231 140 c 0
 230 143 230 148 230 151 c 0
 222 301 376 342 472 409 c 0
 574 480 661 497 706 578 c 0
 726 615 697 658 630 695 c 0
 599 713 563 725 534 730 c 0
 427 750 342 707 268 636 c 2
 250 618 l 1
 233 637 l 1
EndSplineSet
Validated: 37
Ligature2: "ltligs1" M P
EndChar

StartChar: lt_MQ
Encoding: 370 -1 139
Width: 1000
VWidth: 0
Flags: W
HStem: 111 50<438.325 591> 255 50<289 420.775> 788 20G<747 772>
VStem: 246 50<-16 532> 253 49<9 532> 722 50<370 807>
LayerCount: 2
Fore
SplineSet
289 280 m 5xec
 288 292 l 5
 288 305 l 5
 301 305 l 5
 313 306 l 6
 361 308 423 313 467 261 c 4
 471 256 475 250 476 242 c 4
 481 212 450 191 438 181 c 5
 445 177 448 174 454 172 c 4
 485 160 518 165 582 161 c 6
 594 160 l 5
 607 159 l 5
 606 147 l 5
 605 134 l 5
 604 122 l 5
 603 109 l 5
 591 110 l 5
 578 111 l 6
 521 114 481 108 436 126 c 4
 422 132 407 139 393 150 c 4
 386 155 380 164 379 175 c 4
 377 188 384 198 388 203 c 4
 398 216 414 228 422 235 c 5
 396 258 361 258 314 256 c 6
 302 255 l 5
 289 255 l 5
 289 268 l 5
 289 280 l 5xec
522 509 m 1
 517 485 l 1
 492 491 l 1
 302 532 l 1xec
 296 8 l 1
 296 -17 l 1
 271 -16 l 1
 246 -16 l 1
 246 9 l 1
 246 10 245 9 246 9 c 1xf4
 253 564 l 1
 253 595 l 1
 283 588 l 1
 503 539 l 1
 528 534 l 1
 522 509 l 1
747 807 m 1
 772 808 l 1
 772 782 l 1
 777 343 l 1
 778 316 l 1
 750 318 l 1
 291 356 l 1
 266 358 l 1
 268 383 l 1
 270 408 l 1
 295 406 l 1
 727 370 l 1
 722 782 l 1
 722 807 l 1
 747 807 l 1
EndSplineSet
Validated: 37
Ligature2: "ltligs1" M Q
EndChar

StartChar: lt_MR
Encoding: 371 -1 140
Width: 1000
VWidth: 0
Flags: W
HStem: 429 50<121 132 133 250.004> 785 20G<382 413.565 584.174 615>
VStem: 78 42<429 479> 120 8<429 479> 836 50<150.145 243.577 539.673 639.41>
LayerCount: 2
Fore
SplineSet
120 454 m 5xe8
 119 467 l 5
 119 479 l 5
 132 479 l 5
 144 480 l 6
 192 482 254 487 298 435 c 4
 302 430 306 424 307 416 c 4
 312 386 281 364 269 354 c 5
 276 350 279 349 285 347 c 4
 316 335 348 339 412 335 c 6
 425 334 l 5
 438 333 l 5
 437 321 l 5
 436 308 l 5
 435 296 l 5
 435 283 l 5
 422 284 l 5
 410 285 l 6
 353 288 312 282 267 300 c 4
 253 306 239 313 225 324 c 4
 218 329 211 338 210 349 c 4
 208 362 215 373 219 378 c 4
 229 391 244 402 252 409 c 5
 226 432 193 432 146 430 c 6
 133 429 l 5
 121 429 l 5
 120 442 l 5
 120 454 l 5xe8
583 782 m 1
 592 805 l 1
 615 797 l 2
 720 759 885 726 887 578 c 0
 889 451 646 420 638 408 c 1
 648 389 886 334 886 202 c 0
 886 68 711 35 618 8 c 2
 594 1 l 1
 587 25 l 1
 580 49 l 1
 604 56 l 1
 715 88 836 120 836 202 c 0
 836 298 587 305 587 408 c 0
 587 517 839 488 837 577 c 0
 835 679 719 707 598 749 c 2
 575 758 l 1
 583 782 l 1
415 785 m 1
 427 763 l 1
 404 752 l 2
 251 673 126 581 128 418 c 0xd8
 130 241 247 138 417 60 c 2
 439 49 l 1
 428 27 l 1
 418 4 l 1
 396 14 l 2
 220 96 81 214 78 417 c 0
 75 612 228 717 382 796 c 2
 404 808 l 1
 415 785 l 1
EndSplineSet
Validated: 37
Ligature2: "ltligs1" M R
EndChar

StartChar: lt_MS
Encoding: 372 -1 141
Width: 1000
VWidth: 0
Flags: W
HStem: 114 49<664.325 830> 258 50<516 646.685> 343 50<143 410.8> 358 50<492.8 800> 805 20G<472 494.105>
VStem: 472 50<110.875 711> 480 50<-8 624.375>
LayerCount: 2
Fore
SplineSet
515 283 m 1xc8
 514 296 l 1
 514 308 l 1
 527 308 l 1
 539 309 l 2
 587 311 648 315 692 263 c 0
 696 258 701 253 702 245 c 0
 707 215 676 193 664 183 c 1
 671 179 674 177 680 175 c 0
 711 163 744 167 808 163 c 2
 820 163 l 1
 832 162 l 1
 832 150 l 1
 831 138 l 1
 830 125 l 1
 830 112 l 1
 818 113 l 1
 805 114 l 2
 748 117 707 111 662 129 c 0
 648 135 634 142 620 153 c 0
 613 158 606 167 605 178 c 0
 603 191 610 202 614 207 c 0
 624 220 640 231 648 238 c 1
 622 261 588 261 541 259 c 2
 528 258 l 1
 516 258 l 1
 515 271 l 1
 515 283 l 1xc8
805 389 m 4
 808 366 820 357 828 358 c 4xd8
 843 359 855 373 853 391 c 4
 851 413 835 426 817 424 c 4
 811 424 802 413 805 389 c 4
755 382 m 4
 751 414 761 471 813 474 c 4
 861 478 897 440 902 398 c 4
 908 356 879 311 832 308 c 4
 784 305 760 349 755 382 c 4
143 368 m 5
 142 392 l 5
 168 393 l 5
 167 393 168 392 168 393 c 5xe8
 775 408 l 5
 800 408 l 5
 801 383 l 5
 802 358 l 5
 777 358 l 5xd8
 168 343 l 5
 168 344 167 343 168 343 c 5xe8
 143 342 l 5
 143 368 l 5
505 -8 m 1
 480 -8 l 1
 480 17 l 1xca
 472 768 l 1
 472 825 l 1
 514 787 l 1
 768 557 l 1
 787 540 l 1
 769 521 l 1
 752 502 l 1
 734 519 l 1
 522 711 l 1xcc
 530 18 l 1
 530 -8 l 1xca
 505 -8 l 1
EndSplineSet
Validated: 37
Ligature2: "ltligs1" M S
EndChar

StartChar: lt_MT
Encoding: 373 -1 142
Width: 1000
VWidth: 0
Flags: W
HStem: 197 50<664.325 830> 342 50<516 646.685> 640 55<285 482 485 528 532 701> 760 51<473 532>
VStem: 471 50<-10 146 341 353> 481 50<277 695>
LayerCount: 2
Fore
SplineSet
515 366 m 5xf0
 514 378 l 5
 514 391 l 5
 527 392 l 5
 539 392 l 6
 587 394 648 399 692 347 c 4
 696 342 701 336 702 328 c 4
 707 298 676 277 664 267 c 5
 671 263 674 260 680 258 c 4
 711 246 744 251 808 247 c 6
 820 246 l 5
 832 245 l 5
 832 232 l 5
 831 220 l 5
 830 208 l 5
 830 195 l 5
 818 196 l 5
 805 197 l 6
 748 200 707 194 662 212 c 4
 648 218 634 226 620 237 c 4
 613 242 606 250 605 261 c 4
 603 274 610 284 614 289 c 4
 624 302 640 315 648 322 c 5
 622 345 588 344 541 342 c 6
 528 342 l 5
 516 341 l 5
 515 353 l 5
 515 366 l 5xf0
496 -10 m 1
 471 -10 l 1
 471 15 l 1xf8
 481 670 l 1
 482 695 l 1
 507 695 l 1
 532 695 l 1
 531 670 l 1xf4
 521 15 l 1
 521 -10 l 1xf8
 496 -10 l 1
227 582 m 1
 204 593 l 1
 216 616 l 1
 248 677 l 1
 255 690 l 1
 270 690 l 1
 712 694 l 1
 725 694 l 1
 733 684 l 1
 779 623 l 1
 794 603 l 1
 774 588 l 1
 754 573 l 1
 739 593 l 1
 701 644 l 1
 285 640 l 1
 260 592 l 1
 248 570 l 1
 227 582 l 1
504 714 m 1
 532 760 l 1
 473 760 l 1
 504 714 l 1
485 654 m 1
 405 770 l 1
 379 808 l 1
 426 809 l 1
 576 811 l 1
 620 812 l 1
 598 773 l 1
 528 655 l 1
 508 622 l 1
 485 654 l 1
EndSplineSet
Validated: 37
Ligature2: "ltligs1" M T
EndChar

StartChar: lt_MU
Encoding: 374 -1 143
Width: 1000
VWidth: 0
Flags: W
HStem: 127 50<613.325 766> 272 50<464 477 488 595.775> 363 50<531.581 818.819> 715 50<298.973 724.672> 754 49<149.44 308.841> 776 20G<810 854.553>
LayerCount: 2
Fore
SplineSet
464 296 m 5xe0
 463 308 l 5
 463 321 l 5
 476 322 l 5
 488 322 l 6
 536 324 598 329 642 277 c 4
 646 272 650 266 651 258 c 4
 656 228 625 207 613 197 c 5
 620 193 623 190 629 188 c 4
 660 176 693 181 757 177 c 6
 769 176 l 5
 782 175 l 5
 781 162 l 5
 780 150 l 5
 779 138 l 5
 778 125 l 5
 766 126 l 5
 753 127 l 6
 696 130 656 124 611 142 c 4
 597 148 582 156 568 167 c 4
 561 172 555 180 554 191 c 4
 552 204 559 214 563 219 c 4
 573 232 589 245 597 252 c 5
 571 275 536 274 489 272 c 6
 477 272 l 5
 464 271 l 5
 464 283 l 5
 464 296 l 5xe0
148 778 m 1
 150 803 l 1xe8
 175 801 l 2
 310 787 380 767 512 765 c 0
 626 763 691 781 810 791 c 2
 872 796 l 1
 831 749 l 2
 711 613 603 561 529 428 c 1
 584 420 643 415 711 413 c 0
 776 411 807 431 880 460 c 2
 903 469 l 1
 912 447 l 1
 922 423 l 1
 898 414 l 2
 831 387 788 360 709 363 c 0
 632 365 567 373 506 381 c 1
 454 260 501 188 512 40 c 2
 518 -44 l 1
 457 19 l 1
 134 450 l 1
 98 498 l 1
 158 490 l 2
 285 472 379 452 477 436 c 1
 549 575 647 634 748 734 c 1
 671 725 607 713 512 715 c 0xf4
 375 717 300 737 169 751 c 2
 144 754 l 1xe8
 148 778 l 1
455 389 m 1
 377 401 303 418 211 432 c 1
 460 94 l 1
 445 182 416 287 455 389 c 1
EndSplineSet
Validated: 37
Ligature2: "ltligs1" M U
EndChar

StartChar: lt_MV
Encoding: 375 -1 144
Width: 1000
VWidth: 0
Flags: W
HStem: -17 46<666.601 678.41> 244 49<626.325 779> 388 50<478 487 490 607.004> 793 20G<647 674.667>
VStem: 277 50<314.866 531.716> 478 9<388 438>
LayerCount: 2
Fore
SplineSet
477 413 m 5
 477 426 l 5
 476 438 l 5
 488 438 l 5
 501 439 l 6
 549 441 611 445 655 393 c 4
 659 388 662 383 663 375 c 4
 668 345 638 323 626 313 c 5
 633 309 636 307 642 305 c 4
 673 293 706 297 770 293 c 6
 782 293 l 5
 795 292 l 5
 794 280 l 5
 793 268 l 5
 792 255 l 5
 792 242 l 5
 779 243 l 5
 767 244 l 6
 710 247 669 241 624 259 c 4
 610 265 596 272 582 283 c 4
 575 288 568 297 567 308 c 4
 565 321 572 332 576 337 c 4
 586 350 601 361 609 368 c 5
 583 391 549 391 502 389 c 6
 490 388 l 5
 478 388 l 5
 478 401 l 5
 477 413 l 5
683 783 m 1
 673 771 l 2
 579 651 485 489 487 424 c 0
 489 352 544 161 686 29 c 2
 694 22 l 1
 675 -17 l 1
 662 -13 l 2
 414 57 285 224 277 423 c 0
 269 614 433 743 647 810 c 2
 658 813 l 1
 683 783 l 1
584 734 m 1
 420 665 321 560 327 425 c 0
 333 273 415 145 582 69 c 1
 480 201 439 349 437 422 c 0
 434 502 507 626 584 734 c 1
EndSplineSet
Validated: 37
Ligature2: "ltligs1" M V
EndChar

StartChar: lt_MW
Encoding: 376 -1 145
Width: 1000
VWidth: 0
Flags: W
HStem: 132 50<169 844> 224 49<442.325 595> 368 50<293 304 317 424.775> 603 50<171 846> 802 20G<480.571 504.941>
LayerCount: 2
Fore
SplineSet
292 393 m 5
 292 406 l 5
 292 418 l 5
 304 418 l 5
 317 419 l 6
 365 421 427 425 471 373 c 4
 475 368 479 363 480 355 c 4
 485 325 454 303 442 293 c 5
 449 289 452 287 458 285 c 4
 489 273 522 277 586 273 c 6
 598 273 l 5
 611 272 l 5
 610 260 l 5
 609 248 l 5
 608 235 l 5
 608 222 l 5
 595 223 l 5
 582 224 l 6
 525 227 485 221 440 239 c 4
 426 245 412 252 398 263 c 4
 391 268 384 277 383 288 c 4
 381 301 388 312 392 317 c 4
 402 330 418 341 426 348 c 5
 400 371 365 371 318 369 c 6
 306 368 l 5
 293 368 l 5
 293 381 l 5
 292 393 l 5
543 -2 m 1
 522 -37 l 1
 501 -2 l 1
 104 614 l 1
 79 653 l 1
 125 653 l 1
 890 654 l 1
 934 654 l 1
 912 616 l 1
 543 -2 l 1
521 58 m 1
 846 604 l 1
 171 603 l 1
 521 58 l 1
472 787 m 1
 492 822 l 1
 514 788 l 1
 911 171 l 1
 936 132 l 1
 890 132 l 1
 125 131 l 1
 81 131 l 1
 103 169 l 1
 472 787 l 1
494 727 m 1
 169 181 l 1
 844 182 l 1
 494 727 l 1
EndSplineSet
Validated: 37
Ligature2: "ltligs1" M W
EndChar

StartChar: lt_MX
Encoding: 377 -1 146
Width: 1000
VWidth: 0
Flags: W
HStem: 197 50<518.325 671> 752 20G<837 862>
VStem: 150 50<651.429 711.497> 320 49<118 356.035> 812 50<252.1 771> 822 50<15 534.2>
LayerCount: 2
Fore
SplineSet
369 366 m 5xf0
 368 378 l 5
 368 391 l 5
 381 392 l 5
 393 392 l 6
 441 394 503 399 547 347 c 4
 551 342 555 336 556 328 c 4
 561 298 530 277 518 267 c 5
 525 263 528 260 534 258 c 4
 565 246 598 251 662 247 c 6
 674 246 l 5
 687 245 l 5
 686 232 l 5
 685 220 l 5
 684 208 l 5
 683 195 l 5
 671 196 l 5
 658 197 l 6
 601 200 561 194 516 212 c 4
 502 218 487 226 473 237 c 4
 466 242 460 250 459 261 c 4
 457 274 464 284 468 289 c 4
 478 302 494 315 502 322 c 5
 476 345 441 344 394 342 c 6
 382 342 l 5
 369 341 l 5
 369 353 l 5
 369 366 l 5xf0
837 771 m 1
 862 772 l 1
 862 747 l 1xf8
 872 40 l 1
 872 15 l 1
 848 15 l 1
 822 15 l 1
 822 40 l 1xf4
 812 746 l 1
 812 771 l 1xf8
 837 771 l 1
344 117 m 1
 319 118 l 1
 320 142 l 2
 322 216 289 282 330 368 c 0
 398 514 562 496 537 598 c 0
 511 702 393 694 255 719 c 0
 251 720 245 720 239 719 c 0
 213 714 197 694 200 677 c 2
 204 652 l 1
 179 648 l 1
 155 643 l 1
 150 668 l 2
 140 722 187 760 230 768 c 0
 241 770 251 770 263 768 c 0
 381 747 548 758 585 610 c 0
 620 468 414 430 376 348 c 0
 345 282 373 234 370 141 c 2
 369 116 l 1
 344 117 l 1
344 82 m 0
 347 59 360 49 368 50 c 0
 383 51 394 64 392 82 c 0
 390 104 375 118 357 116 c 0
 351 116 341 106 344 82 c 0
294 74 m 0
 290 106 300 163 352 166 c 0
 400 170 437 131 442 89 c 0
 448 47 418 3 371 0 c 0
 323 -3 299 41 294 74 c 0
EndSplineSet
Validated: 37
Ligature2: "ltligs1" M X
EndChar

StartChar: lt_MY
Encoding: 378 -1 147
Width: 1000
VWidth: 0
Flags: W
HStem: -3 50<411.813 608.765> 204 49<387.325 540> 348 50<249 369.775> 633 50<436.147 585.678> 787 20G<491 523>
VStem: 238 4<348 398> 797 50<234.537 450.469>
LayerCount: 2
Fore
SplineSet
238 373 m 5
 238 386 l 5
 237 398 l 5
 249 398 l 5
 262 399 l 6
 310 401 372 405 416 353 c 4
 420 348 424 343 425 335 c 4
 430 305 399 283 387 273 c 5
 394 269 397 267 403 265 c 4
 434 253 467 257 531 253 c 6
 543 253 l 5
 556 252 l 5
 555 240 l 5
 554 228 l 5
 553 215 l 5
 552 202 l 5
 540 203 l 5
 528 204 l 6
 471 207 430 201 385 219 c 4
 371 225 356 232 342 243 c 4
 335 248 329 257 328 268 c 4
 326 281 333 292 337 297 c 4
 347 310 363 321 371 328 c 5
 345 351 310 351 263 349 c 6
 251 348 l 5
 238 348 l 5
 238 361 l 5
 238 373 l 5
312 574 m 1
 296 592 l 1
 314 609 l 1
 491 792 l 1
 507 807 l 1
 523 793 l 1
 712 613 l 1
 732 598 l 1
 717 578 l 1
 701 559 l 1
 682 574 l 1
 509 741 l 1
 348 573 l 1
 330 556 l 1
 312 574 l 1
508 633 m 0
 363 635 246 491 242 338 c 0
 239 192 357 49 499 47 c 0
 662 44 792 172 797 336 c 0
 802 498 671 631 508 633 c 0
508 683 m 0
 698 680 852 526 847 334 c 0
 842 144 689 -6 498 -3 c 0
 323 0 188 168 192 338 c 0
 196 511 327 686 508 683 c 0
EndSplineSet
Validated: 37
Ligature2: "ltligs1" M Y
EndChar

StartChar: lt_MZ
Encoding: 379 -1 148
Width: 1000
VWidth: 0
Flags: W
HStem: 338 50<351.326 517> 483 50<202 332.004> 753 45G<158 162 635.667 670>
VStem: 485 33<338 375> 518 17<338.54 375>
LayerCount: 2
Fore
SplineSet
202 508 m 5xf0
 202 521 l 5
 201 533 l 5
 213 533 l 5
 226 534 l 6
 274 536 336 540 380 488 c 4
 384 483 387 478 388 470 c 4
 393 440 363 418 351 408 c 5
 358 404 362 402 368 400 c 4
 399 388 431 392 495 388 c 6
 508 388 l 5
 520 388 l 5
 519 375 l 5
 518 362 l 5
 518 350 l 5
 517 338 l 5
 504 338 l 5
 492 339 l 6
 435 342 394 336 349 354 c 4
 335 360 321 367 307 378 c 4
 300 383 293 392 292 403 c 4
 290 416 297 427 301 432 c 4
 311 445 326 456 334 463 c 5
 308 486 275 486 228 484 c 6
 215 483 l 5
 202 483 l 5
 202 496 l 5
 202 508 l 5xf0
670 758 m 1
 690 743 l 1
 675 723 l 2
 581 594 530 521 535 376 c 0xe8
 540 236 606 173 700 47 c 2
 715 27 l 1
 695 12 l 1
 675 -3 l 1
 660 17 l 2
 568 139 490 216 485 374 c 0
 480 535 542 624 635 752 c 2
 649 773 l 1
 670 758 l 1
856 396 m 1
 141 2 l 1
 133 16 125 32 117 46 c 1
 329 164 542 280 754 398 c 1
 138 755 l 1
 146 769 154 784 162 798 c 1
 162 798 632 525 856 396 c 1
EndSplineSet
Validated: 37
Ligature2: "ltligs1" M Z
EndChar

StartChar: lt_PP
Encoding: 380 -1 149
Width: 1000
Flags: W
VStem: 231 50<103.139 227.714>
LayerCount: 2
Fore
SplineSet
258 439 m 5
 772 392 l 5
 768 342 l 5
 252 389 l 5
 258 439 l 5
233 637 m 1
 216 655 l 1
 233 672 l 1
 232 671 234 672 233 672 c 1
 313 750 415 803 543 780 c 0
 579 773 618 759 654 739 c 0
 721 702 794 631 750 552 c 0
 693 450 590 430 502 368 c 0
 386 287 275 261 280 153 c 0
 280 151 281 149 281 147 c 0
 290 75 400 35 498 47 c 0
 599 59 663 136 725 228 c 2
 739 248 l 1
 760 235 l 1
 781 221 l 1
 767 200 l 2
 705 108 629 14 504 -2 c 0
 402 -14 246 18 231 140 c 0
 230 143 230 148 230 151 c 0
 222 301 376 342 472 409 c 0
 574 480 661 497 706 578 c 0
 726 615 697 658 630 695 c 0
 599 713 563 725 534 730 c 0
 427 750 342 707 268 636 c 2
 250 618 l 1
 233 637 l 1
468 -98 m 0
 471 -121 484 -131 492 -130 c 0
 507 -129 520 -116 518 -98 c 0
 516 -76 499 -62 481 -64 c 0
 475 -64 465 -74 468 -98 c 0
419 -106 m 0
 415 -74 425 -17 477 -14 c 0
 525 -10 562 -49 567 -91 c 0
 573 -133 543 -177 496 -180 c 0
 448 -183 424 -139 419 -106 c 0
EndSplineSet
Validated: 37
Ligature2: "ltligs1" P P
EndChar

StartChar: lt_PT
Encoding: 381 -1 150
Width: 1000
Flags: W
HStem: 640 55<285 482 485 528 532 701> 760 51<473 532>
VStem: 471 50<-10 473.5> 481 50<277 695>
LayerCount: 2
Fore
SplineSet
496 -10 m 5xe0
 471 -10 l 5
 471 15 l 5xe0
 481 670 l 5
 482 695 l 5
 507 695 l 5
 532 695 l 5
 531 670 l 5xd0
 521 15 l 5
 521 -10 l 5
 496 -10 l 5xe0
227 582 m 5
 204 593 l 5
 216 616 l 5
 248 677 l 5
 255 690 l 5
 270 690 l 5
 712 694 l 5
 725 694 l 5
 733 684 l 5
 779 623 l 5
 794 603 l 5
 774 588 l 5
 754 573 l 5
 739 593 l 5
 701 644 l 5
 285 640 l 5
 260 592 l 5
 248 570 l 5
 227 582 l 5
504 714 m 5
 532 760 l 5
 473 760 l 5
 504 714 l 5
485 654 m 5
 405 770 l 5
 379 808 l 5
 426 809 l 5
 576 811 l 5
 620 812 l 5
 598 773 l 5
 528 655 l 5
 508 622 l 5
 485 654 l 5
137 460 m 1
 879 402 l 1
 874 352 l 1
 132 410 l 1
 137 460 l 1
EndSplineSet
Validated: 5
Ligature2: "ltligs1" P T
EndChar

StartChar: lt_PK
Encoding: 382 -1 151
Width: 1000
Flags: W
HStem: 27 51<611 829> 772 20G<794.613 867.922>
LayerCount: 2
Fore
SplineSet
679 316 m 1
 698 352 l 1
 722 318 l 1
 898 72 l 1
 925 34 l 1
 878 33 l 1
 569 27 l 1
 528 26 l 1
 547 63 l 1
 679 316 l 1
704 257 m 1
 611 78 l 1
 829 82 l 1
 704 257 l 1
808 536 m 1
 783 542 l 1
 759 547 l 1
 765 572 l 1
 791 689 l 1
 107 22 l 1
 88 5 l 1
 71 22 l 1
 53 41 l 1
 72 58 l 1
 735 705 l 1
 611 674 l 1
 599 722 l 1
 630 730 l 1
 873 792 l 1
 808 536 l 1
137 460 m 1
 879 402 l 1
 874 352 l 1
 132 410 l 1
 137 460 l 1
EndSplineSet
Validated: 5
Ligature2: "ltligs1" P K
EndChar

StartChar: lt_PF
Encoding: 383 -1 152
Width: 1000
Flags: W
HStem: 21 21G<135 170> 762 20G<479 515.143 762 788>
VStem: 474 50<18 746> 762 50<601.35 781>
LayerCount: 2
Fore
SplineSet
909 662 m 5
 932 654 l 5
 925 630 l 6
 885 509 864 439 763 348 c 4
 651 248 514 350 427 293 c 4
 306 214 265 155 170 40 c 6
 154 21 l 5
 135 37 l 5
 116 52 l 5
 132 72 l 6
 225 184 272 252 399 335 c 4
 529 420 650 313 730 385 c 4
 822 468 838 523 878 646 c 6
 885 669 l 5
 909 662 l 5
788 781 m 5
 812 781 l 5
 812 756 l 6
 810 633 799 551 696 459 c 4
 584 359 445 462 358 405 c 4
 237 326 197 267 102 152 c 6
 87 132 l 5
 68 148 l 5
 48 165 l 5
 63 184 l 6
 156 296 205 364 332 447 c 4
 462 532 582 425 662 497 c 4
 753 579 760 636 762 757 c 6
 762 782 l 5
 788 781 l 5
479 765 m 1
 498 785 l 1
 516 764 l 1
 708 542 l 1
 689 525 l 1
 670 508 l 1
 496 711 l 1
 300 505 l 1
 282 522 l 1
 263 539 l 1
 479 765 l 1
495 746 m 1
 520 746 l 1
 520 739 l 1
 524 42 l 1
 524 18 l 1
 499 17 l 1
 474 17 l 1
 474 42 l 1
 470 739 l 1
 470 746 l 1
 495 746 l 1
137 460 m 1
 879 402 l 1
 874 352 l 1
 132 410 l 1
 137 460 l 1
EndSplineSet
Validated: 37
Ligature2: "ltligs1" P F
EndChar

StartChar: lt_PN
Encoding: 384 -1 153
Width: 1000
Flags: W
HStem: 22 51<226 766> 766 20G<816.18 835.357>
VStem: 787 48<393.462 663> 797 51<113 449.538>
LayerCount: 2
Fore
SplineSet
766 73 m 5xc0
 499 358 l 5
 226 68 l 5
 766 73 l 5xc0
787 663 m 5xe0
 534 395 l 5
 797 113 l 5xd0
 787 663 l 5xe0
500 430 m 5
 835 786 l 5xe0
 848 57 l 5
 848 22 l 5
 822 22 l 5
 799 22 l 5
 109 16 l 5
 465 394 l 5
 157 725 l 5
 193 759 l 5
 500 430 l 5
137 460 m 1
 879 402 l 1
 874 352 l 1
 132 410 l 1
 137 460 l 1
EndSplineSet
Validated: 5
Ligature2: "ltligs1" P N
EndChar

StartChar: lt_PM
Encoding: 385 -1 154
Width: 1000
Flags: W
HStem: 14 50<237 812> 213 50<543.463 779> 502 50<199 418.012> 771 20G<189 239>
VStem: 189 50<60 503 553 791> 198 41<503 552>
LayerCount: 2
Fore
SplineSet
198 528 m 5xf4
 198 552 l 5
 222 553 l 6
 319 556 430 564 510 472 c 4
 516 465 520 455 522 446 c 4
 531 388 439 339 430 326 c 5
 530 251 595 273 758 263 c 6
 782 262 l 5
 781 237 l 5
 779 212 l 5
 754 213 l 6
 602 223 516 199 398 288 c 4
 388 296 380 306 378 319 c 4
 376 336 385 349 392 358 c 4
 420 394 468 425 472 438 c 4
 410 510 326 506 224 503 c 6
 199 502 l 5
 198 528 l 5xf4
214 791 m 1
 239 791 l 1
 239 766 l 1
 239 767 240 766 239 766 c 1
 237 60 l 1
 788 64 l 1
 812 64 l 1
 813 39 l 1
 813 14 l 1
 788 14 l 1
 212 10 l 1
 187 10 l 1
 187 35 l 1
 189 766 l 1
 188 766 189 767 189 766 c 1
 189 791 l 1xf8
 214 791 l 1
137 460 m 1
 879 402 l 1
 874 352 l 1
 132 410 l 1
 137 460 l 1
EndSplineSet
Validated: 37
Ligature2: "ltligs1" P M
EndChar

StartChar: lt_PZ
Encoding: 386 -1 155
Width: 1000
Flags: W
HStem: 753 45G<158 162 635.667 670>
VStem: 485 50<268.719 525.652>
LayerCount: 2
Fore
SplineSet
670 758 m 5
 690 743 l 5
 675 723 l 6
 581 594 530 521 535 376 c 4
 540 236 606 173 700 47 c 6
 715 27 l 5
 695 12 l 5
 675 -3 l 5
 660 17 l 6
 568 139 490 216 485 374 c 4
 480 535 542 624 635 752 c 6
 649 773 l 5
 670 758 l 5
856 396 m 1
 141 2 l 1
 133 16 125 32 117 46 c 1
 329 164 542 280 754 398 c 1
 138 755 l 1
 146 769 154 784 162 798 c 1
 162 798 632 525 856 396 c 1
137 460 m 1
 879 402 l 1
 874 352 l 1
 132 410 l 1
 137 460 l 1
EndSplineSet
Validated: 37
Ligature2: "ltligs1" P Z
EndChar

StartChar: lt_PY
Encoding: 387 -1 156
Width: 1000
Flags: W
HStem: -3 50<411.813 608.765> 633 50<436.147 585.678> 787 20G<491 523>
VStem: 192 50<228.431 401.632> 797 50<234.537 351.885>
LayerCount: 2
Fore
SplineSet
312 574 m 1
 296 592 l 1
 314 609 l 1
 491 792 l 1
 507 807 l 1
 523 793 l 1
 712 613 l 1
 732 598 l 1
 717 578 l 1
 701 559 l 1
 682 574 l 1
 509 741 l 1
 348 573 l 1
 330 556 l 1
 312 574 l 1
508 633 m 0
 363 635 246 491 242 338 c 0
 239 192 357 49 499 47 c 0
 662 44 792 172 797 336 c 0
 802 498 671 631 508 633 c 0
508 683 m 0
 698 680 852 526 847 334 c 0
 842 144 689 -6 498 -3 c 0
 323 0 188 168 192 338 c 0
 196 511 327 686 508 683 c 0
137 460 m 1
 879 402 l 1
 874 352 l 1
 132 410 l 1
 137 460 l 1
EndSplineSet
Validated: 37
Ligature2: "ltligs1" P Y
EndChar

StartChar: lt_PC
Encoding: 388 -1 157
Width: 1000
Flags: W
HStem: 4 50<172 820>
LayerCount: 2
Fore
SplineSet
481 720 m 4
 484 697 496 687 504 688 c 4
 519 689 531 703 529 721 c 4
 527 743 511 756 493 754 c 4
 487 754 478 744 481 720 c 4
431 712 m 4
 427 744 437 801 489 804 c 4
 537 808 574 770 579 728 c 4
 585 686 555 641 508 638 c 4
 460 635 436 679 431 712 c 4
477 640 m 1
 498 674 l 1
 519 640 l 1
 886 42 l 1
 910 3 l 1
 865 3 l 1
 127 4 l 1
 82 4 l 1
 106 42 l 1
 477 640 l 1
498 580 m 1
 172 54 l 1
 820 53 l 1
 498 580 l 1
137 460 m 1
 879 402 l 1
 874 352 l 1
 132 410 l 1
 137 460 l 1
EndSplineSet
Validated: 37
Ligature2: "ltligs1" P C
EndChar

StartChar: lt_PX
Encoding: 389 -1 158
Width: 1000
Flags: W
HStem: 752 20G<837 862>
VStem: 150 50<651.429 711.497> 319 50<118 355.563> 812 50<252.1 771> 822 50<15 534.2>
LayerCount: 2
Fore
SplineSet
837 771 m 1xf0
 862 772 l 1
 862 747 l 1xf0
 872 40 l 1
 872 15 l 1
 848 15 l 1
 822 15 l 1
 822 40 l 1xe8
 812 746 l 1
 812 771 l 1
 837 771 l 1xf0
344 117 m 1
 319 118 l 1
 320 142 l 2
 322 216 289 282 330 368 c 0
 398 514 562 496 537 598 c 0
 511 702 393 694 255 719 c 0
 251 720 245 720 239 719 c 0
 213 714 197 694 200 677 c 2
 204 652 l 1
 179 648 l 1
 155 643 l 1
 150 668 l 2
 140 722 187 760 230 768 c 0
 241 770 251 770 263 768 c 0
 381 747 548 758 585 610 c 0
 620 468 414 430 376 348 c 0
 345 282 373 234 370 141 c 2
 369 116 l 1
 344 117 l 1
344 82 m 4
 347 59 360 49 368 50 c 4
 383 51 394 64 392 82 c 4
 390 104 375 118 357 116 c 4
 351 116 341 106 344 82 c 4
294 74 m 4
 290 106 300 163 352 166 c 4
 400 170 437 131 442 89 c 4
 448 47 418 3 371 0 c 4
 323 -3 299 41 294 74 c 4
137 460 m 1
 879 402 l 1
 874 352 l 1
 132 410 l 1
 137 460 l 1
EndSplineSet
Validated: 37
Ligature2: "ltligs1" P X
EndChar

StartChar: lt_PL
Encoding: 390 -1 159
Width: 1000
Flags: W
HStem: -5 50<548.004 821.217> 783 20G<438.826 471.465>
VStem: 418 50<183.201 386 442 715>
LayerCount: 2
Fore
SplineSet
467 397 m 1
 466 313 468 229 482 136 c 0
 494 61 591 47 706 45 c 0
 802 43 826 63 907 128 c 2
 926 143 l 1
 942 123 l 1
 958 104 l 1
 938 88 l 2
 857 23 812 -7 704 -5 c 0
 601 -3 452 3 433 128 c 0
 419 220 416 304 417 386 c 1
 122 543 l 1
 84 563 l 1
 121 586 l 1
 434 780 l 1
 471 803 l 1
 472 760 l 2
 476 628 470 519 468 415 c 1
 467 409 l 1
 467 397 l 1
418 442 m 1
 420 528 425 613 423 715 c 1
 184 567 l 1
 418 442 l 1
137 460 m 1
 879 402 l 1
 874 352 l 1
 132 410 l 1
 137 460 l 1
EndSplineSet
Validated: 37
Ligature2: "ltligs1" P L
EndChar

StartChar: lt_PW
Encoding: 391 -1 160
Width: 1000
Flags: W
HStem: 132 50<169 844> 603 50<171 846> 802 20G<480.571 504.941>
LayerCount: 2
Fore
SplineSet
543 -2 m 5
 522 -37 l 5
 501 -2 l 5
 104 614 l 5
 79 653 l 5
 125 653 l 5
 890 654 l 5
 934 654 l 5
 912 616 l 5
 543 -2 l 5
521 58 m 5
 846 604 l 5
 171 603 l 5
 521 58 l 5
472 787 m 5
 492 822 l 5
 514 788 l 5
 911 171 l 5
 936 132 l 5
 890 132 l 5
 125 131 l 5
 81 131 l 5
 103 169 l 5
 472 787 l 5
494 727 m 5
 169 181 l 5
 844 182 l 5
 494 727 l 5
137 460 m 1
 879 402 l 1
 874 352 l 1
 132 410 l 1
 137 460 l 1
EndSplineSet
Validated: 5
Ligature2: "ltligs1" P W
EndChar

StartChar: lt_PD
Encoding: 392 -1 161
Width: 1000
Flags: W
HStem: 774 20G<184 219 781 816>
LayerCount: 2
Fore
SplineSet
816 778 m 1
 835 762 l 1
 819 743 l 1
 219 4 l 1
 203 -15 l 1
 184 1 l 1
 165 17 l 1
 181 36 l 1
 781 775 l 1
 797 794 l 1
 816 778 l 1
184 778 m 1
 203 794 l 1
 219 775 l 1
 819 36 l 1
 835 17 l 1
 816 1 l 1
 797 -15 l 1
 781 4 l 1
 181 743 l 1
 165 762 l 1
 184 778 l 1
137 460 m 1
 879 402 l 1
 874 352 l 1
 132 410 l 1
 137 460 l 1
EndSplineSet
Validated: 5
Ligature2: "ltligs1" P D
EndChar

StartChar: lt_PB
Encoding: 393 -1 162
Width: 1000
Flags: W
HStem: 26 50<572.287 759.067> 352 50<789.448 874.7>
VStem: 136 50<183.411 580.091> 360 49<468.444 584.12> 768 49<76.5814 160.75>
LayerCount: 2
Fore
SplineSet
385 587 m 5
 409 590 l 5
 412 565 l 6
 423 485 429 437 462 440 c 4
 500 444 501 519 499 580 c 6
 499 586 l 5
 548 582 l 6
 555 581 560 518 563 503 c 4
 586 405 585 338 523 253 c 4
 511 236 492 231 476 232 c 4
 436 234 381 275 385 322 c 6
 388 348 l 5
 412 345 l 5
 438 342 l 5
 435 318 l 6
 436 310 467 280 482 282 c 4
 521 336 534 405 529 457 c 5
 517 439 495 392 468 390 c 4
 371 380 371 506 363 558 c 6
 360 583 l 5
 385 587 l 5
777 662 m 5
 756 648 l 5
 742 668 l 6
 720 698 686 744 669 743 c 4
 471 731 360 747 251 635 c 4
 168 550 185 514 186 398 c 4
 187 279 174 191 260 104 c 4
 368 -5 510 64 752 76 c 5
 759 88 765 126 768 144 c 6
 772 169 l 5
 797 165 l 5
 821 160 l 5
 817 136 l 6
 816 128 818 28 760 26 c 4
 534 15 361 -69 224 69 c 4
 122 172 137 285 136 397 c 4
 135 509 115 568 215 670 c 4
 351 809 485 785 671 793 c 4
 722 795 761 728 782 698 c 6
 797 677 l 5
 777 662 l 5
137 460 m 1
 879 402 l 1
 874 352 l 1
 132 410 l 1
 137 460 l 1
EndSplineSet
Validated: 37
Ligature2: "ltligs1" P B
EndChar

StartChar: lt_PA
Encoding: 394 -1 163
Width: 1000
Flags: W
HStem: -3 50<189 821> 565 50<475 520.974> 724 50<281.878 368.397 640.237 707.885>
LayerCount: 2
Fore
SplineSet
482 496 m 1
 501 520 l 1
 520 496 l 1
 892 38 l 1
 926 -3 l 1
 873 -3 l 1
 137 -2 l 1
 85 -2 l 1
 118 38 l 1
 482 496 l 1
501 440 m 1
 189 48 l 1
 821 47 l 1
 501 440 l 1
168 579 m 1
 147 592 l 1
 159 614 l 2
 198 680 237 776 342 774 c 0
 465 772 450 616 497 615 c 0
 533 614 568 773 661 769 c 0
 756 764 800 681 849 615 c 2
 864 595 l 1
 844 580 l 1
 824 565 l 1
 809 585 l 2
 754 659 721 716 659 719 c 0
 629 721 593 563 495 565 c 0
 380 567 403 722 341 724 c 0
 274 726 249 666 202 588 c 2
 190 567 l 1
 168 579 l 1
137 460 m 1
 879 402 l 1
 874 352 l 1
 132 410 l 1
 137 460 l 1
EndSplineSet
Validated: 37
Ligature2: "ltligs1" P A
EndChar

StartChar: lt_PI
Encoding: 395 -1 164
Width: 1000
Flags: W
LayerCount: 2
Fore
SplineSet
862 620 m 1
 842 607 l 1
 828 628 l 2
 826 630 824 633 822 635 c 0
 764 717 678 764 617 722 c 0
 483 629 419 377 458 212 c 0
 468 169 490 131 518 103 c 0
 596 25 729 9 842 123 c 2
 860 142 l 1
 878 123 l 1
 895 106 l 1
 878 88 l 2
 747 -44 580 -30 482 68 c 0
 447 103 420 148 408 200 c 0
 365 382 430 653 588 763 c 0
 688 833 803 751 864 664 c 0
 866 661 868 658 870 655 c 2
 883 633 l 1
 862 620 l 1
121 578 m 1
 98 588 l 1
 108 612 l 2
 123 644 147 678 175 710 c 0
 236 777 337 842 419 768 c 0
 602 600 669 407 598 166 c 0
 578 99 545 51 502 22 c 0
 386 -56 227 15 132 156 c 2
 118 177 l 1
 139 191 l 1
 160 205 l 1
 173 184 l 2
 261 53 393 9 474 63 c 0
 506 84 532 122 550 180 c 0
 616 403 557 574 385 732 c 0
 340 774 272 744 212 677 c 0
 187 649 165 617 153 591 c 2
 143 568 l 1
 121 578 l 1
137 460 m 1
 879 402 l 1
 874 352 l 1
 132 410 l 1
 137 460 l 1
EndSplineSet
Validated: 37
Ligature2: "ltligs1" P I
EndChar

StartChar: lt_PR
Encoding: 396 -1 165
Width: 1000
Flags: W
HStem: 785 20G<382 413.565 584.174 615>
VStem: 78 50<305.111 525.224> 836 50<150.145 243.577 539.673 639.41>
LayerCount: 2
Fore
SplineSet
583 782 m 1
 592 805 l 1
 615 797 l 2
 720 759 885 726 887 578 c 0
 889 451 646 420 638 408 c 1
 648 389 886 334 886 202 c 0
 886 68 711 35 618 8 c 2
 594 1 l 1
 587 25 l 1
 580 49 l 1
 604 56 l 1
 715 88 836 120 836 202 c 0
 836 298 587 305 587 408 c 0
 587 517 839 488 837 577 c 0
 835 679 719 707 598 749 c 2
 575 758 l 1
 583 782 l 1
415 785 m 1
 427 763 l 1
 404 752 l 2
 251 673 126 581 128 418 c 0
 130 241 247 138 417 60 c 2
 439 49 l 1
 428 27 l 1
 418 4 l 1
 396 14 l 2
 220 96 81 214 78 417 c 0
 75 612 228 717 382 796 c 2
 404 808 l 1
 415 785 l 1
137 460 m 1
 879 402 l 1
 874 352 l 1
 132 410 l 1
 137 460 l 1
EndSplineSet
Validated: 37
Ligature2: "ltligs1" P R
EndChar

StartChar: lt_PO
Encoding: 397 -1 166
Width: 1000
Flags: W
HStem: 814 20G<493.93 509.931>
LayerCount: 2
Fore
SplineSet
469 245 m 4
 472 222 484 212 492 213 c 4
 507 214 520 229 518 247 c 4
 516 269 499 282 481 280 c 4
 475 280 466 269 469 245 c 4
419 238 m 4
 415 270 426 327 478 330 c 4
 526 334 562 295 567 253 c 4
 573 211 543 167 496 164 c 4
 448 161 424 205 419 238 c 4
188 -1 m 1
 165 8 l 1
 175 32 l 1
 479 777 l 1
 502 834 l 1
 525 776 l 1
 822 28 l 1
 831 4 l 1
 808 -5 l 1
 784 -14 l 1
 775 9 l 1
 502 700 l 1
 221 12 l 1
 212 -11 l 1
 188 -1 l 1
137 460 m 1
 879 402 l 1
 874 352 l 1
 132 410 l 1
 137 460 l 1
EndSplineSet
Validated: 37
Ligature2: "ltligs1" P O
EndChar

StartChar: lt_PV
Encoding: 398 -1 167
Width: 1000
Flags: W
HStem: -17 46<666.601 678.41> 793 20G<647 674.667>
VStem: 277 50<314.866 531.716> 437 50<320.977 503.314>
LayerCount: 2
Fore
SplineSet
683 783 m 1
 673 771 l 2
 579 651 485 489 487 424 c 0
 489 352 544 161 686 29 c 2
 694 22 l 1
 675 -17 l 1
 662 -13 l 2
 414 57 285 224 277 423 c 0
 269 614 433 743 647 810 c 2
 658 813 l 1
 683 783 l 1
584 734 m 1
 420 665 321 560 327 425 c 0
 333 273 415 145 582 69 c 1
 480 201 439 349 437 422 c 0
 434 502 507 626 584 734 c 1
137 460 m 1
 879 402 l 1
 874 352 l 1
 132 410 l 1
 137 460 l 1
EndSplineSet
Validated: 37
Ligature2: "ltligs1" P V
EndChar

StartChar: lt_TP
Encoding: 399 -1 168
Width: 1000
Flags: W
HStem: 640 50<285 485 528 701> 654 36<485 528> 760 51<473 532>
VStem: 279.931 49.6112<81.0068 186.091>
LayerCount: 2
Fore
SplineSet
306.855697498 356.179421723 m 1x30
 718.054916248 318.578835786 l 1
 722.977813241 318.128679747 l 1
 722.583693505 313.20097999 l 1
 719.384474755 273.20097999 l 1
 718.981425962 268.161639776 l 1
 713.946835664 268.620223078 l 1
 301.146054414 306.220809015 l 1
 296.022118498 306.687530498 l 1
 296.635236654 311.796016999 l 1
 301.436017904 351.796016999 l 1
 302.015234904 356.622039855 l 1
 306.855697498 356.179421723 l 1x30
279 120.666557914 m 0
 272.379898361 244.785887997 399.982111859 279.126252604 474.743128701 331.303915352 c 0
 557.555194088 388.946995799 625.70460189 402.323902162 660.414999677 464.803371443 c 0
 674.076690629 490.077166166 655.205253826 522.010887609 601.53579168 551.649072167 c 0
 577.227469381 565.764075932 549.007805125 575.166328102 526.316056315 579.07866565 c 0
 442.662027666 594.714825656 376.403187346 561.360304671 317.899301398 505.227650128 c 2
 303.535414019 490.864736836 l 1
 299.798052074 487.127628341 l 1
 296.273831001 491.066374339 l 1
 282.719119444 506.215414314 l 1
 269.16476627 520.566853381 l 1
 265.82816213 524.099671982 l 1
 269.264397719 527.535660839 l 2
 270.730772229 529.001930058 273.946648656 532.326950508 274.192542111 532.572826308 c 0
 277.059400512 535.368030746 279.995042951 538.337616464 282.909878743 541.179599151 c 0
 347.599332331 604.252211233 430.859921926 647.685332488 535.319727573 628.914884282 c 0
 564.746806971 623.193312505 596.352168739 611.835652157 625.617358981 595.577102874 c 0
 679.236286242 565.965848561 741.973979197 506.686056594 704.364721336 439.160509611 c 0
 657.608532779 355.491224405 573.46815413 338.918108957 504.462202756 290.30093223 c 0
 409.650954242 224.095588418 325.192869069 204.749540623 328.994650158 122.631625997 c 2
 329 122.516070198 l 1
 329 122.400390625 l 2
 329 120.256877638 329.499820621 120.198190292 329.542048187 119.972890673 c 0
 336.522878151 64.1281445844 419.905863852 33.025783034 497.810443383 42.5646836193 c 0
 576.11681263 51.8690010037 626.251285962 111.589957864 675.878431396 185.231404407 c 2
 687.104059201 201.267735905 l 1
 689.814068406 205.139110116 l 1
 693.832061968 202.651658425 l 1
 710.703478613 192.206934408 l 1
 727.573361475 180.960018954 l 1
 731.733575742 178.186462166 l 1
 728.960018954 174.0262479 l 1
 717.745944839 157.205737624 l 2
 668.080905689 83.5090386567 606.274597845 6.5529204835 503.809735347 -6.56238178959 c 0
 421.258670918 -16.2747947481 293.174099799 9.56194389412 279.930810155 110.644881514 c 0
 278.606122709 116.594537374 279 117.854516751 279 120.666557914 c 0
227 582 m 1
 204 593 l 1
 216 616 l 1
 248 677 l 1
 255 690 l 1
 270 690 l 1x70
 712 694 l 1
 725 694 l 1
 733 684 l 1
 779 623 l 1
 794 603 l 1
 774 588 l 1
 754 573 l 1
 739 593 l 1
 701 644 l 1
 285 640 l 1xb0
 260 592 l 1
 248 570 l 1
 227 582 l 1
504 714 m 1
 532 760 l 1
 473 760 l 1
 504 714 l 1
485 654 m 1
 405 770 l 1
 379 808 l 1
 426 809 l 1
 576 811 l 1
 620 812 l 1
 598 773 l 1
 528 655 l 1
 506 653 l 1
 485 654 l 1
EndSplineSet
Validated: 524325
Ligature2: "ltligs1" T P
EndChar

StartChar: lt_TT
Encoding: 400 -1 169
Width: 1000
Flags: W
HStem: 640 55<285 482 485 528 532 701> 760 51<473 532>
VStem: 471 50<-10 473.5> 481 50<277 695>
LayerCount: 2
Fore
SplineSet
496 -10 m 5xe0
 471 -10 l 5
 471 15 l 5xe0
 481 670 l 5
 482 695 l 5
 507 695 l 5
 532 695 l 5
 531 670 l 5xd0
 521 15 l 5
 521 -10 l 5
 496 -10 l 5xe0
227 582 m 5
 204 593 l 5
 216 616 l 5
 248 677 l 5
 255 690 l 5
 270 690 l 5
 712 694 l 5
 725 694 l 5
 733 684 l 5
 779 623 l 5
 794 603 l 5
 774 588 l 5
 754 573 l 5
 739 593 l 5
 701 644 l 5
 285 640 l 5
 260 592 l 5
 248 570 l 5
 227 582 l 5
504 714 m 5
 532 760 l 5
 473 760 l 5
 504 714 l 5
485 654 m 5
 405 770 l 5
 379 808 l 5
 426 809 l 5
 576 811 l 5
 620 812 l 5
 598 773 l 5
 528 655 l 5
 508 622 l 5
 485 654 l 5
468 -98 m 0
 471 -121 484 -131 492 -130 c 0
 507 -129 520 -116 518 -98 c 0
 516 -76 499 -62 481 -64 c 0xd0
 475 -64 465 -74 468 -98 c 0
419 -106 m 0
 415 -74 425 -17 477 -14 c 0
 525 -10 562 -49 567 -91 c 0
 573 -133 543 -177 496 -180 c 0
 448 -183 424 -139 419 -106 c 0
EndSplineSet
Validated: 37
Ligature2: "ltligs1" T T
EndChar

StartChar: lt_TK
Encoding: 401 -1 170
Width: 1000
Flags: W
HStem: 16.6011 50.9526<597.112 753.609> 640 50<285 485 528 701> 654 36<485 528> 760 51<473 532>
LayerCount: 2
Fore
SplineSet
638.772759913 255.123154892 m 1x90
 653.978485773 283.933438306 l 1
 657.783829695 291.143422091 l 1
 662.4852462 284.48300233 l 1
 681.675293481 257.296776649 l 1
 822.476291039 60.4956473257 l 1
 844.075900414 30.0962332632 l 1
 849.542822659 22.4020555545 l 1
 840.106334057 22.2013261335 l 1
 802.497475422 21.4013332596 l 1
 555.322081253 16.601095214 l 1
 522.522276566 15.8012905265 l 1
 514.107783742 15.5961078778 l 1
 517.95248946 23.0836994365 l 1
 533.159153493 52.698785116 l 1
 638.772759913 255.123154892 l 1x90
663.874725268 196.05294217 m 1
 597.111838894 67.5537086322 l 1
 753.609316462 70.4245144989 l 1
 663.874725268 196.05294217 l 1
745.233570757 423.937857403 m 1
 725.306851658 428.72007539 l 1
 706.180433984 432.704705205 l 1
 701.135716501 433.755677323 l 1
 702.338248028 438.766429243 l 1
 707.12821029 458.725417465 l 1
 724.279632104 535.908023536 l 1
 189.013573565 13.9449743341 l 1
 173.734406911 0.273831001482 l 1
 170.209588437 -2.8800254666 l 1
 166.864983657 0.464339160867 l 1
 153.216516495 14.1118263226 l 1
 138.770535286 29.3611784766 l 1
 135.23282315 33.0956301145 l 1
 139.066241384 36.5258547191 l 1
 154.18489471 50.0543489924 l 1
 671.275008528 554.664914246 l 1
 590.012471577 534.349480003 l 1
 585.161738477 533.136808666 l 1
 583.94908493 537.987546214 l 1
 574.349475555 576.386960276 l 1
 573.146005662 581.200962276 l 1
 577.950724497 582.440975162 l 1
 602.763891742 588.844794771 l 1
 797.164282367 638.444404146 l 1
 805.317341822 640.524588054 l 1
 803.246615873 632.369121322 l 1
 751.246615873 427.569316635 l 1
 750.032162248 422.786242306 l 1
 745.233570757 423.937857403 l 1
227 582 m 1
 204 593 l 1
 216 616 l 1
 248 677 l 1
 255 690 l 1
 270 690 l 1xb0
 712 694 l 1
 725 694 l 1
 733 684 l 1
 779 623 l 1
 794 603 l 1
 774 588 l 1
 754 573 l 1
 739 593 l 1
 701 644 l 1
 285 640 l 1xd0
 260 592 l 1
 248 570 l 1
 227 582 l 1
504 714 m 1
 532 760 l 1
 473 760 l 1
 504 714 l 1
485 654 m 1
 405 770 l 1
 379 808 l 1
 426 809 l 1
 576 811 l 1
 620 812 l 1
 598 773 l 1
 528 655 l 1
 506 653 l 1
 485 654 l 1
EndSplineSet
Validated: 524293
Ligature2: "ltligs1" T K
EndChar

StartChar: lt_TS
Encoding: 402 -1 171
Width: 1000
Flags: W
HStem: 253.996 50.2003<209.4 492.498> 267.002 49.9951<478.207 744.796> 644 9<485 506> 653 41<485 528> 760 51<473 532>
VStem: 479 50<-11.4004 557.406>
LayerCount: 2
Fore
SplineSet
748.959717364 298.233157172 m 0x0c
 751.258944236 280.609180976 759.994952931 276.738299483 761.780403292 276.961412673 c 2
 761.923742337 276.979324586 l 1
 762.067876413 276.988931178 l 2
 771.2047582 277.597907918 778.739051883 285.272336604 777.425454159 297.097121977 c 0
 776.016236299 312.593359614 765.321274834 321.071863247 754.151951944 319.830406566 c 2
 753.87662839 319.799804688 l 1
 753.643549747 319.799804688 l 2
 752.998965691 319.624295525 746.849756508 315.110268804 748.959717364 298.233157172 c 0x0c
699.046681263 290.515461394 m 0
 695.770282301 316.724653457 703.627954542 367.110401506 750.048749602 369.787832748 c 0
 791.523405879 373.244317797 822.312760049 339.505886406 826.557626383 303.849423733 c 0
 831.706265119 267.814189196 806.79687227 229.619825678 765.911556113 227.009740565 c 0
 723.587965138 224.364045221 703.200317584 263.101056044 699.046681263 290.515461394 c 0
234.561853652 255.002460494 m 1
 209.400390625 253.996247691 l 1
 209.400390625 279.100137741 l 1
 208.403259853 304.00408679 l 1
 213.407497816 304.196503264 l 2x8c
 218.408733857 304.388804312 225.60188429 304.698649312 229.204237189 304.837162318 c 0
 231.244864639 304.887589725 232.552013909 304.955849878 234.276869751 304.998474027 c 2
 719.838334408 316.997531405 l 1
 744.796215261 317.99560291 l 1
 746.795407597 268.003589426 l 1
 742.632068646 267.837096526 l 1
 741.799400856 267.803797946 l 1
 721.761072402 267.002460494 l 1x4c
 234.561853652 255.002460494 l 1
504 -11.400390625 m 1
 484 -11.400390625 l 1
 479 -11.400390625 l 1
 479 -6.400390625 l 1
 479 13.5729773813 l 1
 472.599609375 614.373758631 l 1
 472.599609375 660 l 1
 472.599609375 671.266537816 l 1
 480.95416753 663.707686554 l 1
 514.556288184 633.305906805 l 1
 717.734406911 449.325778374 l 1
 732.933625661 435.726168999 l 1
 736.767303136 432.295958736 l 1
 733.229464714 428.561373789 l 1
 718.878944852 413.412791785 l 1
 705.325765854 398.265579097 l 1
 701.900610685 394.437580231 l 1
 698.1663397 397.964687184 l 1
 683.804995049 411.529315665 l 1
 522.731476976 557.40634386 l 1
 529 14.4292514842 l 1
 529 -6.400390625 l 1
 529 -11.400390625 l 1
 524 -11.400390625 l 1
 504 -11.400390625 l 1
227 582 m 1
 204 593 l 1
 216 616 l 1
 248 677 l 1
 255 690 l 1
 270 690 l 1
 712 694 l 1
 725 694 l 1x1c
 733 684 l 1
 779 623 l 1
 794 603 l 1
 774 588 l 1
 754 573 l 1
 739 593 l 1
 701 644 l 1x2c
 285 640 l 1
 260 592 l 1
 248 570 l 1
 227 582 l 1
504 714 m 1
 532 760 l 1
 473 760 l 1
 504 714 l 1
485 654 m 1
 405 770 l 1
 379 808 l 1
 426 809 l 1
 576 811 l 1
 620 812 l 1
 598 773 l 1
 528 655 l 1
 506 653 l 1x2c
 485 654 l 1
EndSplineSet
Validated: 524325
Ligature2: "ltligs1" T S
EndChar

StartChar: lt_TF
Encoding: 403 -1 172
Width: 1000
Flags: W
HStem: 640 50<285 485 528 701> 654 36<485 528> 760 51<473 532>
VStem: 474.2 50<9.59658 33.5996 561.343 601.8>
LayerCount: 2
Fore
SplineSet
828.842710942 534.322123791 m 1x30
 847.242125004 527.922709728 l 1
 851.729974513 526.361811802 l 1
 850.399639452 521.800298437 l 1
 844.775181296 502.514900493 l 2
 812.770879131 405.702081785 795.418746013 348.271011234 713.730457354 274.670691498 c 0
 621.569179858 192.3843747 509.008039569 272.586258364 444.333068634 230.213721247 c 0
 348.123456524 167.398860247 316.058429802 121.062081397 239.839790085 28.797412266 c 2
 227.024795906 13.5791789257 l 1
 223.804170144 9.75457833185 l 1
 220.617002983 12.4384331334 l 1
 219.979569551 12.9752040937 l 1
 204.83980002 25.7241253421 l 1
 189.701607769 37.6751761857 l 1
 185.7517787 40.7934222255 l 1
 188.895437391 44.7230555513 l 1
 201.723736711 60.758674385 l 2
 275.993710667 150.202199185 314.198205216 205.349748264 416.463948498 272.18484807 c 0
 524.199279327 342.627179766 620.437283035 257.520729382 680.650699217 311.712436433 c 0
 753.47573707 377.414021017 765.593922339 419.788081033 797.630815212 518.300940003 c 2
 803.216593705 536.655882166 l 1
 804.655497541 541.384139244 l 1
 809.400121872 540.000159765 l 1
 828.600317185 534.399573827 l 1
 828.722499805 534.363933864 l 1
 828.842710942 534.322123791 l 1x30
185.529178417 118.505701431 m 1
 173.599609375 102.599609375 l 1
 170.42530204 98.3671995946 l 1
 166.378718783 101.775231806 l 1
 151.162202523 114.590648138 l 1
 135.162202523 128.190257513 l 1
 131.487923348 131.313305107 l 1
 134.475957436 135.098196918 l 1
 146.514213383 150.346850387 l 2
 220.837553796 239.854843861 260.617237625 294.962519569 362.86336256 361.784457445 c 0
 470.600788385 432.228158946 566.033452789 347.117246785 626.252534517 401.314052792 c 0
 697.945594716 465.916474304 703.003629525 509.060753607 704.599609375 605.640918864 c 2
 704.599609375 625.599609375 l 1
 704.599609375 630.795557673 l 1
 709.791720934 630.595917327 l 1
 730.496481882 629.799804688 l 1
 749.599609375 629.799804688 l 1
 754.599609375 629.799804688 l 1
 754.599609375 624.799804688 l 1
 754.599609375 604.759166648 l 2
 752.994620712 506.028847536 743.801568255 438.205629791 660.129891612 363.470514217 c 0
 567.954376373 281.17058824 453.786280452 362.171694535 389.133830549 319.813317999 c 0
 292.948947316 257.015235918 261.730181597 210.74902107 185.529178417 118.505701431 c 1
479.58040035 615.449223245 m 1
 494.775415553 631.443770568 l 1
 498.59125897 635.460396238 l 1
 502.196720368 631.253902346 l 1
 516.581619716 614.470955942 l 1
 670.182205653 436.870370004 l 1
 673.39841634 433.151628315 l 1
 669.734287945 429.873333934 l 1
 654.534092633 416.273724559 l 1
 639.33389732 402.674115184 l 1
 635.527584165 399.26860815 l 1
 632.203725045 403.146424358 l 1
 496.606253046 561.342682285 l 1
 343.622362035 400.55348099 l 1
 340.188643769 396.944572799 l 1
 336.566983679 400.364838527 l 1
 322.21541624 413.91833969 l 1
 307.066241384 427.474145281 l 1
 303.215808599 430.919594869 l 1
 306.785792153 434.654855626 l 1
 479.58040035 615.449223245 l 1
496 601.799804688 m 1
 516 601.799804688 l 1
 521 601.799804688 l 1
 521 596.799804688 l 1
 520.999917655 591.228890966 l 1
 524.200195312 33.599609375 l 1
 524.200195312 14.400390625 l 1
 524.200195312 9.59657972616 l 1
 519.400230348 9.40439362897 l 1
 499.300252884 8.599609375 l 1
 479.200195312 8.599609375 l 1
 474.200195312 8.599609375 l 1
 474.200195312 13.599609375 l 1
 474.200277657 33.5709137218 l 1
 471 591.200195312 l 1
 471 596.799804688 l 1
 471 601.799804688 l 1
 476 601.799804688 l 1
 496 601.799804688 l 1
227 582 m 1
 204 593 l 1
 216 616 l 1
 248 677 l 1
 255 690 l 1
 270 690 l 1x70
 712 694 l 1
 725 694 l 1
 733 684 l 1
 779 623 l 1
 794 603 l 1
 774 588 l 1
 754 573 l 1
 739 593 l 1
 701 644 l 1
 285 640 l 1xb0
 260 592 l 1
 248 570 l 1
 227 582 l 1
504 714 m 1
 532 760 l 1
 473 760 l 1
 504 714 l 1
485 654 m 1
 405 770 l 1
 379 808 l 1
 426 809 l 1
 576 811 l 1
 620 812 l 1
 598 773 l 1
 528 655 l 1
 506 653 l 1
 485 654 l 1
EndSplineSet
Validated: 524325
Ligature2: "ltligs1" T F
EndChar

StartChar: lt_TN
Encoding: 404 -1 173
Width: 1000
Flags: W
HStem: 12.5996 50.6951<292.476 701.363> 640 50<285 485 528 701> 654 36<485 528> 760 51<473 532>
VStem: 724.823 48.176<248.652 518.057> 732.363 51.037<103.346 438.168>
LayerCount: 2
Fore
SplineSet
701.36320332 63.294710498 m 1x90
 499.191384095 279.096485221 l 1
 292.47563016 59.5087144502 l 1
 701.36320332 63.294710498 l 1x90
724.823207205 518.057059188 m 1x98
 534.056587776 315.979212702 l 1
 732.36341162 103.345816384 l 1x94
 724.823207205 518.057059188 l 1x98
500.015346961 351.31237162 m 1
 764.358700941 632.226310366 l 1
 772.780093505 641.175604983 l 1
 772.999205122 628.888957069 l 1x98
 783.400390625 45.6441891091 l 1
 783.400390625 17.599609375 l 1
 783.400390625 12.599609375 l 1
 778.400390625 12.599609375 l 1
 757.599609375 12.599609375 l 1
 739.221933147 12.599609375 l 1
 187.243670161 7.79999369732 l 1
 175.527065535 7.69811432448 l 1
 183.560322942 16.2278258553 l 1
 465.151018028 315.220784379 l 1
 221.939192686 576.593924595 l 1
 218.558241054 580.227341448 l 1
 222.166527903 583.635099945 l 1
 250.967309153 610.835295257 l 1
 254.624303521 614.289054383 l 1
 258.056040413 610.611386398 l 1
 500.015346961 351.31237162 l 1
227 582 m 1
 204 593 l 1
 216 616 l 1
 248 677 l 1
 255 690 l 1
 270 690 l 1xb0
 712 694 l 1
 725 694 l 1
 733 684 l 1
 779 623 l 1
 794 603 l 1
 774 588 l 1
 754 573 l 1
 739 593 l 1
 701 644 l 1
 285 640 l 1xd0
 260 592 l 1
 248 570 l 1
 227 582 l 1
504 714 m 1
 532 760 l 1
 473 760 l 1
 504 714 l 1
485 654 m 1
 405 770 l 1
 379 808 l 1
 426 809 l 1
 576 811 l 1
 620 812 l 1
 598 773 l 1
 528 655 l 1
 506 653 l 1
 485 654 l 1
EndSplineSet
Validated: 524293
Ligature2: "ltligs1" T N
EndChar

StartChar: lt_TM
Encoding: 405 -1 174
Width: 1000
Flags: W
HStem: 164.604 49.9917<496.226 727.801> 396.403 49.9922<254.396 440.133> 612.8 25<246.2 296.2> 640 50<285 485 528 701> 654 36<485 528> 760 51<473 532>
LayerCount: 2
Fore
SplineSet
253.400390625 422.304299368 m 1xe4
 253.400390625 441.599609375 l 1
 253.400390625 446.395411329 l 1
 258.192026516 446.595265928 l 1
 277.418158852 447.397169718 l 2
 354.620367339 449.78426593 445.925258393 456.606040405 511.784686094 380.867095587 c 0
 517.400145009 374.315917272 520.751093343 365.669099675 522.480606975 357.884176594 c 2
 522.51567738 357.726316951 l 1
 522.540474273 357.5665211 l 2
 529.65792654 311.700318798 467.312496166 274.131743937 451.705728151 261.337262084 c 1
 527.84188867 206.558673494 577.878748612 223.294530888 706.657683313 215.394006414 c 2
 725.807973484 214.595265928 l 1
 730.795065058 214.387259057 l 1
 730.595616117 209.399817894 l 1
 729.791830892 189.300280172 l 1
 728.184279442 169.20097999 l 1
 727.801205233 164.41138304 l 1
 723.000160277 164.603612379 l 1
 702.936016148 165.4069619 l 2
 582.313062338 173.342644307 511.457196885 153.95009412 415.332702186 226.451421218 c 0
 406.675618914 233.376453772 399.335245252 242.237836912 397.445025264 254.527728773 c 0
 395.569087637 270.466903506 403.943650485 282.128985316 409.652884319 289.470140017 c 0
 430.312131705 316.031386188 464.046934626 339.967502057 471.535913844 349.72265658 c 1
 423.450190767 402.818461078 360.024575601 399.774848162 279.373697776 397.40333129 c 2
 259.400230348 396.603612379 l 1
 254.396303835 396.403259853 l 1
 254.203887361 401.407497816 l 1
 253.400390625 422.304299368 l 1xe4
296.200175235 612.785635246 m 1
 294.613902488 53.0365353249 l 1
 730.382240968 56.2001953125 l 1
 754.403420274 56.2001953125 l 1
 755.400390625 31.3002528836 l 1
 755.400390625 6.2001953125 l 1
 730.417752557 6.2001953125 l 1
 269.616971307 3 l 1
 244.599609375 3 l 1
 244.599628103 28.0136848536 l 0
 246.194732581 610.810750484 l 1024
286.200195312 612.799804688 m 1
 246.200195312 612.799804688 l 1
 246.200195312 637.799804688 l 1
 296.200195312 637.799804688 l 1
 296.200195312 612.799804688 l 1
 286.200195312 612.799804688 l 1
227 582 m 1
 204 593 l 1
 216 616 l 1
 248 677 l 1
 255 690 l 1
 270 690 l 1xec
 712 694 l 1
 725 694 l 1
 733 684 l 1
 779 623 l 1
 794 603 l 1
 774 588 l 1
 754 573 l 1
 739 593 l 1
 701 644 l 1
 285 640 l 1xf4
 260 592 l 1
 248 570 l 1
 227 582 l 1
504 714 m 1
 532 760 l 1
 473 760 l 1
 504 714 l 1
485 654 m 1
 405 770 l 1
 379 808 l 1
 426 809 l 1
 576 811 l 1
 620 812 l 1
 598 773 l 1
 528 655 l 1
 506 653 l 1
 485 654 l 1
EndSplineSet
Validated: 524331
Ligature2: "ltligs1" T M
EndChar

